<svg width="712" height="62" viewBox="0 0 712 62" fill="none" xmlns="http://www.w3.org/2000/svg">
<path d="M230.5 38L218.5 18.5L230 28C235 19 249 1 265 1C249.4 5 235.5 27.3333 230.5 38Z" fill="#ED5F17" stroke="#ED5F17"/>
<path fill-rule="evenodd" clip-rule="evenodd" d="M297.5 17.5V47H301.5V44C304.833 46.5 312.8 50 318 44C323.2 38 321.5 30.8333 320 28C318.333 24 312.6 17.8 303 25V10.5L297.5 17.5ZM245 37.5V31.5C245.667 29.3333 248.2 24.5 253 22.5H262.5C263.667 23.3333 265.3 25.3 262.5 26.5H256.5C255 26.8333 251.8 28.3 251 31.5V37.5C251.333 39.3333 252.9 43 256.5 43H262.5C264 43.5 266.1 44.6 262.5 47H253C248.6 46.2 245.833 40.3333 245 37.5ZM227.5 34L218 47H225.5L230.5 38L234.5 47H242.5L233.5 34H227.5ZM268 38V30C269.6 24.4 274.333 22.6667 276.5 22.5H283.5C287.9 22.5 291 27.5 292 30V38C291.2 44.4 286 46.6667 283.5 47H276.5C272.1 47 269 41 268 38ZM330 27C327.833 26.6667 324.8 25.3 330 22.5H339C340.833 22.6667 344.6 24.1 345 28.5V47H342V44C341 45 338.1 47 334.5 47H331C329.5 47 326.3 46.1 325.5 42.5V38C325.833 36.8333 327.2 34.1 330 32.5C332.8 30.9 337.167 30.8333 339 31C339.667 29.6667 340.2 26.9 337 26.5C333.8 26.1 331 26.6667 330 27ZM215 36H199.5C198.3 40.4 201.667 42.5 203.5 43H213C214.6 43 215 46 213 46.5L209.5 47H203C201.4 47 200 46.3333 199.5 46C196.7 45.2 194.667 40.3333 194 38V33C194 26.6 200 23 203 22H207.5C215.5 23.6 216.5 31.3333 216 35L215 36ZM286.5 34.5C286.5 39.1944 283.59 43 280 43C276.41 43 273.5 39.1944 273.5 34.5C273.5 29.8056 276.41 26 280 26C283.59 26 286.5 29.8056 286.5 34.5ZM309 43C312.59 43 315.5 39.1944 315.5 34.5C315.5 29.8056 312.59 26 309 26C305.41 26 302.5 29.8056 302.5 34.5C302.5 39.1944 305.41 43 309 43ZM337.747 42.2279C335.328 43.6246 332.501 43.2571 331.433 41.4073C330.365 39.5574 331.461 36.9255 333.88 35.5289C336.299 34.1322 339.126 34.4996 340.194 36.3495C341.262 38.1994 340.166 40.8312 337.747 42.2279ZM206.252 32.0215C208.524 32.0778 210.5 32.1268 210.5 30.5C210.5 28.567 208.261 26 205.5 26C202.739 26 200 28.567 200 30.5C200 32.1187 201.534 32.0783 203.655 32.0223C204.066 32.0114 204.5 32 204.949 32C205.387 32 205.825 32.0109 206.252 32.0215Z" fill="white"/>
<path d="M297.5 47H297V47.5H297.5V47ZM297.5 17.5L297.107 17.1911L297 17.3271V17.5H297.5ZM301.5 47V47.5H302V47H301.5ZM301.5 44L301.8 43.6L301 43V44H301.5ZM320 28L319.538 28.1923L319.547 28.2136L319.558 28.2339L320 28ZM303 25H302.5V26L303.3 25.4L303 25ZM303 10.5H303.5V9.05434L302.607 10.1911L303 10.5ZM245 31.5L244.522 31.353L244.5 31.4248V31.5H245ZM245 37.5H244.5V37.572L244.52 37.6411L245 37.5ZM253 22.5V22H252.9L252.808 22.0385L253 22.5ZM262.5 22.5L262.791 22.0931L262.66 22H262.5V22.5ZM262.5 26.5V27H262.603L262.697 26.9596L262.5 26.5ZM256.5 26.5V26H256.445L256.392 26.0119L256.5 26.5ZM251 31.5L250.515 31.3787L250.5 31.4384V31.5H251ZM251 37.5H250.5V37.5451L250.508 37.5894L251 37.5ZM262.5 43L262.658 42.5257L262.581 42.5H262.5V43ZM262.5 47V47.5H262.651L262.777 47.416L262.5 47ZM253 47L252.911 47.4919L252.955 47.5H253V47ZM218 47L217.596 46.705L217.015 47.5H218V47ZM227.5 34V33.5H227.246L227.096 33.705L227.5 34ZM225.5 47V47.5H225.794L225.937 47.2428L225.5 47ZM230.5 38L230.957 37.7969L230.55 36.8809L230.063 37.7572L230.5 38ZM234.5 47L234.043 47.2031L234.175 47.5H234.5V47ZM242.5 47V47.5H243.454L242.911 46.7154L242.5 47ZM233.5 34L233.911 33.7154L233.762 33.5H233.5V34ZM268 30L267.519 29.8626L267.5 29.93V30H268ZM268 38H267.5V38.0811L267.526 38.1581L268 38ZM276.5 22.5V22H276.481L276.462 22.0015L276.5 22.5ZM292 30H292.5V29.9037L292.464 29.8143L292 30ZM292 38L292.496 38.062L292.5 38.0311V38H292ZM283.5 47V47.5H283.533L283.566 47.4956L283.5 47ZM330 22.5V22H329.874L329.763 22.0598L330 22.5ZM330 27L329.924 27.4942L330.043 27.5126L330.158 27.4743L330 27ZM339 22.5L339.045 22.0021L339.023 22H339V22.5ZM345 28.5H345.5V28.4773L345.498 28.4547L345 28.5ZM345 47V47.5H345.5V47H345ZM342 47H341.5V47.5H342V47ZM342 44H342.5V42.7929L341.646 43.6464L342 44ZM325.5 42.5H325V42.5549L325.012 42.6085L325.5 42.5ZM325.5 38L325.019 37.8626L325 37.93V38H325.5ZM339 31L338.955 31.4979L339.295 31.5288L339.447 31.2236L339 31ZM199.5 36V35.5H199.118L199.018 35.8684L199.5 36ZM215 36V36.5H215.207L215.354 36.3536L215 36ZM203.5 43L203.368 43.4824L203.433 43.5H203.5V43ZM213 46.5L213.071 46.995L213.096 46.9913L213.121 46.9851L213 46.5ZM209.5 47V47.5H209.536L209.571 47.495L209.5 47ZM199.5 46L199.777 45.584L199.712 45.5407L199.637 45.5192L199.5 46ZM194 38H193.5V38.07L193.519 38.1374L194 38ZM203 22V21.5H202.919L202.842 21.5257L203 22ZM207.5 22L207.598 21.5097L207.55 21.5H207.5V22ZM216 35L216.354 35.3536L216.473 35.2344L216.495 35.0676L216 35ZM331.433 41.4073L331.866 41.1573L331.866 41.1573L331.433 41.4073ZM337.747 42.2279L337.997 42.6609L337.997 42.6609L337.747 42.2279ZM333.88 35.5289L334.13 35.9619L334.13 35.9619L333.88 35.5289ZM340.194 36.3495L339.761 36.5995L339.761 36.5995L340.194 36.3495ZM206.252 32.0215L206.24 32.5213L206.24 32.5213L206.252 32.0215ZM203.655 32.0223L203.668 32.5221L203.668 32.5221L203.655 32.0223ZM298 47V17.5H297V47H298ZM301.5 46.5H297.5V47.5H301.5V46.5ZM301 44V47H302V44H301ZM317.622 43.6725C315.16 46.5139 312.055 47.1122 309.121 46.6925C306.166 46.2698 303.418 44.8134 301.8 43.6L301.2 44.4C302.915 45.6866 305.818 47.2302 308.979 47.6825C312.162 48.1378 315.64 47.4861 318.378 44.3275L317.622 43.6725ZM319.558 28.2339C321.002 30.9619 322.638 37.8854 317.622 43.6725L318.378 44.3275C323.762 38.1146 321.998 30.7048 320.442 27.7661L319.558 28.2339ZM303.3 25.4C307.999 21.8757 311.649 21.6958 314.287 22.7635C316.967 23.848 318.738 26.272 319.538 28.1923L320.462 27.8077C319.595 25.728 317.666 23.052 314.663 21.8365C311.618 20.6042 307.601 20.9243 302.7 24.6L303.3 25.4ZM302.5 10.5V25H303.5V10.5H302.5ZM297.893 17.8089L303.393 10.8089L302.607 10.1911L297.107 17.1911L297.893 17.8089ZM244.5 31.5V37.5H245.5V31.5H244.5ZM252.808 22.0385C247.817 24.1178 245.212 29.1106 244.522 31.353L245.478 31.647C246.121 29.5561 248.583 24.8822 253.192 22.9615L252.808 22.0385ZM262.5 22H253V23H262.5V22ZM262.697 26.9596C263.452 26.6362 263.977 26.2325 264.273 25.7455C264.578 25.2434 264.602 24.7135 264.47 24.2305C264.219 23.3163 263.404 22.531 262.791 22.0931L262.209 22.9069C262.763 23.3023 263.347 23.9171 263.505 24.4945C263.577 24.7573 263.558 24.9962 263.418 25.2264C263.269 25.4716 262.948 25.7638 262.303 26.0404L262.697 26.9596ZM256.5 27H262.5V26H256.5V27ZM251.485 31.6213C251.85 30.1629 252.763 29.0863 253.786 28.3263C254.813 27.5631 255.922 27.1407 256.608 26.9881L256.392 26.0119C255.578 26.1926 254.337 26.6702 253.189 27.5237C252.037 28.3804 250.95 29.6371 250.515 31.3787L251.485 31.6213ZM251.5 37.5V31.5H250.5V37.5H251.5ZM256.5 42.5C254.895 42.5 253.737 41.6912 252.921 40.6322C252.096 39.5623 251.647 38.266 251.492 37.4106L250.508 37.5894C250.686 38.5674 251.187 40.0211 252.129 41.2428C253.079 42.4754 254.505 43.5 256.5 43.5V42.5ZM262.5 42.5H256.5V43.5H262.5V42.5ZM262.777 47.416C263.701 46.8001 264.311 46.2353 264.651 45.7016C265.004 45.1484 265.081 44.5989 264.875 44.0971C264.683 43.6322 264.284 43.3026 263.896 43.0697C263.499 42.8315 263.047 42.6554 262.658 42.5257L262.342 43.4743C262.703 43.5946 263.076 43.7435 263.382 43.9272C263.697 44.1162 263.879 44.3053 263.95 44.4779C264.006 44.6136 264.027 44.8203 263.808 45.164C263.577 45.5272 263.099 45.9999 262.223 46.584L262.777 47.416ZM253 47.5H262.5V46.5H253V47.5ZM244.52 37.6411C244.949 39.0999 245.871 41.3264 247.253 43.2994C248.628 45.2614 250.518 47.057 252.911 47.4919L253.089 46.5081C251.082 46.143 249.389 44.6053 248.072 42.7256C246.763 40.857 245.884 38.7334 245.48 37.3589L244.52 37.6411ZM218.404 47.295L227.904 34.295L227.096 33.705L217.596 46.705L218.404 47.295ZM225.5 46.5H218V47.5H225.5V46.5ZM230.063 37.7572L225.063 46.7572L225.937 47.2428L230.937 38.2428L230.063 37.7572ZM234.957 46.7969L230.957 37.7969L230.043 38.2031L234.043 47.2031L234.957 46.7969ZM242.5 46.5H234.5V47.5H242.5V46.5ZM233.089 34.2846L242.089 47.2846L242.911 46.7154L233.911 33.7154L233.089 34.2846ZM227.5 34.5H233.5V33.5H227.5V34.5ZM267.5 30V38H268.5V30H267.5ZM276.462 22.0015C274.151 22.1792 269.193 24.0059 267.519 29.8626L268.481 30.1374C270.007 24.7941 274.516 23.1541 276.538 22.9985L276.462 22.0015ZM283.5 22H276.5V23H283.5V22ZM292.464 29.8143C291.946 28.5184 290.891 26.5879 289.392 24.9724C287.896 23.3612 285.898 22 283.5 22V23C285.502 23 287.254 24.1388 288.658 25.6526C290.059 27.1621 291.054 28.9816 291.536 30.1857L292.464 29.8143ZM292.5 38V30H291.5V38H292.5ZM283.566 47.4956C286.201 47.1442 291.658 44.7664 292.496 38.062L291.504 37.938C290.742 44.0336 285.799 46.1891 283.434 46.5044L283.566 47.4956ZM276.5 47.5H283.5V46.5H276.5V47.5ZM267.526 38.1581C268.039 39.6978 269.087 42.0013 270.579 43.9309C272.06 45.8448 274.064 47.5 276.5 47.5V46.5C274.536 46.5 272.79 45.1552 271.371 43.3191C269.963 41.4987 268.961 39.3022 268.474 37.8419L267.526 38.1581ZM329.763 22.0598C328.443 22.7705 327.585 23.4204 327.108 24.0291C326.866 24.3379 326.707 24.6558 326.651 24.9821C326.594 25.3163 326.651 25.6288 326.793 25.9046C327.064 26.4288 327.618 26.7772 328.157 27.0092C328.714 27.2494 329.354 27.4065 329.924 27.4942L330.076 26.5058C329.563 26.4268 329.011 26.2881 328.552 26.0908C328.075 25.8853 327.79 25.6545 327.682 25.4454C327.635 25.3545 327.617 25.2618 327.636 25.1507C327.657 25.0317 327.724 24.8642 327.895 24.6459C328.244 24.2004 328.957 23.6295 330.237 22.9402L329.763 22.0598ZM339 22H330V23H339V22ZM345.498 28.4547C345.284 26.101 344.161 24.5198 342.84 23.5146C341.535 22.5209 340.042 22.0927 339.045 22.0021L338.955 22.9979C339.791 23.074 341.099 23.4457 342.235 24.3104C343.356 25.1635 344.316 26.499 344.502 28.5453L345.498 28.4547ZM345.5 47V28.5H344.5V47H345.5ZM342 47.5H345V46.5H342V47.5ZM341.5 44V47H342.5V44H341.5ZM334.5 47.5C338.27 47.5 341.29 45.4172 342.354 44.3536L341.646 43.6464C340.71 44.5828 337.93 46.5 334.5 46.5V47.5ZM331 47.5H334.5V46.5H331V47.5ZM325.012 42.6085C325.883 46.53 329.376 47.5 331 47.5V46.5C329.624 46.5 326.717 45.67 325.988 42.3915L325.012 42.6085ZM325 38V42.5H326V38H325ZM329.752 32.0659C326.812 33.7461 325.379 36.604 325.019 37.8626L325.981 38.1374C326.288 37.0627 327.588 34.4539 330.248 32.9341L329.752 32.0659ZM339.045 30.5021C338.096 30.4157 336.511 30.3909 334.804 30.5909C333.104 30.7902 331.236 31.2178 329.752 32.0659L330.248 32.9341C331.564 32.1822 333.279 31.7765 334.921 31.5841C336.556 31.3924 338.071 31.4176 338.955 31.4979L339.045 30.5021ZM336.938 26.9961C337.667 27.0873 338.133 27.3065 338.429 27.5628C338.723 27.816 338.887 28.1362 338.96 28.4989C339.112 29.2536 338.861 30.1595 338.553 30.7764L339.447 31.2236C339.805 30.5072 340.154 29.3631 339.94 28.3011C339.83 27.7555 339.569 27.2256 339.083 26.806C338.601 26.3893 337.933 26.1127 337.062 26.0039L336.938 26.9961ZM330.158 27.4743C331.094 27.1625 333.819 26.6062 336.938 26.9961L337.062 26.0039C333.781 25.5938 330.906 26.1709 329.842 26.5257L330.158 27.4743ZM199.5 36.5H215V35.5H199.5V36.5ZM203.632 42.5176C202.792 42.2887 201.592 41.6865 200.751 40.6479C199.93 39.6337 199.425 38.1743 199.982 36.1316L199.018 35.8684C198.375 38.2257 198.953 40.0163 199.974 41.2771C200.975 42.5135 202.375 43.2113 203.368 43.4824L203.632 42.5176ZM213 42.5H203.5V43.5H213V42.5ZM213.121 46.9851C214.416 46.6615 214.91 45.5165 214.849 44.5318C214.791 43.594 214.183 42.5 213 42.5V43.5C213.417 43.5 213.809 43.906 213.851 44.5932C213.89 45.2335 213.584 45.8385 212.879 46.0149L213.121 46.9851ZM209.571 47.495L213.071 46.995L212.929 46.005L209.429 46.505L209.571 47.495ZM203 47.5H209.5V46.5H203V47.5ZM199.223 46.416C199.784 46.7903 201.279 47.5 203 47.5V46.5C201.521 46.5 200.216 45.8764 199.777 45.584L199.223 46.416ZM193.519 38.1374C193.861 39.3353 194.551 41.1757 195.519 42.8276C196.468 44.4501 197.762 46.0234 199.363 46.4808L199.637 45.5192C198.438 45.1766 197.315 43.9166 196.381 42.3224C195.465 40.7576 194.805 38.9981 194.481 37.8626L193.519 38.1374ZM193.5 33V38H194.5V33H193.5ZM202.842 21.5257C201.281 22.046 198.963 23.2319 197.026 25.1167C195.084 27.0073 193.5 29.629 193.5 33H194.5C194.5 29.971 195.916 27.5927 197.724 25.8333C199.537 24.0681 201.719 22.954 203.158 22.4743L202.842 21.5257ZM207.5 21.5H203V22.5H207.5V21.5ZM216.495 35.0676C216.755 33.1622 216.627 30.2127 215.392 27.5167C214.146 24.7965 211.773 22.3447 207.598 21.5097L207.402 22.4903C211.227 23.2553 213.354 25.4702 214.483 27.9333C215.623 30.4206 215.745 33.1711 215.505 34.9324L216.495 35.0676ZM215.354 36.3536L216.354 35.3536L215.646 34.6464L214.646 35.6464L215.354 36.3536ZM280 43.5C281.983 43.5 283.744 42.4475 284.993 40.8141C286.242 39.1813 287 36.9472 287 34.5H286C286 36.7472 285.303 38.7631 284.199 40.2067C283.095 41.6498 281.606 42.5 280 42.5V43.5ZM273 34.5C273 36.9472 273.758 39.1813 275.007 40.8141C276.256 42.4475 278.017 43.5 280 43.5V42.5C278.394 42.5 276.905 41.6498 275.801 40.2067C274.697 38.7631 274 36.7472 274 34.5H273ZM280 25.5C278.017 25.5 276.256 26.5525 275.007 28.1859C273.758 29.8187 273 32.0528 273 34.5H274C274 32.2528 274.697 30.2369 275.801 28.7933C276.905 27.3502 278.394 26.5 280 26.5V25.5ZM287 34.5C287 32.0528 286.242 29.8187 284.993 28.1859C283.744 26.5525 281.983 25.5 280 25.5V26.5C281.606 26.5 283.095 27.3502 284.199 28.7933C285.303 30.2369 286 32.2528 286 34.5H287ZM315 34.5C315 36.7472 314.303 38.7631 313.199 40.2067C312.095 41.6498 310.606 42.5 309 42.5V43.5C310.983 43.5 312.744 42.4475 313.993 40.8141C315.242 39.1813 316 36.9472 316 34.5H315ZM309 26.5C310.606 26.5 312.095 27.3502 313.199 28.7933C314.303 30.2369 315 32.2528 315 34.5H316C316 32.0528 315.242 29.8187 313.993 28.1859C312.744 26.5525 310.983 25.5 309 25.5V26.5ZM303 34.5C303 32.2528 303.697 30.2369 304.801 28.7933C305.905 27.3502 307.394 26.5 309 26.5V25.5C307.017 25.5 305.256 26.5525 304.007 28.1859C302.758 29.8187 302 32.0528 302 34.5H303ZM309 42.5C307.394 42.5 305.905 41.6498 304.801 40.2067C303.697 38.7631 303 36.7472 303 34.5H302C302 36.9472 302.758 39.1813 304.007 40.8141C305.256 42.4475 307.017 43.5 309 43.5V42.5ZM331 41.6573C331.629 42.7454 332.758 43.3669 334.019 43.5309C335.28 43.6947 336.701 43.4092 337.997 42.6609L337.497 41.7949C336.374 42.4432 335.173 42.6723 334.148 42.5392C333.124 42.4061 332.306 41.9189 331.866 41.1573L331 41.6573ZM333.63 35.0959C332.333 35.8442 331.376 36.9322 330.887 38.106C330.399 39.2803 330.372 40.5691 331 41.6573L331.866 41.1573C331.427 40.3956 331.414 39.4434 331.81 38.4902C332.207 37.5364 333.007 36.6102 334.13 35.9619L333.63 35.0959ZM340.627 36.0995C339.998 35.0113 338.869 34.3899 337.608 34.2259C336.347 34.062 334.926 34.3475 333.63 35.0959L334.13 35.9619C335.253 35.3136 336.454 35.0844 337.479 35.2176C338.503 35.3506 339.321 35.8378 339.761 36.5995L340.627 36.0995ZM337.997 42.6609C339.293 41.9126 340.251 40.8246 340.74 39.6508C341.228 38.4764 341.255 37.1877 340.627 36.0995L339.761 36.5995C340.2 37.3612 340.213 38.3133 339.817 39.2666C339.42 40.2203 338.62 41.1466 337.497 41.7949L337.997 42.6609ZM210 30.5C210 30.7956 209.915 30.9644 209.8 31.0805C209.672 31.2106 209.455 31.3243 209.113 31.4053C208.413 31.5711 207.426 31.5504 206.265 31.5216L206.24 32.5213C207.35 32.5489 208.488 32.5809 209.343 32.3785C209.779 32.2754 210.199 32.0999 210.511 31.7835C210.838 31.4529 211 31.0178 211 30.5H210ZM205.5 26.5C206.724 26.5 207.854 27.0704 208.686 27.8829C209.528 28.7046 210 29.7084 210 30.5H211C211 29.3586 210.353 28.1124 209.385 27.1674C208.407 26.2131 207.038 25.5 205.5 25.5V26.5ZM200.5 30.5C200.5 29.7438 201.06 28.7451 202.04 27.9046C203.004 27.0779 204.268 26.5 205.5 26.5V25.5C203.971 25.5 202.485 26.2056 201.389 27.1456C200.309 28.0719 199.5 29.3232 199.5 30.5H200.5ZM203.642 31.5225C202.548 31.5513 201.727 31.5675 201.169 31.4084C200.908 31.3336 200.756 31.2326 200.664 31.1178C200.576 31.0061 200.5 30.8249 200.5 30.5H199.5C199.5 30.9845 199.616 31.4053 199.881 31.7395C200.144 32.0706 200.508 32.2595 200.895 32.3699C201.635 32.5813 202.641 32.5492 203.668 32.5221L203.642 31.5225ZM204.949 31.5C204.493 31.5 204.052 31.5116 203.642 31.5225L203.668 32.5221C204.081 32.5112 204.508 32.5 204.949 32.5V31.5ZM206.265 31.5216C205.838 31.511 205.394 31.5 204.949 31.5V32.5C205.379 32.5 205.811 32.5107 206.24 32.5213L206.265 31.5216Z" fill="#F1F1F1"/>
<path d="M7.71591 52.8864H2.65909L3.11364 36.5909H7.27273L7.71591 52.8864ZM5.19318 29.3182C5.91288 29.3182 6.54545 29.5833 7.09091 30.1136C7.63636 30.6439 7.91288 31.2879 7.92045 32.0455C7.91288 32.7879 7.63636 33.4242 7.09091 33.9545C6.54545 34.4848 5.91288 34.75 5.19318 34.75C4.44318 34.75 3.79924 34.4848 3.26136 33.9545C2.72348 33.4242 2.45833 32.7879 2.46591 32.0455C2.45833 31.5379 2.57576 31.0795 2.81818 30.6705C3.06818 30.2614 3.40152 29.9356 3.81818 29.6932C4.23485 29.4432 4.69318 29.3182 5.19318 29.3182ZM12.3977 47V23.7273H17.3182V42.9432H27.2955V47H12.3977ZM35.4403 47.3295C34.3267 47.3295 33.3343 47.1364 32.4631 46.75C31.5919 46.3561 30.9025 45.7765 30.3949 45.0114C29.8949 44.2386 29.6449 43.2765 29.6449 42.125C29.6449 41.1553 29.8229 40.3409 30.179 39.6818C30.535 39.0227 31.0199 38.4924 31.6335 38.0909C32.2472 37.6894 32.9441 37.3864 33.7244 37.1818C34.5123 36.9773 35.3381 36.8333 36.2017 36.75C37.2169 36.6439 38.035 36.5455 38.6562 36.4545C39.2775 36.3561 39.7282 36.2121 40.0085 36.0227C40.2888 35.8333 40.429 35.553 40.429 35.1818V35.1136C40.429 34.3939 40.2017 33.8371 39.7472 33.4432C39.3002 33.0492 38.6638 32.8523 37.8381 32.8523C36.9669 32.8523 36.2737 33.0455 35.7585 33.4318C35.2434 33.8106 34.9025 34.2879 34.7358 34.8636L30.2585 34.5C30.4858 33.4394 30.9328 32.5227 31.5994 31.75C32.2661 30.9697 33.1259 30.3712 34.179 29.9545C35.2396 29.5303 36.4669 29.3182 37.8608 29.3182C38.8305 29.3182 39.7585 29.4318 40.6449 29.6591C41.5388 29.8864 42.3305 30.2386 43.0199 30.7159C43.7169 31.1932 44.2661 31.8068 44.6676 32.5568C45.0691 33.2992 45.2699 34.1894 45.2699 35.2273V47H40.679V44.5795H40.5426C40.2623 45.125 39.8873 45.6061 39.4176 46.0227C38.9479 46.4318 38.3835 46.7538 37.7244 46.9886C37.0653 47.2159 36.304 47.3295 35.4403 47.3295ZM36.8267 43.9886C37.5388 43.9886 38.1676 43.8485 38.7131 43.5682C39.2585 43.2803 39.6866 42.8939 39.9972 42.4091C40.3078 41.9242 40.4631 41.375 40.4631 40.7614V38.9091C40.3116 39.0076 40.1032 39.0985 39.8381 39.1818C39.5805 39.2576 39.2888 39.3295 38.9631 39.3977C38.6373 39.4583 38.3116 39.5152 37.9858 39.5682C37.66 39.6136 37.3646 39.6553 37.0994 39.6932C36.5313 39.7765 36.035 39.9091 35.6108 40.0909C35.1866 40.2727 34.857 40.5189 34.6222 40.8295C34.3873 41.1326 34.2699 41.5114 34.2699 41.9659C34.2699 42.625 34.5085 43.1288 34.9858 43.4773C35.4706 43.8182 36.0843 43.9886 36.8267 43.9886ZM64.2955 53.9091C62.7273 53.9091 61.3826 53.6932 60.2614 53.2614C59.1477 52.8371 58.2614 52.2576 57.6023 51.5227C56.9432 50.7879 56.5152 49.9621 56.3182 49.0455L60.7955 48.4432C60.9318 48.7917 61.1477 49.1174 61.4432 49.4205C61.7386 49.7235 62.1288 49.9659 62.6136 50.1477C63.1061 50.3371 63.7045 50.4318 64.4091 50.4318C65.4621 50.4318 66.3295 50.1742 67.0114 49.6591C67.7008 49.1515 68.0455 48.2992 68.0455 47.1023V43.9091H67.8409C67.6288 44.3939 67.3106 44.8523 66.8864 45.2841C66.4621 45.7159 65.9167 46.0682 65.25 46.3409C64.5833 46.6136 63.7879 46.75 62.8636 46.75C61.553 46.75 60.3598 46.447 59.2841 45.8409C58.2159 45.2273 57.3636 44.2917 56.7273 43.0341C56.0985 41.7689 55.7841 40.1705 55.7841 38.2386C55.7841 36.2614 56.1061 34.6098 56.75 33.2841C57.3939 31.9583 58.25 30.9659 59.3182 30.3068C60.3939 29.6477 61.572 29.3182 62.8523 29.3182C63.8295 29.3182 64.6477 29.4848 65.3068 29.8182C65.9659 30.1439 66.4962 30.553 66.8977 31.0455C67.3068 31.5303 67.6212 32.0076 67.8409 32.4773H68.0227V29.5455H72.8295V47.1705C72.8295 48.6553 72.4659 49.8977 71.7386 50.8977C71.0114 51.8977 70.0038 52.6477 68.7159 53.1477C67.4356 53.6553 65.9621 53.9091 64.2955 53.9091ZM64.3977 43.1136C65.178 43.1136 65.8371 42.9205 66.375 42.5341C66.9205 42.1402 67.3371 41.5795 67.625 40.8523C67.9205 40.1174 68.0682 39.2386 68.0682 38.2159C68.0682 37.1932 67.9242 36.3068 67.6364 35.5568C67.3485 34.7992 66.9318 34.2121 66.3864 33.7955C65.8409 33.3788 65.178 33.1705 64.3977 33.1705C63.6023 33.1705 62.9318 33.3864 62.3864 33.8182C61.8409 34.2424 61.428 34.8333 61.1477 35.5909C60.8674 36.3485 60.7273 37.2235 60.7273 38.2159C60.7273 39.2235 60.8674 40.0947 61.1477 40.8295C61.4356 41.5568 61.8485 42.1212 62.3864 42.5227C62.9318 42.9167 63.6023 43.1136 64.3977 43.1136ZM87.875 39.5682V29.5455H92.7159V47H88.0682V43.8295H87.8864C87.4924 44.8523 86.8371 45.6742 85.9205 46.2955C85.0114 46.9167 83.9015 47.2273 82.5909 47.2273C81.4242 47.2273 80.3977 46.9621 79.5114 46.4318C78.625 45.9015 77.9318 45.1477 77.4318 44.1705C76.9394 43.1932 76.6894 42.0227 76.6818 40.6591V29.5455H81.5227V39.7955C81.5303 40.8258 81.8068 41.6402 82.3523 42.2386C82.8977 42.8371 83.6288 43.1364 84.5455 43.1364C85.1288 43.1364 85.6742 43.0038 86.1818 42.7386C86.6894 42.4659 87.0985 42.0644 87.4091 41.5341C87.7273 41.0038 87.8826 40.3485 87.875 39.5682ZM96.5881 47V29.5455H101.429V47H96.5881ZM97.2812 27.2955L99.6903 22.125H104.168L100.702 27.2955H97.2812ZM110.284 47.3295C109.17 47.3295 108.178 47.1364 107.307 46.75C106.436 46.3561 105.746 45.7765 105.239 45.0114C104.739 44.2386 104.489 43.2765 104.489 42.125C104.489 41.1553 104.667 40.3409 105.023 39.6818C105.379 39.0227 105.864 38.4924 106.477 38.0909C107.091 37.6894 107.788 37.3864 108.568 37.1818C109.356 36.9773 110.182 36.8333 111.045 36.75C112.061 36.6439 112.879 36.5455 113.5 36.4545C114.121 36.3561 114.572 36.2121 114.852 36.0227C115.133 35.8333 115.273 35.553 115.273 35.1818V35.1136C115.273 34.3939 115.045 33.8371 114.591 33.4432C114.144 33.0492 113.508 32.8523 112.682 32.8523C111.811 32.8523 111.117 33.0455 110.602 33.4318C110.087 33.8106 109.746 34.2879 109.58 34.8636L105.102 34.5C105.33 33.4394 105.777 32.5227 106.443 31.75C107.11 30.9697 107.97 30.3712 109.023 29.9545C110.083 29.5303 111.311 29.3182 112.705 29.3182C113.674 29.3182 114.602 29.4318 115.489 29.6591C116.383 29.8864 117.174 30.2386 117.864 30.7159C118.561 31.1932 119.11 31.8068 119.511 32.5568C119.913 33.2992 120.114 34.1894 120.114 35.2273V47H115.523V44.5795H115.386C115.106 45.125 114.731 45.6061 114.261 46.0227C113.792 46.4318 113.227 46.7538 112.568 46.9886C111.909 47.2159 111.148 47.3295 110.284 47.3295ZM111.67 43.9886C112.383 43.9886 113.011 43.8485 113.557 43.5682C114.102 43.2803 114.53 42.8939 114.841 42.4091C115.152 41.9242 115.307 41.375 115.307 40.7614V38.9091C115.155 39.0076 114.947 39.0985 114.682 39.1818C114.424 39.2576 114.133 39.3295 113.807 39.3977C113.481 39.4583 113.155 39.5152 112.83 39.5682C112.504 39.6136 112.208 39.6553 111.943 39.6932C111.375 39.7765 110.879 39.9091 110.455 40.0909C110.03 40.2727 109.701 40.5189 109.466 40.8295C109.231 41.1326 109.114 41.5114 109.114 41.9659C109.114 42.625 109.352 43.1288 109.83 43.4773C110.314 43.8182 110.928 43.9886 111.67 43.9886ZM137.707 47.2841C136.382 47.2841 135.181 46.9432 134.105 46.2614C133.037 45.572 132.188 44.5606 131.56 43.2273C130.938 41.8864 130.628 40.2424 130.628 38.2955C130.628 36.2955 130.95 34.6326 131.594 33.3068C132.238 31.9735 133.094 30.9773 134.162 30.3182C135.238 29.6515 136.416 29.3182 137.696 29.3182C138.673 29.3182 139.488 29.4848 140.139 29.8182C140.798 30.1439 141.329 30.553 141.73 31.0455C142.139 31.5303 142.45 32.0076 142.662 32.4773H142.81V23.7273H147.639V47H142.866V44.2045H142.662C142.435 44.6894 142.113 45.1705 141.696 45.6477C141.287 46.1174 140.753 46.5076 140.094 46.8182C139.442 47.1288 138.647 47.2841 137.707 47.2841ZM139.241 43.4318C140.022 43.4318 140.681 43.2197 141.219 42.7955C141.764 42.3636 142.181 41.7614 142.469 40.9886C142.764 40.2159 142.912 39.3106 142.912 38.2727C142.912 37.2348 142.768 36.3333 142.48 35.5682C142.192 34.803 141.776 34.2121 141.23 33.7955C140.685 33.3788 140.022 33.1705 139.241 33.1705C138.446 33.1705 137.776 33.3864 137.23 33.8182C136.685 34.25 136.272 34.8485 135.991 35.6136C135.711 36.3788 135.571 37.2652 135.571 38.2727C135.571 39.2879 135.711 40.1856 135.991 40.9659C136.279 41.7386 136.692 42.3447 137.23 42.7841C137.776 43.2159 138.446 43.4318 139.241 43.4318ZM159.574 47.3409C157.778 47.3409 156.233 46.9773 154.938 46.25C153.65 45.5152 152.657 44.4773 151.96 43.1364C151.263 41.7879 150.915 40.1932 150.915 38.3523C150.915 36.5568 151.263 34.9811 151.96 33.625C152.657 32.2689 153.638 31.2121 154.903 30.4545C156.176 29.697 157.669 29.3182 159.381 29.3182C160.532 29.3182 161.604 29.5038 162.597 29.875C163.597 30.2386 164.468 30.7879 165.21 31.5227C165.96 32.2576 166.544 33.1818 166.96 34.2955C167.377 35.4015 167.585 36.697 167.585 38.1818V39.5114H152.847V36.5114H163.028C163.028 35.8144 162.877 35.197 162.574 34.6591C162.271 34.1212 161.85 33.7008 161.312 33.3977C160.782 33.0871 160.165 32.9318 159.46 32.9318C158.725 32.9318 158.074 33.1023 157.506 33.4432C156.945 33.7765 156.506 34.2273 156.188 34.7955C155.869 35.3561 155.706 35.9811 155.699 36.6705V39.5227C155.699 40.3864 155.858 41.1326 156.176 41.7614C156.502 42.3902 156.96 42.875 157.551 43.2159C158.142 43.5568 158.843 43.7273 159.653 43.7273C160.191 43.7273 160.684 43.6515 161.131 43.5C161.578 43.3485 161.96 43.1212 162.278 42.8182C162.597 42.5152 162.839 42.1439 163.006 41.7045L167.483 42C167.256 43.0758 166.79 44.0152 166.085 44.8182C165.388 45.6136 164.487 46.2348 163.381 46.6818C162.282 47.1212 161.013 47.3409 159.574 47.3409ZM175.585 23.7273V47H170.744V23.7273H175.585ZM367.608 53.5455C366.994 53.5455 366.419 53.4962 365.881 53.3977C365.35 53.3068 364.911 53.1894 364.562 53.0455L365.653 49.4318C366.222 49.6061 366.733 49.7008 367.188 49.7159C367.65 49.7311 368.047 49.625 368.381 49.3977C368.722 49.1705 368.998 48.7841 369.21 48.2386L369.494 47.5L363.233 29.5455H368.324L371.938 42.3636H372.119L375.767 29.5455H380.892L374.108 48.8864C373.782 49.8258 373.339 50.6439 372.778 51.3409C372.225 52.0455 371.525 52.5871 370.676 52.9659C369.828 53.3523 368.805 53.5455 367.608 53.5455ZM387.878 47.3295C386.764 47.3295 385.772 47.1364 384.901 46.75C384.029 46.3561 383.34 45.7765 382.832 45.0114C382.332 44.2386 382.082 43.2765 382.082 42.125C382.082 41.1553 382.26 40.3409 382.616 39.6818C382.973 39.0227 383.457 38.4924 384.071 38.0909C384.685 37.6894 385.382 37.3864 386.162 37.1818C386.95 36.9773 387.776 36.8333 388.639 36.75C389.654 36.6439 390.473 36.5455 391.094 36.4545C391.715 36.3561 392.166 36.2121 392.446 36.0227C392.726 35.8333 392.866 35.553 392.866 35.1818V35.1136C392.866 34.3939 392.639 33.8371 392.185 33.4432C391.738 33.0492 391.101 32.8523 390.276 32.8523C389.404 32.8523 388.711 33.0455 388.196 33.4318C387.681 33.8106 387.34 34.2879 387.173 34.8636L382.696 34.5C382.923 33.4394 383.37 32.5227 384.037 31.75C384.704 30.9697 385.563 30.3712 386.616 29.9545C387.677 29.5303 388.904 29.3182 390.298 29.3182C391.268 29.3182 392.196 29.4318 393.082 29.6591C393.976 29.8864 394.768 30.2386 395.457 30.7159C396.154 31.1932 396.704 31.8068 397.105 32.5568C397.507 33.2992 397.707 34.1894 397.707 35.2273V47H393.116V44.5795H392.98C392.7 45.125 392.325 45.6061 391.855 46.0227C391.385 46.4318 390.821 46.7538 390.162 46.9886C389.503 47.2159 388.741 47.3295 387.878 47.3295ZM389.264 43.9886C389.976 43.9886 390.605 43.8485 391.151 43.5682C391.696 43.2803 392.124 42.8939 392.435 42.4091C392.745 41.9242 392.901 41.375 392.901 40.7614V38.9091C392.749 39.0076 392.541 39.0985 392.276 39.1818C392.018 39.2576 391.726 39.3295 391.401 39.3977C391.075 39.4583 390.749 39.5152 390.423 39.5682C390.098 39.6136 389.802 39.6553 389.537 39.6932C388.969 39.7765 388.473 39.9091 388.048 40.0909C387.624 40.2727 387.295 40.5189 387.06 40.8295C386.825 41.1326 386.707 41.5114 386.707 41.9659C386.707 42.625 386.946 43.1288 387.423 43.4773C387.908 43.8182 388.522 43.9886 389.264 43.9886ZM416.824 47.3409C415.028 47.3409 413.483 46.9773 412.188 46.25C410.9 45.5152 409.907 44.4773 409.21 43.1364C408.513 41.7879 408.165 40.1932 408.165 38.3523C408.165 36.5568 408.513 34.9811 409.21 33.625C409.907 32.2689 410.888 31.2121 412.153 30.4545C413.426 29.697 414.919 29.3182 416.631 29.3182C417.782 29.3182 418.854 29.5038 419.847 29.875C420.847 30.2386 421.718 30.7879 422.46 31.5227C423.21 32.2576 423.794 33.1818 424.21 34.2955C424.627 35.4015 424.835 36.697 424.835 38.1818V39.5114H410.097V36.5114H420.278C420.278 35.8144 420.127 35.197 419.824 34.6591C419.521 34.1212 419.1 33.7008 418.562 33.3977C418.032 33.0871 417.415 32.9318 416.71 32.9318C415.975 32.9318 415.324 33.1023 414.756 33.4432C414.195 33.7765 413.756 34.2273 413.438 34.7955C413.119 35.3561 412.956 35.9811 412.949 36.6705V39.5227C412.949 40.3864 413.108 41.1326 413.426 41.7614C413.752 42.3902 414.21 42.875 414.801 43.2159C415.392 43.5568 416.093 43.7273 416.903 43.7273C417.441 43.7273 417.934 43.6515 418.381 43.5C418.828 43.3485 419.21 43.1212 419.528 42.8182C419.847 42.5152 420.089 42.1439 420.256 41.7045L424.733 42C424.506 43.0758 424.04 44.0152 423.335 44.8182C422.638 45.6136 421.737 46.2348 420.631 46.6818C419.532 47.1212 418.263 47.3409 416.824 47.3409ZM442.517 34.5227L438.085 34.7955C438.009 34.4167 437.847 34.0758 437.597 33.7727C437.347 33.4621 437.017 33.2159 436.608 33.0341C436.206 32.8447 435.725 32.75 435.165 32.75C434.415 32.75 433.782 32.9091 433.267 33.2273C432.752 33.5379 432.494 33.9545 432.494 34.4773C432.494 34.8939 432.661 35.2462 432.994 35.5341C433.328 35.822 433.9 36.053 434.71 36.2273L437.869 36.8636C439.566 37.2121 440.831 37.7727 441.665 38.5455C442.498 39.3182 442.915 40.3333 442.915 41.5909C442.915 42.7348 442.578 43.7386 441.903 44.6023C441.237 45.4659 440.32 46.1402 439.153 46.625C437.994 47.1023 436.657 47.3409 435.142 47.3409C432.831 47.3409 430.991 46.8598 429.619 45.8977C428.256 44.928 427.456 43.6098 427.222 41.9432L431.983 41.6932C432.127 42.3977 432.475 42.9356 433.028 43.3068C433.581 43.6705 434.29 43.8523 435.153 43.8523C436.002 43.8523 436.684 43.6894 437.199 43.3636C437.722 43.0303 437.987 42.6023 437.994 42.0795C437.987 41.6402 437.801 41.2803 437.438 41C437.074 40.7121 436.513 40.4924 435.756 40.3409L432.733 39.7386C431.028 39.3977 429.759 38.8068 428.926 37.9659C428.1 37.125 427.688 36.053 427.688 34.75C427.688 33.6288 427.991 32.6629 428.597 31.8523C429.21 31.0417 430.07 30.4167 431.176 29.9773C432.29 29.5379 433.593 29.3182 435.085 29.3182C437.29 29.3182 439.025 29.7841 440.29 30.7159C441.563 31.6477 442.305 32.9167 442.517 34.5227ZM464.562 39.5682V29.5455H469.403V47H464.756V43.8295H464.574C464.18 44.8523 463.525 45.6742 462.608 46.2955C461.699 46.9167 460.589 47.2273 459.278 47.2273C458.112 47.2273 457.085 46.9621 456.199 46.4318C455.313 45.9015 454.619 45.1477 454.119 44.1705C453.627 43.1932 453.377 42.0227 453.369 40.6591V29.5455H458.21V39.7955C458.218 40.8258 458.494 41.6402 459.04 42.2386C459.585 42.8371 460.316 43.1364 461.233 43.1364C461.816 43.1364 462.362 43.0038 462.869 42.7386C463.377 42.4659 463.786 42.0644 464.097 41.5341C464.415 41.0038 464.57 40.3485 464.562 39.5682ZM478.116 36.9091V47H473.276V29.5455H477.889V32.625H478.094C478.48 31.6098 479.128 30.8068 480.037 30.2159C480.946 29.6174 482.048 29.3182 483.344 29.3182C484.556 29.3182 485.613 29.5833 486.514 30.1136C487.416 30.6439 488.116 31.4015 488.616 32.3864C489.116 33.3636 489.366 34.5303 489.366 35.8864V47H484.526V36.75C484.533 35.6818 484.26 34.8485 483.707 34.25C483.154 33.6439 482.393 33.3409 481.423 33.3409C480.772 33.3409 480.196 33.4811 479.696 33.7614C479.204 34.0417 478.817 34.4508 478.537 34.9886C478.264 35.5189 478.124 36.1591 478.116 36.9091ZM498.159 47.3295C497.045 47.3295 496.053 47.1364 495.182 46.75C494.311 46.3561 493.621 45.7765 493.114 45.0114C492.614 44.2386 492.364 43.2765 492.364 42.125C492.364 41.1553 492.542 40.3409 492.898 39.6818C493.254 39.0227 493.739 38.4924 494.352 38.0909C494.966 37.6894 495.663 37.3864 496.443 37.1818C497.231 36.9773 498.057 36.8333 498.92 36.75C499.936 36.6439 500.754 36.5455 501.375 36.4545C501.996 36.3561 502.447 36.2121 502.727 36.0227C503.008 35.8333 503.148 35.553 503.148 35.1818V35.1136C503.148 34.3939 502.92 33.8371 502.466 33.4432C502.019 33.0492 501.383 32.8523 500.557 32.8523C499.686 32.8523 498.992 33.0455 498.477 33.4318C497.962 33.8106 497.621 34.2879 497.455 34.8636L492.977 34.5C493.205 33.4394 493.652 32.5227 494.318 31.75C494.985 30.9697 495.845 30.3712 496.898 29.9545C497.958 29.5303 499.186 29.3182 500.58 29.3182C501.549 29.3182 502.477 29.4318 503.364 29.6591C504.258 29.8864 505.049 30.2386 505.739 30.7159C506.436 31.1932 506.985 31.8068 507.386 32.5568C507.788 33.2992 507.989 34.1894 507.989 35.2273V47H503.398V44.5795H503.261C502.981 45.125 502.606 45.6061 502.136 46.0227C501.667 46.4318 501.102 46.7538 500.443 46.9886C499.784 47.2159 499.023 47.3295 498.159 47.3295ZM499.545 43.9886C500.258 43.9886 500.886 43.8485 501.432 43.5682C501.977 43.2803 502.405 42.8939 502.716 42.4091C503.027 41.9242 503.182 41.375 503.182 40.7614V38.9091C503.03 39.0076 502.822 39.0985 502.557 39.1818C502.299 39.2576 502.008 39.3295 501.682 39.3977C501.356 39.4583 501.03 39.5152 500.705 39.5682C500.379 39.6136 500.083 39.6553 499.818 39.6932C499.25 39.7765 498.754 39.9091 498.33 40.0909C497.905 40.2727 497.576 40.5189 497.341 40.8295C497.106 41.1326 496.989 41.5114 496.989 41.9659C496.989 42.625 497.227 43.1288 497.705 43.4773C498.189 43.8182 498.803 43.9886 499.545 43.9886ZM590.685 23.7273L590.241 40.0227H586.082L585.628 23.7273H590.685ZM588.162 47.2955C587.412 47.2955 586.768 47.0303 586.23 46.5C585.692 45.9621 585.427 45.3182 585.435 44.5682C585.427 43.8258 585.692 43.1894 586.23 42.6591C586.768 42.1288 587.412 41.8636 588.162 41.8636C588.882 41.8636 589.514 42.1288 590.06 42.6591C590.605 43.1894 590.882 43.8258 590.889 44.5682C590.882 45.0682 590.749 45.5265 590.491 45.9432C590.241 46.3523 589.912 46.6818 589.503 46.9318C589.094 47.1742 588.647 47.2955 588.162 47.2955Z" fill="white"/>
<path d="M531.866 30.4205C531.776 29.5038 531.385 28.7917 530.696 28.2841C530.007 27.7765 529.071 27.5227 527.889 27.5227C527.086 27.5227 526.408 27.6364 525.855 27.8636C525.302 28.0833 524.878 28.3902 524.582 28.7841C524.295 29.178 524.151 29.625 524.151 30.125C524.135 30.5417 524.223 30.9053 524.412 31.2159C524.609 31.5265 524.878 31.7955 525.219 32.0227C525.56 32.2424 525.954 32.4356 526.401 32.6023C526.848 32.7614 527.325 32.8977 527.832 33.0114L529.923 33.5114C530.938 33.7386 531.87 34.0417 532.719 34.4205C533.567 34.7992 534.302 35.2652 534.923 35.8182C535.545 36.3712 536.026 37.0227 536.366 37.7727C536.715 38.5227 536.893 39.3826 536.901 40.3523C536.893 41.7765 536.529 43.0114 535.81 44.0568C535.098 45.0947 534.067 45.9015 532.719 46.4773C531.378 47.0455 529.76 47.3295 527.866 47.3295C525.988 47.3295 524.351 47.0417 522.957 46.4659C521.571 45.8902 520.488 45.0379 519.707 43.9091C518.935 42.7727 518.529 41.3674 518.491 39.6932H523.253C523.306 40.4735 523.529 41.125 523.923 41.6477C524.325 42.1629 524.859 42.553 525.526 42.8182C526.2 43.0758 526.961 43.2045 527.81 43.2045C528.643 43.2045 529.366 43.0833 529.98 42.8409C530.601 42.5985 531.082 42.2614 531.423 41.8295C531.764 41.3977 531.935 40.9015 531.935 40.3409C531.935 39.8182 531.779 39.3788 531.469 39.0227C531.166 38.6667 530.719 38.3636 530.128 38.1136C529.545 37.8636 528.829 37.6364 527.98 37.4318L525.446 36.7955C523.484 36.3182 521.935 35.572 520.798 34.5568C519.662 33.5417 519.098 32.1742 519.105 30.4545C519.098 29.0455 519.473 27.8144 520.23 26.7614C520.995 25.7083 522.045 24.8864 523.378 24.2955C524.711 23.7045 526.226 23.4091 527.923 23.4091C529.651 23.4091 531.158 23.7045 532.446 24.2955C533.741 24.8864 534.749 25.7083 535.469 26.7614C536.188 27.8144 536.56 29.0341 536.582 30.4205H531.866ZM544.506 41.9773L544.517 36.1705H545.222L550.812 29.5455H556.369L548.858 38.3182H547.71L544.506 41.9773ZM540.119 47V23.7273H544.96V47H540.119ZM551.028 47L545.892 39.3977L549.119 35.9773L556.699 47H551.028ZM558.744 47V29.5455H563.585V47H558.744ZM561.176 27.2955C560.456 27.2955 559.839 27.0568 559.324 26.5795C558.816 26.0947 558.562 25.5152 558.562 24.8409C558.562 24.1742 558.816 23.6023 559.324 23.125C559.839 22.6402 560.456 22.3977 561.176 22.3977C561.896 22.3977 562.509 22.6402 563.017 23.125C563.532 23.6023 563.79 24.1742 563.79 24.8409C563.79 25.5152 563.532 26.0947 563.017 26.5795C562.509 27.0568 561.896 27.2955 561.176 27.2955ZM572.304 23.7273V47H567.463V23.7273H572.304ZM581.023 23.7273V47H576.182V23.7273H581.023Z" fill="url(#paint0_linear_725_129)"/>
<defs>
<linearGradient id="paint0_linear_725_129" x1="356" y1="16" x2="356" y2="62" gradientUnits="userSpaceOnUse">
<stop offset="0.208333" stop-color="#01C5CA"/>
<stop offset="1" stop-color="#1C55F8"/>
</linearGradient>
</defs>
</svg>
