<svg width="249" height="107" viewBox="0 0 249 107" fill="none" xmlns="http://www.w3.org/2000/svg">
<path d="M204.758 106.32L181.318 80.1493H25.0502C9.9917 80.1493 2.20199 66.0032 0.189453 58.9301V21.4428C4.73542 6.73086 18.6575 1.16671 25.0502 0.223633H221.806C240.558 1.35532 247.14 14.8413 248.087 21.4428V58.9301C244.677 75.9055 229.145 80.1493 221.806 80.1493L204.758 106.32Z" fill="white"/>
<path d="M38.6875 20.0146H35.4443L35.4268 18.6523H38.3711C38.8574 18.6523 39.2822 18.5703 39.6455 18.4062C40.0088 18.2422 40.29 18.0078 40.4893 17.7031C40.6943 17.3926 40.7969 17.0234 40.7969 16.5957C40.7969 16.127 40.7061 15.7461 40.5244 15.4531C40.3486 15.1543 40.0762 14.9375 39.707 14.8027C39.3438 14.6621 38.8809 14.5918 38.3184 14.5918H35.8223V26H34.126V13.2031H38.3184C38.9746 13.2031 39.5605 13.2705 40.0762 13.4053C40.5918 13.5342 41.0283 13.7393 41.3857 14.0205C41.749 14.2959 42.0244 14.6475 42.2119 15.0752C42.3994 15.5029 42.4932 16.0156 42.4932 16.6133C42.4932 17.1406 42.3584 17.6182 42.0889 18.0459C41.8193 18.4678 41.4443 18.8135 40.9639 19.083C40.4893 19.3525 39.9326 19.5254 39.2939 19.6016L38.6875 20.0146ZM38.6084 26H34.7764L35.7344 24.6201H38.6084C39.1475 24.6201 39.6045 24.5264 39.9795 24.3389C40.3604 24.1514 40.6504 23.8877 40.8496 23.5479C41.0488 23.2021 41.1484 22.7949 41.1484 22.3262C41.1484 21.8516 41.0635 21.4414 40.8936 21.0957C40.7236 20.75 40.457 20.4834 40.0938 20.2959C39.7305 20.1084 39.2617 20.0146 38.6875 20.0146H36.2705L36.2881 18.6523H39.5928L39.9531 19.1445C40.5684 19.1973 41.0898 19.373 41.5176 19.6719C41.9453 19.9648 42.2705 20.3398 42.4932 20.7969C42.7217 21.2539 42.8359 21.7578 42.8359 22.3086C42.8359 23.1055 42.6602 23.7793 42.3086 24.3301C41.9629 24.875 41.4736 25.291 40.8408 25.5781C40.208 25.8594 39.4639 26 38.6084 26ZM46.8613 16.4902V26H45.2266V16.4902H46.8613ZM45.1035 13.9678C45.1035 13.7041 45.1826 13.4814 45.3408 13.2998C45.5049 13.1182 45.7451 13.0273 46.0615 13.0273C46.3721 13.0273 46.6094 13.1182 46.7734 13.2998C46.9434 13.4814 47.0283 13.7041 47.0283 13.9678C47.0283 14.2197 46.9434 14.4365 46.7734 14.6182C46.6094 14.7939 46.3721 14.8818 46.0615 14.8818C45.7451 14.8818 45.5049 14.7939 45.3408 14.6182C45.1826 14.4365 45.1035 14.2197 45.1035 13.9678ZM53.418 26.1758C52.7559 26.1758 52.1553 26.0645 51.6162 25.8418C51.083 25.6133 50.623 25.2939 50.2363 24.8838C49.8555 24.4736 49.5625 23.9873 49.3574 23.4248C49.1523 22.8623 49.0498 22.2471 49.0498 21.5791V21.21C49.0498 20.4365 49.1641 19.748 49.3926 19.1445C49.6211 18.5352 49.9316 18.0195 50.3242 17.5977C50.7168 17.1758 51.1621 16.8564 51.6602 16.6396C52.1582 16.4229 52.6738 16.3145 53.207 16.3145C53.8867 16.3145 54.4727 16.4316 54.9648 16.666C55.4629 16.9004 55.8701 17.2285 56.1865 17.6504C56.5029 18.0664 56.7373 18.5586 56.8896 19.127C57.042 19.6895 57.1182 20.3047 57.1182 20.9727V21.7021H50.0166V20.375H55.4922V20.252C55.4688 19.8301 55.3809 19.4199 55.2285 19.0215C55.082 18.623 54.8477 18.2949 54.5254 18.0371C54.2031 17.7793 53.7637 17.6504 53.207 17.6504C52.8379 17.6504 52.498 17.7295 52.1875 17.8877C51.877 18.04 51.6104 18.2686 51.3877 18.5732C51.165 18.8779 50.9922 19.25 50.8691 19.6895C50.7461 20.1289 50.6846 20.6357 50.6846 21.21V21.5791C50.6846 22.0303 50.7461 22.4551 50.8691 22.8535C50.998 23.2461 51.1826 23.5918 51.4229 23.8906C51.6689 24.1895 51.9648 24.4238 52.3105 24.5938C52.6621 24.7637 53.0605 24.8486 53.5059 24.8486C54.0801 24.8486 54.5664 24.7314 54.9648 24.4971C55.3633 24.2627 55.7119 23.9492 56.0107 23.5566L56.9951 24.3389C56.79 24.6494 56.5293 24.9453 56.2129 25.2266C55.8965 25.5078 55.5068 25.7363 55.0439 25.9121C54.5869 26.0879 54.0449 26.1758 53.418 26.1758ZM60.6426 18.5205V26H59.0166V16.4902H60.5547L60.6426 18.5205ZM60.2559 20.8848L59.5791 20.8584C59.585 20.208 59.6816 19.6074 59.8691 19.0566C60.0566 18.5 60.3203 18.0166 60.6602 17.6064C61 17.1963 61.4043 16.8799 61.873 16.6572C62.3477 16.4287 62.8721 16.3145 63.4463 16.3145C63.915 16.3145 64.3369 16.3789 64.7119 16.5078C65.0869 16.6309 65.4062 16.8301 65.6699 17.1055C65.9395 17.3809 66.1445 17.7383 66.2852 18.1777C66.4258 18.6113 66.4961 19.1416 66.4961 19.7686V26H64.8613V19.751C64.8613 19.2529 64.7881 18.8545 64.6416 18.5557C64.4951 18.251 64.2812 18.0312 64 17.8965C63.7188 17.7559 63.373 17.6855 62.9629 17.6855C62.5586 17.6855 62.1895 17.7705 61.8555 17.9404C61.5273 18.1104 61.2432 18.3447 61.0029 18.6436C60.7686 18.9424 60.584 19.2852 60.4492 19.6719C60.3203 20.0527 60.2559 20.457 60.2559 20.8848ZM71.8574 24.5322L74.459 16.4902H76.1201L72.7012 26H71.6113L71.8574 24.5322ZM69.6865 16.4902L72.3672 24.5762L72.5518 26H71.4619L68.0166 16.4902H69.6865ZM81.5078 26.1758C80.8457 26.1758 80.2451 26.0645 79.7061 25.8418C79.1729 25.6133 78.7129 25.2939 78.3262 24.8838C77.9453 24.4736 77.6523 23.9873 77.4473 23.4248C77.2422 22.8623 77.1396 22.2471 77.1396 21.5791V21.21C77.1396 20.4365 77.2539 19.748 77.4824 19.1445C77.7109 18.5352 78.0215 18.0195 78.4141 17.5977C78.8066 17.1758 79.252 16.8564 79.75 16.6396C80.248 16.4229 80.7637 16.3145 81.2969 16.3145C81.9766 16.3145 82.5625 16.4316 83.0547 16.666C83.5527 16.9004 83.96 17.2285 84.2764 17.6504C84.5928 18.0664 84.8271 18.5586 84.9795 19.127C85.1318 19.6895 85.208 20.3047 85.208 20.9727V21.7021H78.1064V20.375H83.582V20.252C83.5586 19.8301 83.4707 19.4199 83.3184 19.0215C83.1719 18.623 82.9375 18.2949 82.6152 18.0371C82.293 17.7793 81.8535 17.6504 81.2969 17.6504C80.9277 17.6504 80.5879 17.7295 80.2773 17.8877C79.9668 18.04 79.7002 18.2686 79.4775 18.5732C79.2549 18.8779 79.082 19.25 78.959 19.6895C78.8359 20.1289 78.7744 20.6357 78.7744 21.21V21.5791C78.7744 22.0303 78.8359 22.4551 78.959 22.8535C79.0879 23.2461 79.2725 23.5918 79.5127 23.8906C79.7588 24.1895 80.0547 24.4238 80.4004 24.5938C80.752 24.7637 81.1504 24.8486 81.5957 24.8486C82.1699 24.8486 82.6562 24.7314 83.0547 24.4971C83.4531 24.2627 83.8018 23.9492 84.1006 23.5566L85.085 24.3389C84.8799 24.6494 84.6191 24.9453 84.3027 25.2266C83.9863 25.5078 83.5967 25.7363 83.1338 25.9121C82.6768 26.0879 82.1348 26.1758 81.5078 26.1758ZM88.7324 18.5205V26H87.1064V16.4902H88.6445L88.7324 18.5205ZM88.3457 20.8848L87.6689 20.8584C87.6748 20.208 87.7715 19.6074 87.959 19.0566C88.1465 18.5 88.4102 18.0166 88.75 17.6064C89.0898 17.1963 89.4941 16.8799 89.9629 16.6572C90.4375 16.4287 90.9619 16.3145 91.5361 16.3145C92.0049 16.3145 92.4268 16.3789 92.8018 16.5078C93.1768 16.6309 93.4961 16.8301 93.7598 17.1055C94.0293 17.3809 94.2344 17.7383 94.375 18.1777C94.5156 18.6113 94.5859 19.1416 94.5859 19.7686V26H92.9512V19.751C92.9512 19.2529 92.8779 18.8545 92.7314 18.5557C92.585 18.251 92.3711 18.0312 92.0898 17.8965C91.8086 17.7559 91.4629 17.6855 91.0527 17.6855C90.6484 17.6855 90.2793 17.7705 89.9453 17.9404C89.6172 18.1104 89.333 18.3447 89.0928 18.6436C88.8584 18.9424 88.6738 19.2852 88.5391 19.6719C88.4102 20.0527 88.3457 20.457 88.3457 20.8848ZM98.8223 16.4902V26H97.1875V16.4902H98.8223ZM97.0645 13.9678C97.0645 13.7041 97.1436 13.4814 97.3018 13.2998C97.4658 13.1182 97.7061 13.0273 98.0225 13.0273C98.333 13.0273 98.5703 13.1182 98.7344 13.2998C98.9043 13.4814 98.9893 13.7041 98.9893 13.9678C98.9893 14.2197 98.9043 14.4365 98.7344 14.6182C98.5703 14.7939 98.333 14.8818 98.0225 14.8818C97.7061 14.8818 97.4658 14.7939 97.3018 14.6182C97.1436 14.4365 97.0645 14.2197 97.0645 13.9678ZM107.427 24.1543V12.5H109.062V26H107.567L107.427 24.1543ZM101.028 21.3506V21.166C101.028 20.4395 101.116 19.7803 101.292 19.1885C101.474 18.5908 101.729 18.0781 102.057 17.6504C102.391 17.2227 102.786 16.8945 103.243 16.666C103.706 16.4316 104.222 16.3145 104.79 16.3145C105.388 16.3145 105.909 16.4199 106.354 16.6309C106.806 16.8359 107.187 17.1377 107.497 17.5361C107.813 17.9287 108.062 18.4033 108.244 18.96C108.426 19.5166 108.552 20.1465 108.622 20.8496V21.6582C108.558 22.3555 108.432 22.9824 108.244 23.5391C108.062 24.0957 107.813 24.5703 107.497 24.9629C107.187 25.3555 106.806 25.6572 106.354 25.8682C105.903 26.0732 105.376 26.1758 104.772 26.1758C104.216 26.1758 103.706 26.0557 103.243 25.8154C102.786 25.5752 102.391 25.2383 102.057 24.8047C101.729 24.3711 101.474 23.8613 101.292 23.2754C101.116 22.6836 101.028 22.042 101.028 21.3506ZM102.663 21.166V21.3506C102.663 21.8252 102.71 22.2705 102.804 22.6865C102.903 23.1025 103.056 23.4688 103.261 23.7852C103.466 24.1016 103.727 24.3506 104.043 24.5322C104.359 24.708 104.737 24.7959 105.177 24.7959C105.716 24.7959 106.158 24.6816 106.504 24.4531C106.855 24.2246 107.137 23.9229 107.348 23.5479C107.559 23.1729 107.723 22.7656 107.84 22.3262V20.208C107.77 19.8857 107.667 19.5752 107.532 19.2764C107.403 18.9717 107.233 18.7021 107.022 18.4678C106.817 18.2275 106.562 18.0371 106.258 17.8965C105.959 17.7559 105.604 17.6855 105.194 17.6855C104.749 17.6855 104.365 17.7793 104.043 17.9668C103.727 18.1484 103.466 18.4004 103.261 18.7227C103.056 19.0391 102.903 19.4082 102.804 19.8301C102.71 20.2461 102.663 20.6914 102.663 21.166ZM112.691 16.4902L114.774 19.9531L116.884 16.4902H118.791L115.68 21.1836L118.888 26H117.007L114.81 22.4316L112.612 26H110.723L113.922 21.1836L110.819 16.4902H112.691ZM130.595 24.374V19.4785C130.595 19.1035 130.519 18.7783 130.366 18.5029C130.22 18.2217 129.997 18.0049 129.698 17.8525C129.399 17.7002 129.03 17.624 128.591 17.624C128.181 17.624 127.82 17.6943 127.51 17.835C127.205 17.9756 126.965 18.1602 126.789 18.3887C126.619 18.6172 126.534 18.8633 126.534 19.127H124.908C124.908 18.7871 124.996 18.4502 125.172 18.1162C125.348 17.7822 125.6 17.4805 125.928 17.2109C126.262 16.9355 126.66 16.7188 127.123 16.5605C127.592 16.3965 128.113 16.3145 128.688 16.3145C129.379 16.3145 129.988 16.4316 130.516 16.666C131.049 16.9004 131.465 17.2549 131.764 17.7295C132.068 18.1982 132.221 18.7871 132.221 19.4961V23.9258C132.221 24.2422 132.247 24.5791 132.3 24.9365C132.358 25.2939 132.443 25.6016 132.555 25.8594V26H130.858C130.776 25.8125 130.712 25.5635 130.665 25.2529C130.618 24.9365 130.595 24.6436 130.595 24.374ZM130.876 20.2344L130.894 21.377H129.25C128.787 21.377 128.374 21.415 128.011 21.4912C127.647 21.5615 127.343 21.6699 127.097 21.8164C126.851 21.9629 126.663 22.1475 126.534 22.3701C126.405 22.5869 126.341 22.8418 126.341 23.1348C126.341 23.4336 126.408 23.7061 126.543 23.9521C126.678 24.1982 126.88 24.3945 127.149 24.541C127.425 24.6816 127.762 24.752 128.16 24.752C128.658 24.752 129.098 24.6465 129.479 24.4355C129.859 24.2246 130.161 23.9668 130.384 23.6621C130.612 23.3574 130.735 23.0615 130.753 22.7744L131.447 23.5566C131.406 23.8027 131.295 24.0752 131.113 24.374C130.932 24.6729 130.688 24.96 130.384 25.2354C130.085 25.5049 129.728 25.7305 129.312 25.9121C128.901 26.0879 128.438 26.1758 127.923 26.1758C127.278 26.1758 126.713 26.0498 126.227 25.7979C125.746 25.5459 125.371 25.209 125.102 24.7871C124.838 24.3594 124.706 23.8818 124.706 23.3545C124.706 22.8447 124.806 22.3965 125.005 22.0098C125.204 21.6172 125.491 21.292 125.866 21.0342C126.241 20.7705 126.692 20.5713 127.22 20.4365C127.747 20.3018 128.336 20.2344 128.986 20.2344H130.876ZM141.01 12.5V26H139.375V12.5H141.01ZM149.228 24.374V19.4785C149.228 19.1035 149.151 18.7783 148.999 18.5029C148.853 18.2217 148.63 18.0049 148.331 17.8525C148.032 17.7002 147.663 17.624 147.224 17.624C146.813 17.624 146.453 17.6943 146.143 17.835C145.838 17.9756 145.598 18.1602 145.422 18.3887C145.252 18.6172 145.167 18.8633 145.167 19.127H143.541C143.541 18.7871 143.629 18.4502 143.805 18.1162C143.98 17.7822 144.232 17.4805 144.561 17.2109C144.895 16.9355 145.293 16.7188 145.756 16.5605C146.225 16.3965 146.746 16.3145 147.32 16.3145C148.012 16.3145 148.621 16.4316 149.148 16.666C149.682 16.9004 150.098 17.2549 150.396 17.7295C150.701 18.1982 150.854 18.7871 150.854 19.4961V23.9258C150.854 24.2422 150.88 24.5791 150.933 24.9365C150.991 25.2939 151.076 25.6016 151.188 25.8594V26H149.491C149.409 25.8125 149.345 25.5635 149.298 25.2529C149.251 24.9365 149.228 24.6436 149.228 24.374ZM149.509 20.2344L149.526 21.377H147.883C147.42 21.377 147.007 21.415 146.644 21.4912C146.28 21.5615 145.976 21.6699 145.729 21.8164C145.483 21.9629 145.296 22.1475 145.167 22.3701C145.038 22.5869 144.974 22.8418 144.974 23.1348C144.974 23.4336 145.041 23.7061 145.176 23.9521C145.311 24.1982 145.513 24.3945 145.782 24.541C146.058 24.6816 146.395 24.752 146.793 24.752C147.291 24.752 147.73 24.6465 148.111 24.4355C148.492 24.2246 148.794 23.9668 149.017 23.6621C149.245 23.3574 149.368 23.0615 149.386 22.7744L150.08 23.5566C150.039 23.8027 149.928 24.0752 149.746 24.374C149.564 24.6729 149.321 24.96 149.017 25.2354C148.718 25.5049 148.36 25.7305 147.944 25.9121C147.534 26.0879 147.071 26.1758 146.556 26.1758C145.911 26.1758 145.346 26.0498 144.859 25.7979C144.379 25.5459 144.004 25.209 143.734 24.7871C143.471 24.3594 143.339 23.8818 143.339 23.3545C143.339 22.8447 143.438 22.3965 143.638 22.0098C143.837 21.6172 144.124 21.292 144.499 21.0342C144.874 20.7705 145.325 20.5713 145.853 20.4365C146.38 20.3018 146.969 20.2344 147.619 20.2344H149.509ZM163.413 23.4775C163.413 23.2432 163.36 23.0264 163.255 22.8271C163.155 22.6221 162.947 22.4375 162.631 22.2734C162.32 22.1035 161.852 21.957 161.225 21.834C160.697 21.7227 160.22 21.5908 159.792 21.4385C159.37 21.2861 159.01 21.1016 158.711 20.8848C158.418 20.668 158.192 20.4131 158.034 20.1201C157.876 19.8271 157.797 19.4844 157.797 19.0918C157.797 18.7168 157.879 18.3623 158.043 18.0283C158.213 17.6943 158.45 17.3984 158.755 17.1406C159.065 16.8828 159.438 16.6807 159.871 16.5342C160.305 16.3877 160.788 16.3145 161.321 16.3145C162.083 16.3145 162.733 16.4492 163.272 16.7188C163.812 16.9883 164.225 17.3486 164.512 17.7998C164.799 18.2451 164.942 18.7402 164.942 19.2852H163.316C163.316 19.0215 163.237 18.7666 163.079 18.5205C162.927 18.2686 162.701 18.0605 162.402 17.8965C162.109 17.7324 161.749 17.6504 161.321 17.6504C160.87 17.6504 160.504 17.7207 160.223 17.8613C159.947 17.9961 159.745 18.1689 159.616 18.3799C159.493 18.5908 159.432 18.8135 159.432 19.0479C159.432 19.2236 159.461 19.3818 159.52 19.5225C159.584 19.6572 159.695 19.7832 159.854 19.9004C160.012 20.0117 160.234 20.1172 160.521 20.2168C160.809 20.3164 161.175 20.416 161.62 20.5156C162.399 20.6914 163.041 20.9023 163.545 21.1484C164.049 21.3945 164.424 21.6963 164.67 22.0537C164.916 22.4111 165.039 22.8447 165.039 23.3545C165.039 23.7705 164.951 24.1514 164.775 24.4971C164.605 24.8428 164.356 25.1416 164.028 25.3936C163.706 25.6396 163.319 25.833 162.868 25.9736C162.423 26.1084 161.922 26.1758 161.365 26.1758C160.527 26.1758 159.818 26.0264 159.238 25.7275C158.658 25.4287 158.219 25.042 157.92 24.5674C157.621 24.0928 157.472 23.5918 157.472 23.0645H159.106C159.13 23.5098 159.259 23.8643 159.493 24.1279C159.728 24.3857 160.015 24.5703 160.354 24.6816C160.694 24.7871 161.031 24.8398 161.365 24.8398C161.811 24.8398 162.183 24.7812 162.481 24.6641C162.786 24.5469 163.018 24.3857 163.176 24.1807C163.334 23.9756 163.413 23.7412 163.413 23.4775ZM168.81 12.5V26H167.175V12.5H168.81ZM174.619 16.4902L170.471 20.9287L168.15 23.3369L168.019 21.6055L169.68 19.6191L172.633 16.4902H174.619ZM173.134 26L169.741 21.4648L170.585 20.0146L175.05 26H173.134ZM178.064 16.4902V26H176.43V16.4902H178.064ZM176.307 13.9678C176.307 13.7041 176.386 13.4814 176.544 13.2998C176.708 13.1182 176.948 13.0273 177.265 13.0273C177.575 13.0273 177.812 13.1182 177.977 13.2998C178.146 13.4814 178.231 13.7041 178.231 13.9678C178.231 14.2197 178.146 14.4365 177.977 14.6182C177.812 14.7939 177.575 14.8818 177.265 14.8818C176.948 14.8818 176.708 14.7939 176.544 14.6182C176.386 14.4365 176.307 14.2197 176.307 13.9678ZM182.441 12.5V26H180.807V12.5H182.441ZM186.818 12.5V26H185.184V12.5H186.818ZM199.888 24.1543V12.5H201.522V26H200.028L199.888 24.1543ZM193.489 21.3506V21.166C193.489 20.4395 193.577 19.7803 193.753 19.1885C193.935 18.5908 194.189 18.0781 194.518 17.6504C194.852 17.2227 195.247 16.8945 195.704 16.666C196.167 16.4316 196.683 16.3145 197.251 16.3145C197.849 16.3145 198.37 16.4199 198.815 16.6309C199.267 16.8359 199.647 17.1377 199.958 17.5361C200.274 17.9287 200.523 18.4033 200.705 18.96C200.887 19.5166 201.013 20.1465 201.083 20.8496V21.6582C201.019 22.3555 200.893 22.9824 200.705 23.5391C200.523 24.0957 200.274 24.5703 199.958 24.9629C199.647 25.3555 199.267 25.6572 198.815 25.8682C198.364 26.0732 197.837 26.1758 197.233 26.1758C196.677 26.1758 196.167 26.0557 195.704 25.8154C195.247 25.5752 194.852 25.2383 194.518 24.8047C194.189 24.3711 193.935 23.8613 193.753 23.2754C193.577 22.6836 193.489 22.042 193.489 21.3506ZM195.124 21.166V21.3506C195.124 21.8252 195.171 22.2705 195.265 22.6865C195.364 23.1025 195.517 23.4688 195.722 23.7852C195.927 24.1016 196.188 24.3506 196.504 24.5322C196.82 24.708 197.198 24.7959 197.638 24.7959C198.177 24.7959 198.619 24.6816 198.965 24.4531C199.316 24.2246 199.598 23.9229 199.809 23.5479C200.02 23.1729 200.184 22.7656 200.301 22.3262V20.208C200.23 19.8857 200.128 19.5752 199.993 19.2764C199.864 18.9717 199.694 18.7021 199.483 18.4678C199.278 18.2275 199.023 18.0371 198.719 17.8965C198.42 17.7559 198.065 17.6855 197.655 17.6855C197.21 17.6855 196.826 17.7793 196.504 17.9668C196.188 18.1484 195.927 18.4004 195.722 18.7227C195.517 19.0391 195.364 19.4082 195.265 19.8301C195.171 20.2461 195.124 20.6914 195.124 21.166ZM208 26.1758C207.338 26.1758 206.737 26.0645 206.198 25.8418C205.665 25.6133 205.205 25.2939 204.818 24.8838C204.438 24.4736 204.145 23.9873 203.939 23.4248C203.734 22.8623 203.632 22.2471 203.632 21.5791V21.21C203.632 20.4365 203.746 19.748 203.975 19.1445C204.203 18.5352 204.514 18.0195 204.906 17.5977C205.299 17.1758 205.744 16.8564 206.242 16.6396C206.74 16.4229 207.256 16.3145 207.789 16.3145C208.469 16.3145 209.055 16.4316 209.547 16.666C210.045 16.9004 210.452 17.2285 210.769 17.6504C211.085 18.0664 211.319 18.5586 211.472 19.127C211.624 19.6895 211.7 20.3047 211.7 20.9727V21.7021H204.599V20.375H210.074V20.252C210.051 19.8301 209.963 19.4199 209.811 19.0215C209.664 18.623 209.43 18.2949 209.107 18.0371C208.785 17.7793 208.346 17.6504 207.789 17.6504C207.42 17.6504 207.08 17.7295 206.77 17.8877C206.459 18.04 206.192 18.2686 205.97 18.5732C205.747 18.8779 205.574 19.25 205.451 19.6895C205.328 20.1289 205.267 20.6357 205.267 21.21V21.5791C205.267 22.0303 205.328 22.4551 205.451 22.8535C205.58 23.2461 205.765 23.5918 206.005 23.8906C206.251 24.1895 206.547 24.4238 206.893 24.5938C207.244 24.7637 207.643 24.8486 208.088 24.8486C208.662 24.8486 209.148 24.7314 209.547 24.4971C209.945 24.2627 210.294 23.9492 210.593 23.5566L211.577 24.3389C211.372 24.6494 211.111 24.9453 210.795 25.2266C210.479 25.5078 210.089 25.7363 209.626 25.9121C209.169 26.0879 208.627 26.1758 208 26.1758ZM28.1494 47.1758C27.4873 47.1758 26.8867 47.0645 26.3477 46.8418C25.8145 46.6133 25.3545 46.2939 24.9678 45.8838C24.5869 45.4736 24.2939 44.9873 24.0889 44.4248C23.8838 43.8623 23.7812 43.2471 23.7812 42.5791V42.21C23.7812 41.4365 23.8955 40.748 24.124 40.1445C24.3525 39.5352 24.6631 39.0195 25.0557 38.5977C25.4482 38.1758 25.8936 37.8564 26.3916 37.6396C26.8896 37.4229 27.4053 37.3145 27.9385 37.3145C28.6182 37.3145 29.2041 37.4316 29.6963 37.666C30.1943 37.9004 30.6016 38.2285 30.918 38.6504C31.2344 39.0664 31.4688 39.5586 31.6211 40.127C31.7734 40.6895 31.8496 41.3047 31.8496 41.9727V42.7021H24.748V41.375H30.2236V41.252C30.2002 40.8301 30.1123 40.4199 29.96 40.0215C29.8135 39.623 29.5791 39.2949 29.2568 39.0371C28.9346 38.7793 28.4951 38.6504 27.9385 38.6504C27.5693 38.6504 27.2295 38.7295 26.9189 38.8877C26.6084 39.04 26.3418 39.2686 26.1191 39.5732C25.8965 39.8779 25.7236 40.25 25.6006 40.6895C25.4775 41.1289 25.416 41.6357 25.416 42.21V42.5791C25.416 43.0303 25.4775 43.4551 25.6006 43.8535C25.7295 44.2461 25.9141 44.5918 26.1543 44.8906C26.4004 45.1895 26.6963 45.4238 27.042 45.5938C27.3936 45.7637 27.792 45.8486 28.2373 45.8486C28.8115 45.8486 29.2979 45.7314 29.6963 45.4971C30.0947 45.2627 30.4434 44.9492 30.7422 44.5566L31.7266 45.3389C31.5215 45.6494 31.2607 45.9453 30.9443 46.2266C30.6279 46.5078 30.2383 46.7363 29.7754 46.9121C29.3184 47.0879 28.7764 47.1758 28.1494 47.1758ZM34.8467 37.4902L36.9297 40.9531L39.0391 37.4902H40.9463L37.835 42.1836L41.043 47H39.1621L36.9648 43.4316L34.7676 47H32.8779L36.0771 42.1836L32.9746 37.4902H34.8467ZM48.2852 45.374V40.4785C48.2852 40.1035 48.209 39.7783 48.0566 39.5029C47.9102 39.2217 47.6875 39.0049 47.3887 38.8525C47.0898 38.7002 46.7207 38.624 46.2812 38.624C45.8711 38.624 45.5107 38.6943 45.2002 38.835C44.8955 38.9756 44.6553 39.1602 44.4795 39.3887C44.3096 39.6172 44.2246 39.8633 44.2246 40.127H42.5986C42.5986 39.7871 42.6865 39.4502 42.8623 39.1162C43.0381 38.7822 43.29 38.4805 43.6182 38.2109C43.9521 37.9355 44.3506 37.7188 44.8135 37.5605C45.2822 37.3965 45.8037 37.3145 46.3779 37.3145C47.0693 37.3145 47.6787 37.4316 48.2061 37.666C48.7393 37.9004 49.1553 38.2549 49.4541 38.7295C49.7588 39.1982 49.9111 39.7871 49.9111 40.4961V44.9258C49.9111 45.2422 49.9375 45.5791 49.9902 45.9365C50.0488 46.2939 50.1338 46.6016 50.2451 46.8594V47H48.5488C48.4668 46.8125 48.4023 46.5635 48.3555 46.2529C48.3086 45.9365 48.2852 45.6436 48.2852 45.374ZM48.5664 41.2344L48.584 42.377H46.9404C46.4775 42.377 46.0645 42.415 45.7012 42.4912C45.3379 42.5615 45.0332 42.6699 44.7871 42.8164C44.541 42.9629 44.3535 43.1475 44.2246 43.3701C44.0957 43.5869 44.0312 43.8418 44.0312 44.1348C44.0312 44.4336 44.0986 44.7061 44.2334 44.9521C44.3682 45.1982 44.5703 45.3945 44.8398 45.541C45.1152 45.6816 45.4521 45.752 45.8506 45.752C46.3486 45.752 46.7881 45.6465 47.1689 45.4355C47.5498 45.2246 47.8516 44.9668 48.0742 44.6621C48.3027 44.3574 48.4258 44.0615 48.4434 43.7744L49.1377 44.5566C49.0967 44.8027 48.9854 45.0752 48.8037 45.374C48.6221 45.6729 48.3789 45.96 48.0742 46.2354C47.7754 46.5049 47.418 46.7305 47.002 46.9121C46.5918 47.0879 46.1289 47.1758 45.6133 47.1758C44.9688 47.1758 44.4033 47.0498 43.917 46.7979C43.4365 46.5459 43.0615 46.209 42.792 45.7871C42.5283 45.3594 42.3965 44.8818 42.3965 44.3545C42.3965 43.8447 42.4961 43.3965 42.6953 43.0098C42.8945 42.6172 43.1816 42.292 43.5566 42.0342C43.9316 41.7705 44.3828 41.5713 44.9102 41.4365C45.4375 41.3018 46.0264 41.2344 46.6768 41.2344H48.5664ZM54.0859 39.3799V47H52.4512V37.4902H53.998L54.0859 39.3799ZM53.752 41.8848L52.9961 41.8584C53.002 41.208 53.0869 40.6074 53.251 40.0566C53.415 39.5 53.6582 39.0166 53.9805 38.6064C54.3027 38.1963 54.7041 37.8799 55.1846 37.6572C55.665 37.4287 56.2217 37.3145 56.8545 37.3145C57.2998 37.3145 57.71 37.3789 58.085 37.5078C58.46 37.6309 58.7852 37.8271 59.0605 38.0967C59.3359 38.3662 59.5498 38.7119 59.7021 39.1338C59.8545 39.5557 59.9307 40.0654 59.9307 40.6631V47H58.3047V40.7422C58.3047 40.2441 58.2197 39.8457 58.0498 39.5469C57.8857 39.248 57.6514 39.0312 57.3467 38.8965C57.042 38.7559 56.6846 38.6855 56.2744 38.6855C55.7939 38.6855 55.3926 38.7705 55.0703 38.9404C54.748 39.1104 54.4902 39.3447 54.2969 39.6436C54.1035 39.9424 53.9629 40.2852 53.875 40.6719C53.793 41.0527 53.752 41.457 53.752 41.8848ZM59.9131 40.9883L58.8232 41.3223C58.8291 40.8008 58.9141 40.2998 59.0781 39.8193C59.248 39.3389 59.4912 38.9111 59.8076 38.5361C60.1299 38.1611 60.5254 37.8652 60.9941 37.6484C61.4629 37.4258 61.999 37.3145 62.6025 37.3145C63.1123 37.3145 63.5635 37.3818 63.9561 37.5166C64.3545 37.6514 64.6885 37.8594 64.958 38.1406C65.2334 38.416 65.4414 38.7705 65.582 39.2041C65.7227 39.6377 65.793 40.1533 65.793 40.751V47H64.1582V40.7334C64.1582 40.2002 64.0732 39.7871 63.9033 39.4941C63.7393 39.1953 63.5049 38.9873 63.2002 38.8701C62.9014 38.7471 62.5439 38.6855 62.1279 38.6855C61.7705 38.6855 61.4541 38.7471 61.1787 38.8701C60.9033 38.9932 60.6719 39.1631 60.4844 39.3799C60.2969 39.5908 60.1533 39.834 60.0537 40.1094C59.96 40.3848 59.9131 40.6777 59.9131 40.9883ZM72.2002 47.1758C71.5381 47.1758 70.9375 47.0645 70.3984 46.8418C69.8652 46.6133 69.4053 46.2939 69.0186 45.8838C68.6377 45.4736 68.3447 44.9873 68.1396 44.4248C67.9346 43.8623 67.832 43.2471 67.832 42.5791V42.21C67.832 41.4365 67.9463 40.748 68.1748 40.1445C68.4033 39.5352 68.7139 39.0195 69.1064 38.5977C69.499 38.1758 69.9443 37.8564 70.4424 37.6396C70.9404 37.4229 71.4561 37.3145 71.9893 37.3145C72.6689 37.3145 73.2549 37.4316 73.7471 37.666C74.2451 37.9004 74.6523 38.2285 74.9688 38.6504C75.2852 39.0664 75.5195 39.5586 75.6719 40.127C75.8242 40.6895 75.9004 41.3047 75.9004 41.9727V42.7021H68.7988V41.375H74.2744V41.252C74.251 40.8301 74.1631 40.4199 74.0107 40.0215C73.8643 39.623 73.6299 39.2949 73.3076 39.0371C72.9854 38.7793 72.5459 38.6504 71.9893 38.6504C71.6201 38.6504 71.2803 38.7295 70.9697 38.8877C70.6592 39.04 70.3926 39.2686 70.1699 39.5732C69.9473 39.8779 69.7744 40.25 69.6514 40.6895C69.5283 41.1289 69.4668 41.6357 69.4668 42.21V42.5791C69.4668 43.0303 69.5283 43.4551 69.6514 43.8535C69.7803 44.2461 69.9648 44.5918 70.2051 44.8906C70.4512 45.1895 70.7471 45.4238 71.0928 45.5938C71.4443 45.7637 71.8428 45.8486 72.2881 45.8486C72.8623 45.8486 73.3486 45.7314 73.7471 45.4971C74.1455 45.2627 74.4941 44.9492 74.793 44.5566L75.7773 45.3389C75.5723 45.6494 75.3115 45.9453 74.9951 46.2266C74.6787 46.5078 74.2891 46.7363 73.8262 46.9121C73.3691 47.0879 72.8271 47.1758 72.2002 47.1758ZM79.4248 39.5205V47H77.7988V37.4902H79.3369L79.4248 39.5205ZM79.0381 41.8848L78.3613 41.8584C78.3672 41.208 78.4639 40.6074 78.6514 40.0566C78.8389 39.5 79.1025 39.0166 79.4424 38.6064C79.7822 38.1963 80.1865 37.8799 80.6553 37.6572C81.1299 37.4287 81.6543 37.3145 82.2285 37.3145C82.6973 37.3145 83.1191 37.3789 83.4941 37.5078C83.8691 37.6309 84.1885 37.8301 84.4521 38.1055C84.7217 38.3809 84.9268 38.7383 85.0674 39.1777C85.208 39.6113 85.2783 40.1416 85.2783 40.7686V47H83.6436V40.751C83.6436 40.2529 83.5703 39.8545 83.4238 39.5557C83.2773 39.251 83.0635 39.0312 82.7822 38.8965C82.501 38.7559 82.1553 38.6855 81.7451 38.6855C81.3408 38.6855 80.9717 38.7705 80.6377 38.9404C80.3096 39.1104 80.0254 39.3447 79.7852 39.6436C79.5508 39.9424 79.3662 40.2852 79.2314 40.6719C79.1025 41.0527 79.0381 41.457 79.0381 41.8848ZM21.6895 62.0234H23.3242C23.3184 62.5859 23.2656 63.043 23.166 63.3945C23.0723 63.7402 22.917 64.0596 22.7002 64.3525C22.4893 64.6455 22.2021 64.9883 21.8389 65.3809C21.5928 65.6445 21.3584 65.8994 21.1357 66.1455C20.9131 66.3916 20.7314 66.6611 20.5908 66.9541C20.4502 67.2471 20.3799 67.5957 20.3799 68C20.3799 68.4277 20.4561 68.7881 20.6084 69.0811C20.7607 69.374 20.9834 69.5938 21.2764 69.7402C21.5693 69.8926 21.9268 69.9688 22.3486 69.9688C22.6943 69.9688 23.0166 69.9043 23.3154 69.7754C23.6143 69.6465 23.8574 69.4473 24.0449 69.1777C24.2383 68.9141 24.335 68.5801 24.335 68.1758H25.9609C25.9551 68.8379 25.791 69.4092 25.4688 69.8896C25.1523 70.376 24.7217 70.748 24.1768 71.0059C23.6377 71.2637 23.0283 71.3926 22.3486 71.3926C21.5869 71.3926 20.9365 71.2607 20.3975 70.9971C19.8643 70.7334 19.4541 70.3525 19.167 69.8545C18.8857 69.3564 18.7451 68.7559 18.7451 68.0527C18.7451 67.5195 18.8506 67.0273 19.0615 66.5762C19.2783 66.1191 19.5508 65.6973 19.8789 65.3105C20.207 64.918 20.5469 64.5518 20.8984 64.2119C21.1094 64.0068 21.2705 63.793 21.3818 63.5703C21.499 63.3418 21.5781 63.0986 21.6191 62.8408C21.666 62.583 21.6895 62.3105 21.6895 62.0234ZM23.3945 59.2373C23.3945 59.4951 23.3125 59.7148 23.1484 59.8965C22.9844 60.0781 22.7471 60.1689 22.4365 60.1689C22.1201 60.1689 21.8799 60.0781 21.7158 59.8965C21.5518 59.7148 21.4697 59.4951 21.4697 59.2373C21.4697 58.9795 21.5518 58.7627 21.7158 58.5869C21.8799 58.4053 22.1201 58.3145 22.4365 58.3145C22.7471 58.3145 22.9844 58.4053 23.1484 58.5869C23.3125 58.7627 23.3945 58.9795 23.3945 59.2373ZM35.8838 63.9307H37.5713C37.4834 64.7393 37.252 65.4629 36.877 66.1016C36.502 66.7402 35.9717 67.2471 35.2861 67.6221C34.6006 67.9912 33.7451 68.1758 32.7197 68.1758C31.9697 68.1758 31.2871 68.0352 30.6719 67.7539C30.0625 67.4727 29.5381 67.0742 29.0986 66.5586C28.6592 66.0371 28.3193 65.4131 28.0791 64.6865C27.8447 63.9541 27.7275 63.1396 27.7275 62.2432V60.9688C27.7275 60.0723 27.8447 59.2607 28.0791 58.5342C28.3193 57.8018 28.6621 57.1748 29.1074 56.6533C29.5586 56.1318 30.1006 55.7305 30.7334 55.4492C31.3662 55.168 32.0781 55.0273 32.8691 55.0273C33.8359 55.0273 34.6533 55.209 35.3213 55.5723C35.9893 55.9355 36.5078 56.4395 36.877 57.084C37.252 57.7227 37.4834 58.4639 37.5713 59.3076H35.8838C35.8018 58.71 35.6494 58.1973 35.4268 57.7695C35.2041 57.3359 34.8877 57.002 34.4775 56.7676C34.0674 56.5332 33.5312 56.416 32.8691 56.416C32.3008 56.416 31.7998 56.5244 31.3662 56.7412C30.9385 56.958 30.5781 57.2656 30.2852 57.6641C29.998 58.0625 29.7812 58.54 29.6348 59.0967C29.4883 59.6533 29.415 60.2715 29.415 60.9512V62.2432C29.415 62.8701 29.4795 63.459 29.6084 64.0098C29.7432 64.5605 29.9453 65.0439 30.2148 65.46C30.4844 65.876 30.8271 66.2041 31.2432 66.4443C31.6592 66.6787 32.1514 66.7959 32.7197 66.7959C33.4404 66.7959 34.0146 66.6816 34.4424 66.4531C34.8701 66.2246 35.1924 65.8965 35.4092 65.4688C35.6318 65.041 35.79 64.5283 35.8838 63.9307ZM39.2061 63.3506V63.1484C39.2061 62.4629 39.3057 61.8271 39.5049 61.2412C39.7041 60.6494 39.9912 60.1367 40.3662 59.7031C40.7412 59.2637 41.1953 58.9238 41.7285 58.6836C42.2617 58.4375 42.8594 58.3145 43.5215 58.3145C44.1895 58.3145 44.79 58.4375 45.3232 58.6836C45.8623 58.9238 46.3193 59.2637 46.6943 59.7031C47.0752 60.1367 47.3652 60.6494 47.5645 61.2412C47.7637 61.8271 47.8633 62.4629 47.8633 63.1484V63.3506C47.8633 64.0361 47.7637 64.6719 47.5645 65.2578C47.3652 65.8438 47.0752 66.3564 46.6943 66.7959C46.3193 67.2295 45.8652 67.5693 45.332 67.8154C44.8047 68.0557 44.207 68.1758 43.5391 68.1758C42.8711 68.1758 42.2705 68.0557 41.7373 67.8154C41.2041 67.5693 40.7471 67.2295 40.3662 66.7959C39.9912 66.3564 39.7041 65.8438 39.5049 65.2578C39.3057 64.6719 39.2061 64.0361 39.2061 63.3506ZM40.832 63.1484V63.3506C40.832 63.8252 40.8877 64.2734 40.999 64.6953C41.1104 65.1113 41.2773 65.4805 41.5 65.8027C41.7285 66.125 42.0127 66.3799 42.3525 66.5674C42.6924 66.749 43.0879 66.8398 43.5391 66.8398C43.9844 66.8398 44.374 66.749 44.708 66.5674C45.0479 66.3799 45.3291 66.125 45.5518 65.8027C45.7744 65.4805 45.9414 65.1113 46.0527 64.6953C46.1699 64.2734 46.2285 63.8252 46.2285 63.3506V63.1484C46.2285 62.6797 46.1699 62.2373 46.0527 61.8213C45.9414 61.3994 45.7715 61.0273 45.543 60.7051C45.3203 60.377 45.0391 60.1191 44.6992 59.9316C44.3652 59.7441 43.9727 59.6504 43.5215 59.6504C43.0762 59.6504 42.6836 59.7441 42.3438 59.9316C42.0098 60.1191 41.7285 60.377 41.5 60.7051C41.2773 61.0273 41.1104 61.3994 40.999 61.8213C40.8877 62.2373 40.832 62.6797 40.832 63.1484ZM51.5195 60.3799V68H49.8848V58.4902H51.4316L51.5195 60.3799ZM51.1855 62.8848L50.4297 62.8584C50.4355 62.208 50.5205 61.6074 50.6846 61.0566C50.8486 60.5 51.0918 60.0166 51.4141 59.6064C51.7363 59.1963 52.1377 58.8799 52.6182 58.6572C53.0986 58.4287 53.6553 58.3145 54.2881 58.3145C54.7334 58.3145 55.1436 58.3789 55.5186 58.5078C55.8936 58.6309 56.2188 58.8271 56.4941 59.0967C56.7695 59.3662 56.9834 59.7119 57.1357 60.1338C57.2881 60.5557 57.3643 61.0654 57.3643 61.6631V68H55.7383V61.7422C55.7383 61.2441 55.6533 60.8457 55.4834 60.5469C55.3193 60.248 55.085 60.0312 54.7803 59.8965C54.4756 59.7559 54.1182 59.6855 53.708 59.6855C53.2275 59.6855 52.8262 59.7705 52.5039 59.9404C52.1816 60.1104 51.9238 60.3447 51.7305 60.6436C51.5371 60.9424 51.3965 61.2852 51.3086 61.6719C51.2266 62.0527 51.1855 62.457 51.1855 62.8848ZM57.3467 61.9883L56.2568 62.3223C56.2627 61.8008 56.3477 61.2998 56.5117 60.8193C56.6816 60.3389 56.9248 59.9111 57.2412 59.5361C57.5635 59.1611 57.959 58.8652 58.4277 58.6484C58.8965 58.4258 59.4326 58.3145 60.0361 58.3145C60.5459 58.3145 60.9971 58.3818 61.3896 58.5166C61.7881 58.6514 62.1221 58.8594 62.3916 59.1406C62.667 59.416 62.875 59.7705 63.0156 60.2041C63.1562 60.6377 63.2266 61.1533 63.2266 61.751V68H61.5918V61.7334C61.5918 61.2002 61.5068 60.7871 61.3369 60.4941C61.1729 60.1953 60.9385 59.9873 60.6338 59.8701C60.335 59.7471 59.9775 59.6855 59.5615 59.6855C59.2041 59.6855 58.8877 59.7471 58.6123 59.8701C58.3369 59.9932 58.1055 60.1631 57.918 60.3799C57.7305 60.5908 57.5869 60.834 57.4873 61.1094C57.3936 61.3848 57.3467 61.6777 57.3467 61.9883ZM69.6338 68.1758C68.9717 68.1758 68.3711 68.0645 67.832 67.8418C67.2988 67.6133 66.8389 67.2939 66.4521 66.8838C66.0713 66.4736 65.7783 65.9873 65.5732 65.4248C65.3682 64.8623 65.2656 64.2471 65.2656 63.5791V63.21C65.2656 62.4365 65.3799 61.748 65.6084 61.1445C65.8369 60.5352 66.1475 60.0195 66.54 59.5977C66.9326 59.1758 67.3779 58.8564 67.876 58.6396C68.374 58.4229 68.8896 58.3145 69.4229 58.3145C70.1025 58.3145 70.6885 58.4316 71.1807 58.666C71.6787 58.9004 72.0859 59.2285 72.4023 59.6504C72.7188 60.0664 72.9531 60.5586 73.1055 61.127C73.2578 61.6895 73.334 62.3047 73.334 62.9727V63.7021H66.2324V62.375H71.708V62.252C71.6846 61.8301 71.5967 61.4199 71.4443 61.0215C71.2979 60.623 71.0635 60.2949 70.7412 60.0371C70.4189 59.7793 69.9795 59.6504 69.4229 59.6504C69.0537 59.6504 68.7139 59.7295 68.4033 59.8877C68.0928 60.04 67.8262 60.2686 67.6035 60.5732C67.3809 60.8779 67.208 61.25 67.085 61.6895C66.9619 62.1289 66.9004 62.6357 66.9004 63.21V63.5791C66.9004 64.0303 66.9619 64.4551 67.085 64.8535C67.2139 65.2461 67.3984 65.5918 67.6387 65.8906C67.8848 66.1895 68.1807 66.4238 68.5264 66.5938C68.8779 66.7637 69.2764 66.8486 69.7217 66.8486C70.2959 66.8486 70.7822 66.7314 71.1807 66.4971C71.5791 66.2627 71.9277 65.9492 72.2266 65.5566L73.2109 66.3389C73.0059 66.6494 72.7451 66.9453 72.4287 67.2266C72.1123 67.5078 71.7227 67.7363 71.2598 67.9121C70.8027 68.0879 70.2607 68.1758 69.6338 68.1758ZM76.8584 60.5205V68H75.2324V58.4902H76.7705L76.8584 60.5205ZM76.4717 62.8848L75.7949 62.8584C75.8008 62.208 75.8975 61.6074 76.085 61.0566C76.2725 60.5 76.5361 60.0166 76.876 59.6064C77.2158 59.1963 77.6201 58.8799 78.0889 58.6572C78.5635 58.4287 79.0879 58.3145 79.6621 58.3145C80.1309 58.3145 80.5527 58.3789 80.9277 58.5078C81.3027 58.6309 81.6221 58.8301 81.8857 59.1055C82.1553 59.3809 82.3604 59.7383 82.501 60.1777C82.6416 60.6113 82.7119 61.1416 82.7119 61.7686V68H81.0771V61.751C81.0771 61.2529 81.0039 60.8545 80.8574 60.5557C80.7109 60.251 80.4971 60.0312 80.2158 59.8965C79.9346 59.7559 79.5889 59.6855 79.1787 59.6855C78.7744 59.6855 78.4053 59.7705 78.0713 59.9404C77.7432 60.1104 77.459 60.3447 77.2188 60.6436C76.9844 60.9424 76.7998 61.2852 76.665 61.6719C76.5361 62.0527 76.4717 62.457 76.4717 62.8848ZM92.2656 66.6641V68H85.3486V66.6641H92.2656ZM92.0107 59.6416L85.7178 68H84.7246V66.8047L90.9736 58.4902H92.0107V59.6416ZM91.29 58.4902V59.835H84.7949V58.4902H91.29ZM99.7188 66.374V61.4785C99.7188 61.1035 99.6426 60.7783 99.4902 60.5029C99.3438 60.2217 99.1211 60.0049 98.8223 59.8525C98.5234 59.7002 98.1543 59.624 97.7148 59.624C97.3047 59.624 96.9443 59.6943 96.6338 59.835C96.3291 59.9756 96.0889 60.1602 95.9131 60.3887C95.7432 60.6172 95.6582 60.8633 95.6582 61.127H94.0322C94.0322 60.7871 94.1201 60.4502 94.2959 60.1162C94.4717 59.7822 94.7236 59.4805 95.0518 59.2109C95.3857 58.9355 95.7842 58.7188 96.2471 58.5605C96.7158 58.3965 97.2373 58.3145 97.8115 58.3145C98.5029 58.3145 99.1123 58.4316 99.6396 58.666C100.173 58.9004 100.589 59.2549 100.888 59.7295C101.192 60.1982 101.345 60.7871 101.345 61.4961V65.9258C101.345 66.2422 101.371 66.5791 101.424 66.9365C101.482 67.2939 101.567 67.6016 101.679 67.8594V68H99.9824C99.9004 67.8125 99.8359 67.5635 99.7891 67.2529C99.7422 66.9365 99.7188 66.6436 99.7188 66.374ZM100 62.2344L100.018 63.377H98.374C97.9111 63.377 97.498 63.415 97.1348 63.4912C96.7715 63.5615 96.4668 63.6699 96.2207 63.8164C95.9746 63.9629 95.7871 64.1475 95.6582 64.3701C95.5293 64.5869 95.4648 64.8418 95.4648 65.1348C95.4648 65.4336 95.5322 65.7061 95.667 65.9521C95.8018 66.1982 96.0039 66.3945 96.2734 66.541C96.5488 66.6816 96.8857 66.752 97.2842 66.752C97.7822 66.752 98.2217 66.6465 98.6025 66.4355C98.9834 66.2246 99.2852 65.9668 99.5078 65.6621C99.7363 65.3574 99.8594 65.0615 99.877 64.7744L100.571 65.5566C100.53 65.8027 100.419 66.0752 100.237 66.374C100.056 66.6729 99.8125 66.96 99.5078 67.2354C99.209 67.5049 98.8516 67.7305 98.4355 67.9121C98.0254 68.0879 97.5625 68.1758 97.0469 68.1758C96.4023 68.1758 95.8369 68.0498 95.3506 67.7979C94.8701 67.5459 94.4951 67.209 94.2256 66.7871C93.9619 66.3594 93.8301 65.8818 93.8301 65.3545C93.8301 64.8447 93.9297 64.3965 94.1289 64.0098C94.3281 63.6172 94.6152 63.292 94.9902 63.0342C95.3652 62.7705 95.8164 62.5713 96.3438 62.4365C96.8711 62.3018 97.46 62.2344 98.1104 62.2344H100ZM105.52 60.3799V68H103.885V58.4902H105.432L105.52 60.3799ZM105.186 62.8848L104.43 62.8584C104.436 62.208 104.521 61.6074 104.685 61.0566C104.849 60.5 105.092 60.0166 105.414 59.6064C105.736 59.1963 106.138 58.8799 106.618 58.6572C107.099 58.4287 107.655 58.3145 108.288 58.3145C108.733 58.3145 109.144 58.3789 109.519 58.5078C109.894 58.6309 110.219 58.8271 110.494 59.0967C110.77 59.3662 110.983 59.7119 111.136 60.1338C111.288 60.5557 111.364 61.0654 111.364 61.6631V68H109.738V61.7422C109.738 61.2441 109.653 60.8457 109.483 60.5469C109.319 60.248 109.085 60.0312 108.78 59.8965C108.476 59.7559 108.118 59.6855 107.708 59.6855C107.228 59.6855 106.826 59.7705 106.504 59.9404C106.182 60.1104 105.924 60.3447 105.73 60.6436C105.537 60.9424 105.396 61.2852 105.309 61.6719C105.227 62.0527 105.186 62.457 105.186 62.8848ZM111.347 61.9883L110.257 62.3223C110.263 61.8008 110.348 61.2998 110.512 60.8193C110.682 60.3389 110.925 59.9111 111.241 59.5361C111.563 59.1611 111.959 58.8652 112.428 58.6484C112.896 58.4258 113.433 58.3145 114.036 58.3145C114.546 58.3145 114.997 58.3818 115.39 58.5166C115.788 58.6514 116.122 58.8594 116.392 59.1406C116.667 59.416 116.875 59.7705 117.016 60.2041C117.156 60.6377 117.227 61.1533 117.227 61.751V68H115.592V61.7334C115.592 61.2002 115.507 60.7871 115.337 60.4941C115.173 60.1953 114.938 59.9873 114.634 59.8701C114.335 59.7471 113.978 59.6855 113.562 59.6855C113.204 59.6855 112.888 59.7471 112.612 59.8701C112.337 59.9932 112.105 60.1631 111.918 60.3799C111.73 60.5908 111.587 60.834 111.487 61.1094C111.394 61.3848 111.347 61.6777 111.347 61.9883ZM119.257 63.3506V63.1484C119.257 62.4629 119.356 61.8271 119.556 61.2412C119.755 60.6494 120.042 60.1367 120.417 59.7031C120.792 59.2637 121.246 58.9238 121.779 58.6836C122.312 58.4375 122.91 58.3145 123.572 58.3145C124.24 58.3145 124.841 58.4375 125.374 58.6836C125.913 58.9238 126.37 59.2637 126.745 59.7031C127.126 60.1367 127.416 60.6494 127.615 61.2412C127.814 61.8271 127.914 62.4629 127.914 63.1484V63.3506C127.914 64.0361 127.814 64.6719 127.615 65.2578C127.416 65.8438 127.126 66.3564 126.745 66.7959C126.37 67.2295 125.916 67.5693 125.383 67.8154C124.855 68.0557 124.258 68.1758 123.59 68.1758C122.922 68.1758 122.321 68.0557 121.788 67.8154C121.255 67.5693 120.798 67.2295 120.417 66.7959C120.042 66.3564 119.755 65.8438 119.556 65.2578C119.356 64.6719 119.257 64.0361 119.257 63.3506ZM120.883 63.1484V63.3506C120.883 63.8252 120.938 64.2734 121.05 64.6953C121.161 65.1113 121.328 65.4805 121.551 65.8027C121.779 66.125 122.063 66.3799 122.403 66.5674C122.743 66.749 123.139 66.8398 123.59 66.8398C124.035 66.8398 124.425 66.749 124.759 66.5674C125.099 66.3799 125.38 66.125 125.603 65.8027C125.825 65.4805 125.992 65.1113 126.104 64.6953C126.221 64.2734 126.279 63.8252 126.279 63.3506V63.1484C126.279 62.6797 126.221 62.2373 126.104 61.8213C125.992 61.3994 125.822 61.0273 125.594 60.7051C125.371 60.377 125.09 60.1191 124.75 59.9316C124.416 59.7441 124.023 59.6504 123.572 59.6504C123.127 59.6504 122.734 59.7441 122.395 59.9316C122.061 60.1191 121.779 60.377 121.551 60.7051C121.328 61.0273 121.161 61.3994 121.05 61.8213C120.938 62.2373 120.883 62.6797 120.883 63.1484ZM135.49 65.4775C135.49 65.2432 135.438 65.0264 135.332 64.8271C135.232 64.6221 135.024 64.4375 134.708 64.2734C134.397 64.1035 133.929 63.957 133.302 63.834C132.774 63.7227 132.297 63.5908 131.869 63.4385C131.447 63.2861 131.087 63.1016 130.788 62.8848C130.495 62.668 130.27 62.4131 130.111 62.1201C129.953 61.8271 129.874 61.4844 129.874 61.0918C129.874 60.7168 129.956 60.3623 130.12 60.0283C130.29 59.6943 130.527 59.3984 130.832 59.1406C131.143 58.8828 131.515 58.6807 131.948 58.5342C132.382 58.3877 132.865 58.3145 133.398 58.3145C134.16 58.3145 134.811 58.4492 135.35 58.7188C135.889 58.9883 136.302 59.3486 136.589 59.7998C136.876 60.2451 137.02 60.7402 137.02 61.2852H135.394C135.394 61.0215 135.314 60.7666 135.156 60.5205C135.004 60.2686 134.778 60.0605 134.479 59.8965C134.187 59.7324 133.826 59.6504 133.398 59.6504C132.947 59.6504 132.581 59.7207 132.3 59.8613C132.024 59.9961 131.822 60.1689 131.693 60.3799C131.57 60.5908 131.509 60.8135 131.509 61.0479C131.509 61.2236 131.538 61.3818 131.597 61.5225C131.661 61.6572 131.772 61.7832 131.931 61.9004C132.089 62.0117 132.312 62.1172 132.599 62.2168C132.886 62.3164 133.252 62.416 133.697 62.5156C134.477 62.6914 135.118 62.9023 135.622 63.1484C136.126 63.3945 136.501 63.6963 136.747 64.0537C136.993 64.4111 137.116 64.8447 137.116 65.3545C137.116 65.7705 137.028 66.1514 136.853 66.4971C136.683 66.8428 136.434 67.1416 136.105 67.3936C135.783 67.6396 135.396 67.833 134.945 67.9736C134.5 68.1084 133.999 68.1758 133.442 68.1758C132.604 68.1758 131.896 68.0264 131.315 67.7275C130.735 67.4287 130.296 67.042 129.997 66.5674C129.698 66.0928 129.549 65.5918 129.549 65.0645H131.184C131.207 65.5098 131.336 65.8643 131.57 66.1279C131.805 66.3857 132.092 66.5703 132.432 66.6816C132.771 66.7871 133.108 66.8398 133.442 66.8398C133.888 66.8398 134.26 66.7812 134.559 66.6641C134.863 66.5469 135.095 66.3857 135.253 66.1807C135.411 65.9756 135.49 65.7412 135.49 65.4775ZM147.698 58.4902V59.7383H142.557V58.4902H147.698ZM144.297 56.1787H145.923V65.6445C145.923 65.9668 145.973 66.21 146.072 66.374C146.172 66.5381 146.301 66.6465 146.459 66.6992C146.617 66.752 146.787 66.7783 146.969 66.7783C147.104 66.7783 147.244 66.7666 147.391 66.7432C147.543 66.7139 147.657 66.6904 147.733 66.6729L147.742 68C147.613 68.041 147.443 68.0791 147.232 68.1143C147.027 68.1553 146.778 68.1758 146.485 68.1758C146.087 68.1758 145.721 68.0967 145.387 67.9385C145.053 67.7803 144.786 67.5166 144.587 67.1475C144.394 66.7725 144.297 66.2686 144.297 65.6357V56.1787ZM155.424 65.8027V58.4902H157.059V68H155.503L155.424 65.8027ZM155.731 63.7988L156.408 63.7812C156.408 64.4141 156.341 65 156.206 65.5391C156.077 66.0723 155.866 66.5352 155.573 66.9277C155.28 67.3203 154.896 67.6279 154.422 67.8506C153.947 68.0674 153.37 68.1758 152.69 68.1758C152.228 68.1758 151.803 68.1084 151.416 67.9736C151.035 67.8389 150.707 67.6309 150.432 67.3496C150.156 67.0684 149.942 66.7021 149.79 66.251C149.644 65.7998 149.57 65.2578 149.57 64.625V58.4902H151.196V64.6426C151.196 65.0703 151.243 65.4248 151.337 65.7061C151.437 65.9814 151.568 66.2012 151.732 66.3652C151.902 66.5234 152.09 66.6348 152.295 66.6992C152.506 66.7637 152.723 66.7959 152.945 66.7959C153.637 66.7959 154.185 66.6641 154.589 66.4004C154.993 66.1309 155.283 65.7705 155.459 65.3193C155.641 64.8623 155.731 64.3555 155.731 63.7988ZM165.628 60.3184V71.6562H163.993V58.4902H165.487L165.628 60.3184ZM172.035 63.166V63.3506C172.035 64.042 171.953 64.6836 171.789 65.2754C171.625 65.8613 171.385 66.3711 171.068 66.8047C170.758 67.2383 170.374 67.5752 169.917 67.8154C169.46 68.0557 168.936 68.1758 168.344 68.1758C167.74 68.1758 167.207 68.0762 166.744 67.877C166.281 67.6777 165.889 67.3877 165.566 67.0068C165.244 66.626 164.986 66.1689 164.793 65.6357C164.605 65.1025 164.477 64.502 164.406 63.834V62.8496C164.477 62.1465 164.608 61.5166 164.802 60.96C164.995 60.4033 165.25 59.9287 165.566 59.5361C165.889 59.1377 166.278 58.8359 166.735 58.6309C167.192 58.4199 167.72 58.3145 168.317 58.3145C168.915 58.3145 169.445 58.4316 169.908 58.666C170.371 58.8945 170.761 59.2227 171.077 59.6504C171.394 60.0781 171.631 60.5908 171.789 61.1885C171.953 61.7803 172.035 62.4395 172.035 63.166ZM170.4 63.3506V63.166C170.4 62.6914 170.351 62.2461 170.251 61.8301C170.151 61.4082 169.996 61.0391 169.785 60.7227C169.58 60.4004 169.316 60.1484 168.994 59.9668C168.672 59.7793 168.288 59.6855 167.843 59.6855C167.433 59.6855 167.075 59.7559 166.771 59.8965C166.472 60.0371 166.217 60.2275 166.006 60.4678C165.795 60.7021 165.622 60.9717 165.487 61.2764C165.358 61.5752 165.262 61.8857 165.197 62.208V64.4844C165.314 64.8945 165.479 65.2812 165.689 65.6445C165.9 66.002 166.182 66.292 166.533 66.5146C166.885 66.7314 167.327 66.8398 167.86 66.8398C168.3 66.8398 168.678 66.749 168.994 66.5674C169.316 66.3799 169.58 66.125 169.785 65.8027C169.996 65.4805 170.151 65.1113 170.251 64.6953C170.351 64.2734 170.4 63.8252 170.4 63.3506ZM175.735 59.9844V68H174.109V58.4902H175.691L175.735 59.9844ZM178.706 58.4375L178.697 59.9492C178.562 59.9199 178.434 59.9023 178.311 59.8965C178.193 59.8848 178.059 59.8789 177.906 59.8789C177.531 59.8789 177.2 59.9375 176.913 60.0547C176.626 60.1719 176.383 60.3359 176.184 60.5469C175.984 60.7578 175.826 61.0098 175.709 61.3027C175.598 61.5898 175.524 61.9062 175.489 62.252L175.032 62.5156C175.032 61.9414 175.088 61.4023 175.199 60.8984C175.316 60.3945 175.495 59.9492 175.735 59.5625C175.976 59.1699 176.28 58.8652 176.649 58.6484C177.024 58.4258 177.47 58.3145 177.985 58.3145C178.103 58.3145 178.237 58.3291 178.39 58.3584C178.542 58.3818 178.647 58.4082 178.706 58.4375ZM186.027 65.8027V58.4902H187.662V68H186.106L186.027 65.8027ZM186.335 63.7988L187.012 63.7812C187.012 64.4141 186.944 65 186.81 65.5391C186.681 66.0723 186.47 66.5352 186.177 66.9277C185.884 67.3203 185.5 67.6279 185.025 67.8506C184.551 68.0674 183.974 68.1758 183.294 68.1758C182.831 68.1758 182.406 68.1084 182.02 67.9736C181.639 67.8389 181.311 67.6309 181.035 67.3496C180.76 67.0684 180.546 66.7021 180.394 66.251C180.247 65.7998 180.174 65.2578 180.174 64.625V58.4902H181.8V64.6426C181.8 65.0703 181.847 65.4248 181.94 65.7061C182.04 65.9814 182.172 66.2012 182.336 66.3652C182.506 66.5234 182.693 66.6348 182.898 66.6992C183.109 66.7637 183.326 66.7959 183.549 66.7959C184.24 66.7959 184.788 66.6641 185.192 66.4004C185.597 66.1309 185.887 65.7705 186.062 65.3193C186.244 64.8623 186.335 64.3555 186.335 63.7988ZM194.087 68.1758C193.425 68.1758 192.824 68.0645 192.285 67.8418C191.752 67.6133 191.292 67.2939 190.905 66.8838C190.524 66.4736 190.231 65.9873 190.026 65.4248C189.821 64.8623 189.719 64.2471 189.719 63.5791V63.21C189.719 62.4365 189.833 61.748 190.062 61.1445C190.29 60.5352 190.601 60.0195 190.993 59.5977C191.386 59.1758 191.831 58.8564 192.329 58.6396C192.827 58.4229 193.343 58.3145 193.876 58.3145C194.556 58.3145 195.142 58.4316 195.634 58.666C196.132 58.9004 196.539 59.2285 196.855 59.6504C197.172 60.0664 197.406 60.5586 197.559 61.127C197.711 61.6895 197.787 62.3047 197.787 62.9727V63.7021H190.686V62.375H196.161V62.252C196.138 61.8301 196.05 61.4199 195.897 61.0215C195.751 60.623 195.517 60.2949 195.194 60.0371C194.872 59.7793 194.433 59.6504 193.876 59.6504C193.507 59.6504 193.167 59.7295 192.856 59.8877C192.546 60.04 192.279 60.2686 192.057 60.5732C191.834 60.8779 191.661 61.25 191.538 61.6895C191.415 62.1289 191.354 62.6357 191.354 63.21V63.5791C191.354 64.0303 191.415 64.4551 191.538 64.8535C191.667 65.2461 191.852 65.5918 192.092 65.8906C192.338 66.1895 192.634 66.4238 192.979 66.5938C193.331 66.7637 193.729 66.8486 194.175 66.8486C194.749 66.8486 195.235 66.7314 195.634 66.4971C196.032 66.2627 196.381 65.9492 196.68 65.5566L197.664 66.3389C197.459 66.6494 197.198 66.9453 196.882 67.2266C196.565 67.5078 196.176 67.7363 195.713 67.9121C195.256 68.0879 194.714 68.1758 194.087 68.1758ZM199.677 54.5H201.312V66.1543L201.171 68H199.677V54.5ZM207.736 63.166V63.3506C207.736 64.042 207.654 64.6836 207.49 65.2754C207.326 65.8613 207.086 66.3711 206.77 66.8047C206.453 67.2383 206.066 67.5752 205.609 67.8154C205.152 68.0557 204.628 68.1758 204.036 68.1758C203.433 68.1758 202.902 68.0732 202.445 67.8682C201.994 67.6572 201.613 67.3555 201.303 66.9629C200.992 66.5703 200.743 66.0957 200.556 65.5391C200.374 64.9824 200.248 64.3555 200.178 63.6582V62.8496C200.248 62.1465 200.374 61.5166 200.556 60.96C200.743 60.4033 200.992 59.9287 201.303 59.5361C201.613 59.1377 201.994 58.8359 202.445 58.6309C202.896 58.4199 203.421 58.3145 204.019 58.3145C204.616 58.3145 205.146 58.4316 205.609 58.666C206.072 58.8945 206.459 59.2227 206.77 59.6504C207.086 60.0781 207.326 60.5908 207.49 61.1885C207.654 61.7803 207.736 62.4395 207.736 63.166ZM206.102 63.3506V63.166C206.102 62.6914 206.058 62.2461 205.97 61.8301C205.882 61.4082 205.741 61.0391 205.548 60.7227C205.354 60.4004 205.1 60.1484 204.783 59.9668C204.467 59.7793 204.077 59.6855 203.614 59.6855C203.204 59.6855 202.847 59.7559 202.542 59.8965C202.243 60.0371 201.988 60.2275 201.777 60.4678C201.566 60.7021 201.394 60.9717 201.259 61.2764C201.13 61.5752 201.033 61.8857 200.969 62.208V64.3262C201.062 64.7363 201.215 65.1318 201.426 65.5127C201.643 65.8877 201.93 66.1953 202.287 66.4355C202.65 66.6758 203.099 66.7959 203.632 66.7959C204.071 66.7959 204.446 66.708 204.757 66.5322C205.073 66.3506 205.328 66.1016 205.521 65.7852C205.721 65.4688 205.867 65.1025 205.961 64.6865C206.055 64.2705 206.102 63.8252 206.102 63.3506ZM215.4 66.374V61.4785C215.4 61.1035 215.324 60.7783 215.172 60.5029C215.025 60.2217 214.803 60.0049 214.504 59.8525C214.205 59.7002 213.836 59.624 213.396 59.624C212.986 59.624 212.626 59.6943 212.315 59.835C212.011 59.9756 211.771 60.1602 211.595 60.3887C211.425 60.6172 211.34 60.8633 211.34 61.127H209.714C209.714 60.7871 209.802 60.4502 209.978 60.1162C210.153 59.7822 210.405 59.4805 210.733 59.2109C211.067 58.9355 211.466 58.7188 211.929 58.5605C212.397 58.3965 212.919 58.3145 213.493 58.3145C214.185 58.3145 214.794 58.4316 215.321 58.666C215.854 58.9004 216.271 59.2549 216.569 59.7295C216.874 60.1982 217.026 60.7871 217.026 61.4961V65.9258C217.026 66.2422 217.053 66.5791 217.105 66.9365C217.164 67.2939 217.249 67.6016 217.36 67.8594V68H215.664C215.582 67.8125 215.518 67.5635 215.471 67.2529C215.424 66.9365 215.4 66.6436 215.4 66.374ZM215.682 62.2344L215.699 63.377H214.056C213.593 63.377 213.18 63.415 212.816 63.4912C212.453 63.5615 212.148 63.6699 211.902 63.8164C211.656 63.9629 211.469 64.1475 211.34 64.3701C211.211 64.5869 211.146 64.8418 211.146 65.1348C211.146 65.4336 211.214 65.7061 211.349 65.9521C211.483 66.1982 211.686 66.3945 211.955 66.541C212.23 66.6816 212.567 66.752 212.966 66.752C213.464 66.752 213.903 66.6465 214.284 66.4355C214.665 66.2246 214.967 65.9668 215.189 65.6621C215.418 65.3574 215.541 65.0615 215.559 64.7744L216.253 65.5566C216.212 65.8027 216.101 66.0752 215.919 66.374C215.737 66.6729 215.494 66.96 215.189 67.2354C214.891 67.5049 214.533 67.7305 214.117 67.9121C213.707 68.0879 213.244 68.1758 212.729 68.1758C212.084 68.1758 211.519 68.0498 211.032 67.7979C210.552 67.5459 210.177 67.209 209.907 66.7871C209.644 66.3594 209.512 65.8818 209.512 65.3545C209.512 64.8447 209.611 64.3965 209.811 64.0098C210.01 63.6172 210.297 63.292 210.672 63.0342C211.047 62.7705 211.498 62.5713 212.025 62.4365C212.553 62.3018 213.142 62.2344 213.792 62.2344H215.682ZM223.117 64.3965H221.482C221.488 63.834 221.538 63.374 221.632 63.0166C221.731 62.6533 221.893 62.3223 222.115 62.0234C222.338 61.7246 222.634 61.3848 223.003 61.0039C223.272 60.7285 223.519 60.4707 223.741 60.2305C223.97 59.9844 224.154 59.7207 224.295 59.4395C224.436 59.1523 224.506 58.8096 224.506 58.4111C224.506 58.0068 224.433 57.6582 224.286 57.3652C224.146 57.0723 223.935 56.8467 223.653 56.6885C223.378 56.5303 223.035 56.4512 222.625 56.4512C222.285 56.4512 221.963 56.5127 221.658 56.6357C221.354 56.7588 221.107 56.9492 220.92 57.207C220.732 57.459 220.636 57.79 220.63 58.2002H219.004C219.016 57.5381 219.18 56.9697 219.496 56.4951C219.818 56.0205 220.252 55.6572 220.797 55.4053C221.342 55.1533 221.951 55.0273 222.625 55.0273C223.369 55.0273 224.002 55.1621 224.523 55.4316C225.051 55.7012 225.452 56.0879 225.728 56.5918C226.003 57.0898 226.141 57.6816 226.141 58.3672C226.141 58.8945 226.032 59.3809 225.815 59.8262C225.604 60.2656 225.332 60.6787 224.998 61.0654C224.664 61.4521 224.31 61.8213 223.935 62.1729C223.612 62.4717 223.396 62.8086 223.284 63.1836C223.173 63.5586 223.117 63.9629 223.117 64.3965ZM221.412 67.1826C221.412 66.9189 221.494 66.6963 221.658 66.5146C221.822 66.333 222.06 66.2422 222.37 66.2422C222.687 66.2422 222.927 66.333 223.091 66.5146C223.255 66.6963 223.337 66.9189 223.337 67.1826C223.337 67.4346 223.255 67.6514 223.091 67.833C222.927 68.0146 222.687 68.1055 222.37 68.1055C222.06 68.1055 221.822 68.0146 221.658 67.833C221.494 67.6514 221.412 67.4346 221.412 67.1826Z" fill="#1D1D1D"/>
<path d="M93.2061 33.5V34.4668L93.0215 37.7012H91.8877L91.8965 34.6162V33.5H93.2061ZM98.7783 47.1758C98.1162 47.1758 97.5156 47.0645 96.9766 46.8418C96.4434 46.6133 95.9834 46.2939 95.5967 45.8838C95.2158 45.4736 94.9229 44.9873 94.7178 44.4248C94.5127 43.8623 94.4102 43.2471 94.4102 42.5791V42.21C94.4102 41.4365 94.5244 40.748 94.7529 40.1445C94.9814 39.5352 95.292 39.0195 95.6846 38.5977C96.0771 38.1758 96.5225 37.8564 97.0205 37.6396C97.5186 37.4229 98.0342 37.3145 98.5674 37.3145C99.2471 37.3145 99.833 37.4316 100.325 37.666C100.823 37.9004 101.23 38.2285 101.547 38.6504C101.863 39.0664 102.098 39.5586 102.25 40.127C102.402 40.6895 102.479 41.3047 102.479 41.9727V42.7021H95.377V41.375H100.853V41.252C100.829 40.8301 100.741 40.4199 100.589 40.0215C100.442 39.623 100.208 39.2949 99.8857 39.0371C99.5635 38.7793 99.124 38.6504 98.5674 38.6504C98.1982 38.6504 97.8584 38.7295 97.5479 38.8877C97.2373 39.04 96.9707 39.2686 96.748 39.5732C96.5254 39.8779 96.3525 40.25 96.2295 40.6895C96.1064 41.1289 96.0449 41.6357 96.0449 42.21V42.5791C96.0449 43.0303 96.1064 43.4551 96.2295 43.8535C96.3584 44.2461 96.543 44.5918 96.7832 44.8906C97.0293 45.1895 97.3252 45.4238 97.6709 45.5938C98.0225 45.7637 98.4209 45.8486 98.8662 45.8486C99.4404 45.8486 99.9268 45.7314 100.325 45.4971C100.724 45.2627 101.072 44.9492 101.371 44.5566L102.355 45.3389C102.15 45.6494 101.89 45.9453 101.573 46.2266C101.257 46.5078 100.867 46.7363 100.404 46.9121C99.9473 47.0879 99.4053 47.1758 98.7783 47.1758ZM105.476 37.4902L107.559 40.9531L109.668 37.4902H111.575L108.464 42.1836L111.672 47H109.791L107.594 43.4316L105.396 47H103.507L106.706 42.1836L103.604 37.4902H105.476ZM118.914 45.374V40.4785C118.914 40.1035 118.838 39.7783 118.686 39.5029C118.539 39.2217 118.316 39.0049 118.018 38.8525C117.719 38.7002 117.35 38.624 116.91 38.624C116.5 38.624 116.14 38.6943 115.829 38.835C115.524 38.9756 115.284 39.1602 115.108 39.3887C114.938 39.6172 114.854 39.8633 114.854 40.127H113.228C113.228 39.7871 113.315 39.4502 113.491 39.1162C113.667 38.7822 113.919 38.4805 114.247 38.2109C114.581 37.9355 114.979 37.7188 115.442 37.5605C115.911 37.3965 116.433 37.3145 117.007 37.3145C117.698 37.3145 118.308 37.4316 118.835 37.666C119.368 37.9004 119.784 38.2549 120.083 38.7295C120.388 39.1982 120.54 39.7871 120.54 40.4961V44.9258C120.54 45.2422 120.566 45.5791 120.619 45.9365C120.678 46.2939 120.763 46.6016 120.874 46.8594V47H119.178C119.096 46.8125 119.031 46.5635 118.984 46.2529C118.938 45.9365 118.914 45.6436 118.914 45.374ZM119.195 41.2344L119.213 42.377H117.569C117.106 42.377 116.693 42.415 116.33 42.4912C115.967 42.5615 115.662 42.6699 115.416 42.8164C115.17 42.9629 114.982 43.1475 114.854 43.3701C114.725 43.5869 114.66 43.8418 114.66 44.1348C114.66 44.4336 114.728 44.7061 114.862 44.9521C114.997 45.1982 115.199 45.3945 115.469 45.541C115.744 45.6816 116.081 45.752 116.479 45.752C116.978 45.752 117.417 45.6465 117.798 45.4355C118.179 45.2246 118.48 44.9668 118.703 44.6621C118.932 44.3574 119.055 44.0615 119.072 43.7744L119.767 44.5566C119.726 44.8027 119.614 45.0752 119.433 45.374C119.251 45.6729 119.008 45.96 118.703 46.2354C118.404 46.5049 118.047 46.7305 117.631 46.9121C117.221 47.0879 116.758 47.1758 116.242 47.1758C115.598 47.1758 115.032 47.0498 114.546 46.7979C114.065 46.5459 113.69 46.209 113.421 45.7871C113.157 45.3594 113.025 44.8818 113.025 44.3545C113.025 43.8447 113.125 43.3965 113.324 43.0098C113.523 42.6172 113.811 42.292 114.186 42.0342C114.561 41.7705 115.012 41.5713 115.539 41.4365C116.066 41.3018 116.655 41.2344 117.306 41.2344H119.195ZM124.715 39.3799V47H123.08V37.4902H124.627L124.715 39.3799ZM124.381 41.8848L123.625 41.8584C123.631 41.208 123.716 40.6074 123.88 40.0566C124.044 39.5 124.287 39.0166 124.609 38.6064C124.932 38.1963 125.333 37.8799 125.813 37.6572C126.294 37.4287 126.851 37.3145 127.483 37.3145C127.929 37.3145 128.339 37.3789 128.714 37.5078C129.089 37.6309 129.414 37.8271 129.689 38.0967C129.965 38.3662 130.179 38.7119 130.331 39.1338C130.483 39.5557 130.56 40.0654 130.56 40.6631V47H128.934V40.7422C128.934 40.2441 128.849 39.8457 128.679 39.5469C128.515 39.248 128.28 39.0312 127.976 38.8965C127.671 38.7559 127.313 38.6855 126.903 38.6855C126.423 38.6855 126.021 38.7705 125.699 38.9404C125.377 39.1104 125.119 39.3447 124.926 39.6436C124.732 39.9424 124.592 40.2852 124.504 40.6719C124.422 41.0527 124.381 41.457 124.381 41.8848ZM130.542 40.9883L129.452 41.3223C129.458 40.8008 129.543 40.2998 129.707 39.8193C129.877 39.3389 130.12 38.9111 130.437 38.5361C130.759 38.1611 131.154 37.8652 131.623 37.6484C132.092 37.4258 132.628 37.3145 133.231 37.3145C133.741 37.3145 134.192 37.3818 134.585 37.5166C134.983 37.6514 135.317 37.8594 135.587 38.1406C135.862 38.416 136.07 38.7705 136.211 39.2041C136.352 39.6377 136.422 40.1533 136.422 40.751V47H134.787V40.7334C134.787 40.2002 134.702 39.7871 134.532 39.4941C134.368 39.1953 134.134 38.9873 133.829 38.8701C133.53 38.7471 133.173 38.6855 132.757 38.6855C132.399 38.6855 132.083 38.7471 131.808 38.8701C131.532 38.9932 131.301 39.1631 131.113 39.3799C130.926 39.5908 130.782 39.834 130.683 40.1094C130.589 40.3848 130.542 40.6777 130.542 40.9883ZM142.829 47.1758C142.167 47.1758 141.566 47.0645 141.027 46.8418C140.494 46.6133 140.034 46.2939 139.647 45.8838C139.267 45.4736 138.974 44.9873 138.769 44.4248C138.563 43.8623 138.461 43.2471 138.461 42.5791V42.21C138.461 41.4365 138.575 40.748 138.804 40.1445C139.032 39.5352 139.343 39.0195 139.735 38.5977C140.128 38.1758 140.573 37.8564 141.071 37.6396C141.569 37.4229 142.085 37.3145 142.618 37.3145C143.298 37.3145 143.884 37.4316 144.376 37.666C144.874 37.9004 145.281 38.2285 145.598 38.6504C145.914 39.0664 146.148 39.5586 146.301 40.127C146.453 40.6895 146.529 41.3047 146.529 41.9727V42.7021H139.428V41.375H144.903V41.252C144.88 40.8301 144.792 40.4199 144.64 40.0215C144.493 39.623 144.259 39.2949 143.937 39.0371C143.614 38.7793 143.175 38.6504 142.618 38.6504C142.249 38.6504 141.909 38.7295 141.599 38.8877C141.288 39.04 141.021 39.2686 140.799 39.5732C140.576 39.8779 140.403 40.25 140.28 40.6895C140.157 41.1289 140.096 41.6357 140.096 42.21V42.5791C140.096 43.0303 140.157 43.4551 140.28 43.8535C140.409 44.2461 140.594 44.5918 140.834 44.8906C141.08 45.1895 141.376 45.4238 141.722 45.5938C142.073 45.7637 142.472 45.8486 142.917 45.8486C143.491 45.8486 143.978 45.7314 144.376 45.4971C144.774 45.2627 145.123 44.9492 145.422 44.5566L146.406 45.3389C146.201 45.6494 145.94 45.9453 145.624 46.2266C145.308 46.5078 144.918 46.7363 144.455 46.9121C143.998 47.0879 143.456 47.1758 142.829 47.1758ZM150.054 39.5205V47H148.428V37.4902H149.966L150.054 39.5205ZM149.667 41.8848L148.99 41.8584C148.996 41.208 149.093 40.6074 149.28 40.0566C149.468 39.5 149.731 39.0166 150.071 38.6064C150.411 38.1963 150.815 37.8799 151.284 37.6572C151.759 37.4287 152.283 37.3145 152.857 37.3145C153.326 37.3145 153.748 37.3789 154.123 37.5078C154.498 37.6309 154.817 37.8301 155.081 38.1055C155.351 38.3809 155.556 38.7383 155.696 39.1777C155.837 39.6113 155.907 40.1416 155.907 40.7686V47H154.272V40.751C154.272 40.2529 154.199 39.8545 154.053 39.5557C153.906 39.251 153.692 39.0312 153.411 38.8965C153.13 38.7559 152.784 38.6855 152.374 38.6855C151.97 38.6855 151.601 38.7705 151.267 38.9404C150.938 39.1104 150.654 39.3447 150.414 39.6436C150.18 39.9424 149.995 40.2852 149.86 40.6719C149.731 41.0527 149.667 41.457 149.667 41.8848ZM166.788 47.1758C166.126 47.1758 165.525 47.0645 164.986 46.8418C164.453 46.6133 163.993 46.2939 163.606 45.8838C163.226 45.4736 162.933 44.9873 162.728 44.4248C162.522 43.8623 162.42 43.2471 162.42 42.5791V42.21C162.42 41.4365 162.534 40.748 162.763 40.1445C162.991 39.5352 163.302 39.0195 163.694 38.5977C164.087 38.1758 164.532 37.8564 165.03 37.6396C165.528 37.4229 166.044 37.3145 166.577 37.3145C167.257 37.3145 167.843 37.4316 168.335 37.666C168.833 37.9004 169.24 38.2285 169.557 38.6504C169.873 39.0664 170.107 39.5586 170.26 40.127C170.412 40.6895 170.488 41.3047 170.488 41.9727V42.7021H163.387V41.375H168.862V41.252C168.839 40.8301 168.751 40.4199 168.599 40.0215C168.452 39.623 168.218 39.2949 167.896 39.0371C167.573 38.7793 167.134 38.6504 166.577 38.6504C166.208 38.6504 165.868 38.7295 165.558 38.8877C165.247 39.04 164.98 39.2686 164.758 39.5732C164.535 39.8779 164.362 40.25 164.239 40.6895C164.116 41.1289 164.055 41.6357 164.055 42.21V42.5791C164.055 43.0303 164.116 43.4551 164.239 43.8535C164.368 44.2461 164.553 44.5918 164.793 44.8906C165.039 45.1895 165.335 45.4238 165.681 45.5938C166.032 45.7637 166.431 45.8486 166.876 45.8486C167.45 45.8486 167.937 45.7314 168.335 45.4971C168.733 45.2627 169.082 44.9492 169.381 44.5566L170.365 45.3389C170.16 45.6494 169.899 45.9453 169.583 46.2266C169.267 46.5078 168.877 46.7363 168.414 46.9121C167.957 47.0879 167.415 47.1758 166.788 47.1758ZM173.485 37.4902L175.568 40.9531L177.678 37.4902H179.585L176.474 42.1836L179.682 47H177.801L175.604 43.4316L173.406 47H171.517L174.716 42.1836L171.613 37.4902H173.485ZM184.946 45.8398C185.333 45.8398 185.69 45.7607 186.019 45.6025C186.347 45.4443 186.616 45.2275 186.827 44.9521C187.038 44.6709 187.158 44.3516 187.188 43.9941H188.734C188.705 44.5566 188.515 45.0811 188.163 45.5674C187.817 46.0479 187.363 46.4375 186.801 46.7363C186.238 47.0293 185.62 47.1758 184.946 47.1758C184.231 47.1758 183.607 47.0498 183.074 46.7979C182.547 46.5459 182.107 46.2002 181.756 45.7607C181.41 45.3213 181.149 44.8174 180.974 44.249C180.804 43.6748 180.719 43.0684 180.719 42.4297V42.0605C180.719 41.4219 180.804 40.8184 180.974 40.25C181.149 39.6758 181.41 39.1689 181.756 38.7295C182.107 38.29 182.547 37.9443 183.074 37.6924C183.607 37.4404 184.231 37.3145 184.946 37.3145C185.69 37.3145 186.341 37.4668 186.897 37.7715C187.454 38.0703 187.891 38.4805 188.207 39.002C188.529 39.5176 188.705 40.1035 188.734 40.7598H187.188C187.158 40.3672 187.047 40.0127 186.854 39.6963C186.666 39.3799 186.408 39.1279 186.08 38.9404C185.758 38.7471 185.38 38.6504 184.946 38.6504C184.448 38.6504 184.029 38.75 183.689 38.9492C183.355 39.1426 183.089 39.4062 182.89 39.7402C182.696 40.0684 182.556 40.4346 182.468 40.8389C182.386 41.2373 182.345 41.6445 182.345 42.0605V42.4297C182.345 42.8457 182.386 43.2559 182.468 43.6602C182.55 44.0645 182.688 44.4307 182.881 44.7588C183.08 45.0869 183.347 45.3506 183.681 45.5498C184.021 45.7432 184.442 45.8398 184.946 45.8398ZM190.132 42.3506V42.1484C190.132 41.4629 190.231 40.8271 190.431 40.2412C190.63 39.6494 190.917 39.1367 191.292 38.7031C191.667 38.2637 192.121 37.9238 192.654 37.6836C193.188 37.4375 193.785 37.3145 194.447 37.3145C195.115 37.3145 195.716 37.4375 196.249 37.6836C196.788 37.9238 197.245 38.2637 197.62 38.7031C198.001 39.1367 198.291 39.6494 198.49 40.2412C198.689 40.8271 198.789 41.4629 198.789 42.1484V42.3506C198.789 43.0361 198.689 43.6719 198.49 44.2578C198.291 44.8438 198.001 45.3564 197.62 45.7959C197.245 46.2295 196.791 46.5693 196.258 46.8154C195.73 47.0557 195.133 47.1758 194.465 47.1758C193.797 47.1758 193.196 47.0557 192.663 46.8154C192.13 46.5693 191.673 46.2295 191.292 45.7959C190.917 45.3564 190.63 44.8438 190.431 44.2578C190.231 43.6719 190.132 43.0361 190.132 42.3506ZM191.758 42.1484V42.3506C191.758 42.8252 191.813 43.2734 191.925 43.6953C192.036 44.1113 192.203 44.4805 192.426 44.8027C192.654 45.125 192.938 45.3799 193.278 45.5674C193.618 45.749 194.014 45.8398 194.465 45.8398C194.91 45.8398 195.3 45.749 195.634 45.5674C195.974 45.3799 196.255 45.125 196.478 44.8027C196.7 44.4805 196.867 44.1113 196.979 43.6953C197.096 43.2734 197.154 42.8252 197.154 42.3506V42.1484C197.154 41.6797 197.096 41.2373 196.979 40.8213C196.867 40.3994 196.697 40.0273 196.469 39.7051C196.246 39.377 195.965 39.1191 195.625 38.9316C195.291 38.7441 194.898 38.6504 194.447 38.6504C194.002 38.6504 193.609 38.7441 193.27 38.9316C192.936 39.1191 192.654 39.377 192.426 39.7051C192.203 40.0273 192.036 40.3994 191.925 40.8213C191.813 41.2373 191.758 41.6797 191.758 42.1484ZM200.819 33.5H202.454V45.1543L202.313 47H200.819V33.5ZM208.879 42.166V42.3506C208.879 43.042 208.797 43.6836 208.633 44.2754C208.469 44.8613 208.229 45.3711 207.912 45.8047C207.596 46.2383 207.209 46.5752 206.752 46.8154C206.295 47.0557 205.771 47.1758 205.179 47.1758C204.575 47.1758 204.045 47.0732 203.588 46.8682C203.137 46.6572 202.756 46.3555 202.445 45.9629C202.135 45.5703 201.886 45.0957 201.698 44.5391C201.517 43.9824 201.391 43.3555 201.32 42.6582V41.8496C201.391 41.1465 201.517 40.5166 201.698 39.96C201.886 39.4033 202.135 38.9287 202.445 38.5361C202.756 38.1377 203.137 37.8359 203.588 37.6309C204.039 37.4199 204.563 37.3145 205.161 37.3145C205.759 37.3145 206.289 37.4316 206.752 37.666C207.215 37.8945 207.602 38.2227 207.912 38.6504C208.229 39.0781 208.469 39.5908 208.633 40.1885C208.797 40.7803 208.879 41.4395 208.879 42.166ZM207.244 42.3506V42.166C207.244 41.6914 207.2 41.2461 207.112 40.8301C207.024 40.4082 206.884 40.0391 206.69 39.7227C206.497 39.4004 206.242 39.1484 205.926 38.9668C205.609 38.7793 205.22 38.6855 204.757 38.6855C204.347 38.6855 203.989 38.7559 203.685 38.8965C203.386 39.0371 203.131 39.2275 202.92 39.4678C202.709 39.7021 202.536 39.9717 202.401 40.2764C202.272 40.5752 202.176 40.8857 202.111 41.208V43.3262C202.205 43.7363 202.357 44.1318 202.568 44.5127C202.785 44.8877 203.072 45.1953 203.43 45.4355C203.793 45.6758 204.241 45.7959 204.774 45.7959C205.214 45.7959 205.589 45.708 205.899 45.5322C206.216 45.3506 206.471 45.1016 206.664 44.7852C206.863 44.4688 207.01 44.1025 207.104 43.6865C207.197 43.2705 207.244 42.8252 207.244 42.3506ZM216.543 45.374V40.4785C216.543 40.1035 216.467 39.7783 216.314 39.5029C216.168 39.2217 215.945 39.0049 215.646 38.8525C215.348 38.7002 214.979 38.624 214.539 38.624C214.129 38.624 213.769 38.6943 213.458 38.835C213.153 38.9756 212.913 39.1602 212.737 39.3887C212.567 39.6172 212.482 39.8633 212.482 40.127H210.856C210.856 39.7871 210.944 39.4502 211.12 39.1162C211.296 38.7822 211.548 38.4805 211.876 38.2109C212.21 37.9355 212.608 37.7188 213.071 37.5605C213.54 37.3965 214.062 37.3145 214.636 37.3145C215.327 37.3145 215.937 37.4316 216.464 37.666C216.997 37.9004 217.413 38.2549 217.712 38.7295C218.017 39.1982 218.169 39.7871 218.169 40.4961V44.9258C218.169 45.2422 218.195 45.5791 218.248 45.9365C218.307 46.2939 218.392 46.6016 218.503 46.8594V47H216.807C216.725 46.8125 216.66 46.5635 216.613 46.2529C216.566 45.9365 216.543 45.6436 216.543 45.374ZM216.824 41.2344L216.842 42.377H215.198C214.735 42.377 214.322 42.415 213.959 42.4912C213.596 42.5615 213.291 42.6699 213.045 42.8164C212.799 42.9629 212.611 43.1475 212.482 43.3701C212.354 43.5869 212.289 43.8418 212.289 44.1348C212.289 44.4336 212.356 44.7061 212.491 44.9521C212.626 45.1982 212.828 45.3945 213.098 45.541C213.373 45.6816 213.71 45.752 214.108 45.752C214.606 45.752 215.046 45.6465 215.427 45.4355C215.808 45.2246 216.109 44.9668 216.332 44.6621C216.561 44.3574 216.684 44.0615 216.701 43.7744L217.396 44.5566C217.354 44.8027 217.243 45.0752 217.062 45.374C216.88 45.6729 216.637 45.96 216.332 46.2354C216.033 46.5049 215.676 46.7305 215.26 46.9121C214.85 47.0879 214.387 47.1758 213.871 47.1758C213.227 47.1758 212.661 47.0498 212.175 46.7979C211.694 46.5459 211.319 46.209 211.05 45.7871C210.786 45.3594 210.654 44.8818 210.654 44.3545C210.654 43.8447 210.754 43.3965 210.953 43.0098C211.152 42.6172 211.439 42.292 211.814 42.0342C212.189 41.7705 212.641 41.5713 213.168 41.4365C213.695 41.3018 214.284 41.2344 214.935 41.2344H216.824ZM221.122 33.5V34.4668L220.938 37.7012H219.804L219.812 34.6162V33.5H221.122Z" fill="#0EB1F8"/>
</svg>
