<svg width="193" height="85" viewBox="0 0 193 85" fill="none" xmlns="http://www.w3.org/2000/svg">
<path d="M33.6609 84.0432L51.8706 63.3237H173.269C184.967 63.3237 191.019 52.1239 192.582 46.524V16.8446C189.05 5.19682 178.235 0.791574 173.269 0.0449219H20.4175C5.84972 0.940904 0.736282 11.618 0.000534058 16.8446V46.524C2.64923 59.9637 14.7155 63.3237 20.4175 63.3237L33.6609 84.0432Z" fill="white"/>
<path d="M19.6963 21.9814H16.2773V20.6016H19.6963C20.3584 20.6016 20.8945 20.4961 21.3047 20.2852C21.7148 20.0742 22.0137 19.7812 22.2012 19.4062C22.3945 19.0312 22.4912 18.6035 22.4912 18.123C22.4912 17.6836 22.3945 17.2705 22.2012 16.8838C22.0137 16.4971 21.7148 16.1865 21.3047 15.9521C20.8945 15.7119 20.3584 15.5918 19.6963 15.5918H16.6729V27H14.9766V14.2031H19.6963C20.6631 14.2031 21.4805 14.3701 22.1484 14.7041C22.8164 15.0381 23.3232 15.501 23.6689 16.0928C24.0146 16.6787 24.1875 17.3496 24.1875 18.1055C24.1875 18.9258 24.0146 19.626 23.6689 20.2061C23.3232 20.7861 22.8164 21.2285 22.1484 21.5332C21.4805 21.832 20.6631 21.9814 19.6963 21.9814ZM25.5322 22.3506V22.1484C25.5322 21.4629 25.6318 20.8271 25.8311 20.2412C26.0303 19.6494 26.3174 19.1367 26.6924 18.7031C27.0674 18.2637 27.5215 17.9238 28.0547 17.6836C28.5879 17.4375 29.1855 17.3145 29.8477 17.3145C30.5156 17.3145 31.1162 17.4375 31.6494 17.6836C32.1885 17.9238 32.6455 18.2637 33.0205 18.7031C33.4014 19.1367 33.6914 19.6494 33.8906 20.2412C34.0898 20.8271 34.1895 21.4629 34.1895 22.1484V22.3506C34.1895 23.0361 34.0898 23.6719 33.8906 24.2578C33.6914 24.8438 33.4014 25.3564 33.0205 25.7959C32.6455 26.2295 32.1914 26.5693 31.6582 26.8154C31.1309 27.0557 30.5332 27.1758 29.8652 27.1758C29.1973 27.1758 28.5967 27.0557 28.0635 26.8154C27.5303 26.5693 27.0732 26.2295 26.6924 25.7959C26.3174 25.3564 26.0303 24.8438 25.8311 24.2578C25.6318 23.6719 25.5322 23.0361 25.5322 22.3506ZM27.1582 22.1484V22.3506C27.1582 22.8252 27.2139 23.2734 27.3252 23.6953C27.4365 24.1113 27.6035 24.4805 27.8262 24.8027C28.0547 25.125 28.3389 25.3799 28.6787 25.5674C29.0186 25.749 29.4141 25.8398 29.8652 25.8398C30.3105 25.8398 30.7002 25.749 31.0342 25.5674C31.374 25.3799 31.6553 25.125 31.8779 24.8027C32.1006 24.4805 32.2676 24.1113 32.3789 23.6953C32.4961 23.2734 32.5547 22.8252 32.5547 22.3506V22.1484C32.5547 21.6797 32.4961 21.2373 32.3789 20.8213C32.2676 20.3994 32.0977 20.0273 31.8691 19.7051C31.6465 19.377 31.3652 19.1191 31.0254 18.9316C30.6914 18.7441 30.2988 18.6504 29.8477 18.6504C29.4023 18.6504 29.0098 18.7441 28.6699 18.9316C28.3359 19.1191 28.0547 19.377 27.8262 19.7051C27.6035 20.0273 27.4365 20.3994 27.3252 20.8213C27.2139 21.2373 27.1582 21.6797 27.1582 22.1484ZM37.8545 18.9844V27H36.2285V17.4902H37.8105L37.8545 18.9844ZM40.8252 17.4375L40.8164 18.9492C40.6816 18.9199 40.5527 18.9023 40.4297 18.8965C40.3125 18.8848 40.1777 18.8789 40.0254 18.8789C39.6504 18.8789 39.3193 18.9375 39.0322 19.0547C38.7451 19.1719 38.502 19.3359 38.3027 19.5469C38.1035 19.7578 37.9453 20.0098 37.8281 20.3027C37.7168 20.5898 37.6436 20.9062 37.6084 21.252L37.1514 21.5156C37.1514 20.9414 37.207 20.4023 37.3184 19.8984C37.4355 19.3945 37.6143 18.9492 37.8545 18.5625C38.0947 18.1699 38.3994 17.8652 38.7686 17.6484C39.1436 17.4258 39.5889 17.3145 40.1045 17.3145C40.2217 17.3145 40.3564 17.3291 40.5088 17.3584C40.6611 17.3818 40.7666 17.4082 40.8252 17.4375ZM52.3301 24.4775C52.3301 24.2432 52.2773 24.0264 52.1719 23.8271C52.0723 23.6221 51.8643 23.4375 51.5479 23.2734C51.2373 23.1035 50.7686 22.957 50.1416 22.834C49.6143 22.7227 49.1367 22.5908 48.709 22.4385C48.2871 22.2861 47.9268 22.1016 47.6279 21.8848C47.335 21.668 47.1094 21.4131 46.9512 21.1201C46.793 20.8271 46.7139 20.4844 46.7139 20.0918C46.7139 19.7168 46.7959 19.3623 46.96 19.0283C47.1299 18.6943 47.3672 18.3984 47.6719 18.1406C47.9824 17.8828 48.3545 17.6807 48.7881 17.5342C49.2217 17.3877 49.7051 17.3145 50.2383 17.3145C51 17.3145 51.6504 17.4492 52.1895 17.7188C52.7285 17.9883 53.1416 18.3486 53.4287 18.7998C53.7158 19.2451 53.8594 19.7402 53.8594 20.2852H52.2334C52.2334 20.0215 52.1543 19.7666 51.9961 19.5205C51.8438 19.2686 51.6182 19.0605 51.3193 18.8965C51.0264 18.7324 50.666 18.6504 50.2383 18.6504C49.7871 18.6504 49.4209 18.7207 49.1396 18.8613C48.8643 18.9961 48.6621 19.1689 48.5332 19.3799C48.4102 19.5908 48.3486 19.8135 48.3486 20.0479C48.3486 20.2236 48.3779 20.3818 48.4365 20.5225C48.501 20.6572 48.6123 20.7832 48.7705 20.9004C48.9287 21.0117 49.1514 21.1172 49.4385 21.2168C49.7256 21.3164 50.0918 21.416 50.5371 21.5156C51.3164 21.6914 51.958 21.9023 52.4619 22.1484C52.9658 22.3945 53.3408 22.6963 53.5869 23.0537C53.833 23.4111 53.9561 23.8447 53.9561 24.3545C53.9561 24.7705 53.8682 25.1514 53.6924 25.4971C53.5225 25.8428 53.2734 26.1416 52.9453 26.3936C52.623 26.6396 52.2363 26.833 51.7852 26.9736C51.3398 27.1084 50.8389 27.1758 50.2822 27.1758C49.4443 27.1758 48.7354 27.0264 48.1553 26.7275C47.5752 26.4287 47.1357 26.042 46.8369 25.5674C46.5381 25.0928 46.3887 24.5918 46.3887 24.0645H48.0234C48.0469 24.5098 48.1758 24.8643 48.4102 25.1279C48.6445 25.3857 48.9316 25.5703 49.2715 25.6816C49.6113 25.7871 49.9482 25.8398 50.2822 25.8398C50.7275 25.8398 51.0996 25.7812 51.3984 25.6641C51.7031 25.5469 51.9346 25.3857 52.0928 25.1807C52.251 24.9756 52.3301 24.7412 52.3301 24.4775ZM61.9102 24.8027V17.4902H63.5449V27H61.9893L61.9102 24.8027ZM62.2178 22.7988L62.8945 22.7812C62.8945 23.4141 62.8271 24 62.6924 24.5391C62.5635 25.0723 62.3525 25.5352 62.0596 25.9277C61.7666 26.3203 61.3828 26.6279 60.9082 26.8506C60.4336 27.0674 59.8564 27.1758 59.1768 27.1758C58.7139 27.1758 58.2891 27.1084 57.9023 26.9736C57.5215 26.8389 57.1934 26.6309 56.918 26.3496C56.6426 26.0684 56.4287 25.7021 56.2764 25.251C56.1299 24.7998 56.0566 24.2578 56.0566 23.625V17.4902H57.6826V23.6426C57.6826 24.0703 57.7295 24.4248 57.8232 24.7061C57.9229 24.9814 58.0547 25.2012 58.2188 25.3652C58.3887 25.5234 58.5762 25.6348 58.7812 25.6992C58.9922 25.7637 59.209 25.7959 59.4316 25.7959C60.123 25.7959 60.6709 25.6641 61.0752 25.4004C61.4795 25.1309 61.7695 24.7705 61.9453 24.3193C62.127 23.8623 62.2178 23.3555 62.2178 22.7988ZM67.6494 19.3184V30.6562H66.0146V17.4902H67.5088L67.6494 19.3184ZM74.0566 22.166V22.3506C74.0566 23.042 73.9746 23.6836 73.8105 24.2754C73.6465 24.8613 73.4062 25.3711 73.0898 25.8047C72.7793 26.2383 72.3955 26.5752 71.9385 26.8154C71.4814 27.0557 70.957 27.1758 70.3652 27.1758C69.7617 27.1758 69.2285 27.0762 68.7656 26.877C68.3027 26.6777 67.9102 26.3877 67.5879 26.0068C67.2656 25.626 67.0078 25.1689 66.8145 24.6357C66.627 24.1025 66.498 23.502 66.4277 22.834V21.8496C66.498 21.1465 66.6299 20.5166 66.8232 19.96C67.0166 19.4033 67.2715 18.9287 67.5879 18.5361C67.9102 18.1377 68.2998 17.8359 68.7568 17.6309C69.2139 17.4199 69.7412 17.3145 70.3389 17.3145C70.9365 17.3145 71.4668 17.4316 71.9297 17.666C72.3926 17.8945 72.7822 18.2227 73.0986 18.6504C73.415 19.0781 73.6523 19.5908 73.8105 20.1885C73.9746 20.7803 74.0566 21.4395 74.0566 22.166ZM72.4219 22.3506V22.166C72.4219 21.6914 72.3721 21.2461 72.2725 20.8301C72.1729 20.4082 72.0176 20.0391 71.8066 19.7227C71.6016 19.4004 71.3379 19.1484 71.0156 18.9668C70.6934 18.7793 70.3096 18.6855 69.8643 18.6855C69.4541 18.6855 69.0967 18.7559 68.792 18.8965C68.4932 19.0371 68.2383 19.2275 68.0273 19.4678C67.8164 19.7021 67.6436 19.9717 67.5088 20.2764C67.3799 20.5752 67.2832 20.8857 67.2188 21.208V23.4844C67.3359 23.8945 67.5 24.2812 67.7109 24.6445C67.9219 25.002 68.2031 25.292 68.5547 25.5146C68.9062 25.7314 69.3486 25.8398 69.8818 25.8398C70.3213 25.8398 70.6992 25.749 71.0156 25.5674C71.3379 25.3799 71.6016 25.125 71.8066 24.8027C72.0176 24.4805 72.1729 24.1113 72.2725 23.6953C72.3721 23.2734 72.4219 22.8252 72.4219 22.3506ZM81.9492 24.8027V17.4902H83.584V27H82.0283L81.9492 24.8027ZM82.2568 22.7988L82.9336 22.7812C82.9336 23.4141 82.8662 24 82.7314 24.5391C82.6025 25.0723 82.3916 25.5352 82.0986 25.9277C81.8057 26.3203 81.4219 26.6279 80.9473 26.8506C80.4727 27.0674 79.8955 27.1758 79.2158 27.1758C78.7529 27.1758 78.3281 27.1084 77.9414 26.9736C77.5605 26.8389 77.2324 26.6309 76.957 26.3496C76.6816 26.0684 76.4678 25.7021 76.3154 25.251C76.1689 24.7998 76.0957 24.2578 76.0957 23.625V17.4902H77.7217V23.6426C77.7217 24.0703 77.7686 24.4248 77.8623 24.7061C77.9619 24.9814 78.0938 25.2012 78.2578 25.3652C78.4277 25.5234 78.6152 25.6348 78.8203 25.6992C79.0312 25.7637 79.248 25.7959 79.4707 25.7959C80.1621 25.7959 80.71 25.6641 81.1143 25.4004C81.5186 25.1309 81.8086 24.7705 81.9844 24.3193C82.166 23.8623 82.2568 23.3555 82.2568 22.7988ZM90.0088 27.1758C89.3467 27.1758 88.7461 27.0645 88.207 26.8418C87.6738 26.6133 87.2139 26.2939 86.8271 25.8838C86.4463 25.4736 86.1533 24.9873 85.9482 24.4248C85.7432 23.8623 85.6406 23.2471 85.6406 22.5791V22.21C85.6406 21.4365 85.7549 20.748 85.9834 20.1445C86.2119 19.5352 86.5225 19.0195 86.915 18.5977C87.3076 18.1758 87.7529 17.8564 88.251 17.6396C88.749 17.4229 89.2646 17.3145 89.7979 17.3145C90.4775 17.3145 91.0635 17.4316 91.5557 17.666C92.0537 17.9004 92.4609 18.2285 92.7773 18.6504C93.0938 19.0664 93.3281 19.5586 93.4805 20.127C93.6328 20.6895 93.709 21.3047 93.709 21.9727V22.7021H86.6074V21.375H92.083V21.252C92.0596 20.8301 91.9717 20.4199 91.8193 20.0215C91.6729 19.623 91.4385 19.2949 91.1162 19.0371C90.7939 18.7793 90.3545 18.6504 89.7979 18.6504C89.4287 18.6504 89.0889 18.7295 88.7783 18.8877C88.4678 19.04 88.2012 19.2686 87.9785 19.5732C87.7559 19.8779 87.583 20.25 87.46 20.6895C87.3369 21.1289 87.2754 21.6357 87.2754 22.21V22.5791C87.2754 23.0303 87.3369 23.4551 87.46 23.8535C87.5889 24.2461 87.7734 24.5918 88.0137 24.8906C88.2598 25.1895 88.5557 25.4238 88.9014 25.5938C89.2529 25.7637 89.6514 25.8486 90.0967 25.8486C90.6709 25.8486 91.1572 25.7314 91.5557 25.4971C91.9541 25.2627 92.3027 24.9492 92.6016 24.5566L93.5859 25.3389C93.3809 25.6494 93.1201 25.9453 92.8037 26.2266C92.4873 26.5078 92.0977 26.7363 91.6348 26.9121C91.1777 27.0879 90.6357 27.1758 90.0088 27.1758ZM101.145 24.4775C101.145 24.2432 101.092 24.0264 100.986 23.8271C100.887 23.6221 100.679 23.4375 100.362 23.2734C100.052 23.1035 99.583 22.957 98.9561 22.834C98.4287 22.7227 97.9512 22.5908 97.5234 22.4385C97.1016 22.2861 96.7412 22.1016 96.4424 21.8848C96.1494 21.668 95.9238 21.4131 95.7656 21.1201C95.6074 20.8271 95.5283 20.4844 95.5283 20.0918C95.5283 19.7168 95.6104 19.3623 95.7744 19.0283C95.9443 18.6943 96.1816 18.3984 96.4863 18.1406C96.7969 17.8828 97.1689 17.6807 97.6025 17.5342C98.0361 17.3877 98.5195 17.3145 99.0527 17.3145C99.8145 17.3145 100.465 17.4492 101.004 17.7188C101.543 17.9883 101.956 18.3486 102.243 18.7998C102.53 19.2451 102.674 19.7402 102.674 20.2852H101.048C101.048 20.0215 100.969 19.7666 100.811 19.5205C100.658 19.2686 100.433 19.0605 100.134 18.8965C99.8408 18.7324 99.4805 18.6504 99.0527 18.6504C98.6016 18.6504 98.2354 18.7207 97.9541 18.8613C97.6787 18.9961 97.4766 19.1689 97.3477 19.3799C97.2246 19.5908 97.1631 19.8135 97.1631 20.0479C97.1631 20.2236 97.1924 20.3818 97.251 20.5225C97.3154 20.6572 97.4268 20.7832 97.585 20.9004C97.7432 21.0117 97.9658 21.1172 98.2529 21.2168C98.54 21.3164 98.9062 21.416 99.3516 21.5156C100.131 21.6914 100.772 21.9023 101.276 22.1484C101.78 22.3945 102.155 22.6963 102.401 23.0537C102.647 23.4111 102.771 23.8447 102.771 24.3545C102.771 24.7705 102.683 25.1514 102.507 25.4971C102.337 25.8428 102.088 26.1416 101.76 26.3936C101.438 26.6396 101.051 26.833 100.6 26.9736C100.154 27.1084 99.6533 27.1758 99.0967 27.1758C98.2588 27.1758 97.5498 27.0264 96.9697 26.7275C96.3896 26.4287 95.9502 26.042 95.6514 25.5674C95.3525 25.0928 95.2031 24.5918 95.2031 24.0645H96.8379C96.8613 24.5098 96.9902 24.8643 97.2246 25.1279C97.459 25.3857 97.7461 25.5703 98.0859 25.6816C98.4258 25.7871 98.7627 25.8398 99.0967 25.8398C99.542 25.8398 99.9141 25.7812 100.213 25.6641C100.518 25.5469 100.749 25.3857 100.907 25.1807C101.065 24.9756 101.145 24.7412 101.145 24.4775ZM108.888 17.4902V18.7383H103.746V17.4902H108.888ZM105.486 15.1787H107.112V24.6445C107.112 24.9668 107.162 25.21 107.262 25.374C107.361 25.5381 107.49 25.6465 107.648 25.6992C107.807 25.752 107.977 25.7783 108.158 25.7783C108.293 25.7783 108.434 25.7666 108.58 25.7432C108.732 25.7139 108.847 25.6904 108.923 25.6729L108.932 27C108.803 27.041 108.633 27.0791 108.422 27.1143C108.217 27.1553 107.968 27.1758 107.675 27.1758C107.276 27.1758 106.91 27.0967 106.576 26.9385C106.242 26.7803 105.976 26.5166 105.776 26.1475C105.583 25.7725 105.486 25.2686 105.486 24.6357V15.1787ZM110.188 22.3506V22.1484C110.188 21.4629 110.288 20.8271 110.487 20.2412C110.687 19.6494 110.974 19.1367 111.349 18.7031C111.724 18.2637 112.178 17.9238 112.711 17.6836C113.244 17.4375 113.842 17.3145 114.504 17.3145C115.172 17.3145 115.772 17.4375 116.306 17.6836C116.845 17.9238 117.302 18.2637 117.677 18.7031C118.058 19.1367 118.348 19.6494 118.547 20.2412C118.746 20.8271 118.846 21.4629 118.846 22.1484V22.3506C118.846 23.0361 118.746 23.6719 118.547 24.2578C118.348 24.8438 118.058 25.3564 117.677 25.7959C117.302 26.2295 116.848 26.5693 116.314 26.8154C115.787 27.0557 115.189 27.1758 114.521 27.1758C113.854 27.1758 113.253 27.0557 112.72 26.8154C112.187 26.5693 111.729 26.2295 111.349 25.7959C110.974 25.3564 110.687 24.8438 110.487 24.2578C110.288 23.6719 110.188 23.0361 110.188 22.3506ZM111.814 22.1484V22.3506C111.814 22.8252 111.87 23.2734 111.981 23.6953C112.093 24.1113 112.26 24.4805 112.482 24.8027C112.711 25.125 112.995 25.3799 113.335 25.5674C113.675 25.749 114.07 25.8398 114.521 25.8398C114.967 25.8398 115.356 25.749 115.69 25.5674C116.03 25.3799 116.312 25.125 116.534 24.8027C116.757 24.4805 116.924 24.1113 117.035 23.6953C117.152 23.2734 117.211 22.8252 117.211 22.3506V22.1484C117.211 21.6797 117.152 21.2373 117.035 20.8213C116.924 20.3994 116.754 20.0273 116.525 19.7051C116.303 19.377 116.021 19.1191 115.682 18.9316C115.348 18.7441 114.955 18.6504 114.504 18.6504C114.059 18.6504 113.666 18.7441 113.326 18.9316C112.992 19.1191 112.711 19.377 112.482 19.7051C112.26 20.0273 112.093 20.3994 111.981 20.8213C111.87 21.2373 111.814 21.6797 111.814 22.1484ZM131.335 30.6562V19.3184L131.476 17.4902H132.97V30.6562H131.335ZM124.945 22.3506V22.166C124.945 21.4395 125.03 20.7803 125.2 20.1885C125.37 19.5908 125.619 19.0781 125.947 18.6504C126.275 18.2227 126.671 17.8945 127.134 17.666C127.603 17.4316 128.136 17.3145 128.733 17.3145C129.331 17.3145 129.855 17.4199 130.307 17.6309C130.764 17.8359 131.15 18.1377 131.467 18.5361C131.789 18.9287 132.044 19.4033 132.231 19.96C132.419 20.5166 132.548 21.1465 132.618 21.8496V22.6582C132.554 23.3555 132.428 23.9824 132.24 24.5391C132.053 25.0957 131.798 25.5703 131.476 25.9629C131.159 26.3555 130.77 26.6572 130.307 26.8682C129.85 27.0732 129.319 27.1758 128.716 27.1758C128.13 27.1758 127.603 27.0557 127.134 26.8154C126.671 26.5752 126.275 26.2383 125.947 25.8047C125.625 25.3711 125.376 24.8613 125.2 24.2754C125.03 23.6836 124.945 23.042 124.945 22.3506ZM126.58 22.166V22.3506C126.58 22.8252 126.63 23.2734 126.729 23.6953C126.829 24.1113 126.981 24.4805 127.187 24.8027C127.397 25.125 127.661 25.3799 127.978 25.5674C128.3 25.749 128.681 25.8398 129.12 25.8398C129.659 25.8398 130.107 25.7227 130.465 25.4883C130.828 25.2539 131.118 24.9463 131.335 24.5654C131.552 24.1787 131.719 23.7656 131.836 23.3262V21.208C131.771 20.8857 131.669 20.5723 131.528 20.2676C131.394 19.9629 131.218 19.6904 131.001 19.4502C130.784 19.2041 130.521 19.0107 130.21 18.8701C129.905 18.7236 129.548 18.6504 129.138 18.6504C128.692 18.6504 128.309 18.7441 127.986 18.9316C127.664 19.1191 127.397 19.377 127.187 19.7051C126.981 20.0273 126.829 20.3994 126.729 20.8213C126.63 21.2432 126.58 21.6914 126.58 22.166ZM141.398 24.8027V17.4902H143.033V27H141.478L141.398 24.8027ZM141.706 22.7988L142.383 22.7812C142.383 23.4141 142.315 24 142.181 24.5391C142.052 25.0723 141.841 25.5352 141.548 25.9277C141.255 26.3203 140.871 26.6279 140.396 26.8506C139.922 27.0674 139.345 27.1758 138.665 27.1758C138.202 27.1758 137.777 27.1084 137.391 26.9736C137.01 26.8389 136.682 26.6309 136.406 26.3496C136.131 26.0684 135.917 25.7021 135.765 25.251C135.618 24.7998 135.545 24.2578 135.545 23.625V17.4902H137.171V23.6426C137.171 24.0703 137.218 24.4248 137.312 24.7061C137.411 24.9814 137.543 25.2012 137.707 25.3652C137.877 25.5234 138.064 25.6348 138.27 25.6992C138.48 25.7637 138.697 25.7959 138.92 25.7959C139.611 25.7959 140.159 25.6641 140.563 25.4004C140.968 25.1309 141.258 24.7705 141.434 24.3193C141.615 23.8623 141.706 23.3555 141.706 22.7988ZM149.458 27.1758C148.796 27.1758 148.195 27.0645 147.656 26.8418C147.123 26.6133 146.663 26.2939 146.276 25.8838C145.896 25.4736 145.603 24.9873 145.397 24.4248C145.192 23.8623 145.09 23.2471 145.09 22.5791V22.21C145.09 21.4365 145.204 20.748 145.433 20.1445C145.661 19.5352 145.972 19.0195 146.364 18.5977C146.757 18.1758 147.202 17.8564 147.7 17.6396C148.198 17.4229 148.714 17.3145 149.247 17.3145C149.927 17.3145 150.513 17.4316 151.005 17.666C151.503 17.9004 151.91 18.2285 152.227 18.6504C152.543 19.0664 152.777 19.5586 152.93 20.127C153.082 20.6895 153.158 21.3047 153.158 21.9727V22.7021H146.057V21.375H151.532V21.252C151.509 20.8301 151.421 20.4199 151.269 20.0215C151.122 19.623 150.888 19.2949 150.565 19.0371C150.243 18.7793 149.804 18.6504 149.247 18.6504C148.878 18.6504 148.538 18.7295 148.228 18.8877C147.917 19.04 147.65 19.2686 147.428 19.5732C147.205 19.8779 147.032 20.25 146.909 20.6895C146.786 21.1289 146.725 21.6357 146.725 22.21V22.5791C146.725 23.0303 146.786 23.4551 146.909 23.8535C147.038 24.2461 147.223 24.5918 147.463 24.8906C147.709 25.1895 148.005 25.4238 148.351 25.5938C148.702 25.7637 149.101 25.8486 149.546 25.8486C150.12 25.8486 150.606 25.7314 151.005 25.4971C151.403 25.2627 151.752 24.9492 152.051 24.5566L153.035 25.3389C152.83 25.6494 152.569 25.9453 152.253 26.2266C151.937 26.5078 151.547 26.7363 151.084 26.9121C150.627 27.0879 150.085 27.1758 149.458 27.1758ZM165.059 24.4775C165.059 24.2432 165.006 24.0264 164.9 23.8271C164.801 23.6221 164.593 23.4375 164.276 23.2734C163.966 23.1035 163.497 22.957 162.87 22.834C162.343 22.7227 161.865 22.5908 161.438 22.4385C161.016 22.2861 160.655 22.1016 160.356 21.8848C160.063 21.668 159.838 21.4131 159.68 21.1201C159.521 20.8271 159.442 20.4844 159.442 20.0918C159.442 19.7168 159.524 19.3623 159.688 19.0283C159.858 18.6943 160.096 18.3984 160.4 18.1406C160.711 17.8828 161.083 17.6807 161.517 17.5342C161.95 17.3877 162.434 17.3145 162.967 17.3145C163.729 17.3145 164.379 17.4492 164.918 17.7188C165.457 17.9883 165.87 18.3486 166.157 18.7998C166.444 19.2451 166.588 19.7402 166.588 20.2852H164.962C164.962 20.0215 164.883 19.7666 164.725 19.5205C164.572 19.2686 164.347 19.0605 164.048 18.8965C163.755 18.7324 163.395 18.6504 162.967 18.6504C162.516 18.6504 162.149 18.7207 161.868 18.8613C161.593 18.9961 161.391 19.1689 161.262 19.3799C161.139 19.5908 161.077 19.8135 161.077 20.0479C161.077 20.2236 161.106 20.3818 161.165 20.5225C161.229 20.6572 161.341 20.7832 161.499 20.9004C161.657 21.0117 161.88 21.1172 162.167 21.2168C162.454 21.3164 162.82 21.416 163.266 21.5156C164.045 21.6914 164.687 21.9023 165.19 22.1484C165.694 22.3945 166.069 22.6963 166.315 23.0537C166.562 23.4111 166.685 23.8447 166.685 24.3545C166.685 24.7705 166.597 25.1514 166.421 25.4971C166.251 25.8428 166.002 26.1416 165.674 26.3936C165.352 26.6396 164.965 26.833 164.514 26.9736C164.068 27.1084 163.567 27.1758 163.011 27.1758C162.173 27.1758 161.464 27.0264 160.884 26.7275C160.304 26.4287 159.864 26.042 159.565 25.5674C159.267 25.0928 159.117 24.5918 159.117 24.0645H160.752C160.775 24.5098 160.904 24.8643 161.139 25.1279C161.373 25.3857 161.66 25.5703 162 25.6816C162.34 25.7871 162.677 25.8398 163.011 25.8398C163.456 25.8398 163.828 25.7812 164.127 25.6641C164.432 25.5469 164.663 25.3857 164.821 25.1807C164.979 24.9756 165.059 24.7412 165.059 24.4775ZM170.587 17.4902V27H168.952V17.4902H170.587ZM168.829 14.9678C168.829 14.7041 168.908 14.4814 169.066 14.2998C169.23 14.1182 169.471 14.0273 169.787 14.0273C170.098 14.0273 170.335 14.1182 170.499 14.2998C170.669 14.4814 170.754 14.7041 170.754 14.9678C170.754 15.2197 170.669 15.4365 170.499 15.6182C170.335 15.7939 170.098 15.8818 169.787 15.8818C169.471 15.8818 169.23 15.7939 169.066 15.6182C168.908 15.4365 168.829 15.2197 168.829 14.9678ZM174.674 25.0664V26.376C174.674 26.9092 174.539 27.4717 174.27 28.0635C174 28.6611 173.622 29.1592 173.136 29.5576L172.213 28.916C172.4 28.6582 172.559 28.3945 172.688 28.125C172.816 27.8613 172.913 27.5859 172.978 27.2988C173.048 27.0176 173.083 26.7188 173.083 26.4023V25.0664H174.674ZM58.834 48.1758C58.1719 48.1758 57.5713 48.0645 57.0322 47.8418C56.499 47.6133 56.0391 47.2939 55.6523 46.8838C55.2715 46.4736 54.9785 45.9873 54.7734 45.4248C54.5684 44.8623 54.4658 44.2471 54.4658 43.5791V43.21C54.4658 42.4365 54.5801 41.748 54.8086 41.1445C55.0371 40.5352 55.3477 40.0195 55.7402 39.5977C56.1328 39.1758 56.5781 38.8564 57.0762 38.6396C57.5742 38.4229 58.0898 38.3145 58.623 38.3145C59.3027 38.3145 59.8887 38.4316 60.3809 38.666C60.8789 38.9004 61.2861 39.2285 61.6025 39.6504C61.9189 40.0664 62.1533 40.5586 62.3057 41.127C62.458 41.6895 62.5342 42.3047 62.5342 42.9727V43.7021H55.4326V42.375H60.9082V42.252C60.8848 41.8301 60.7969 41.4199 60.6445 41.0215C60.498 40.623 60.2637 40.2949 59.9414 40.0371C59.6191 39.7793 59.1797 39.6504 58.623 39.6504C58.2539 39.6504 57.9141 39.7295 57.6035 39.8877C57.293 40.04 57.0264 40.2686 56.8037 40.5732C56.5811 40.8779 56.4082 41.25 56.2852 41.6895C56.1621 42.1289 56.1006 42.6357 56.1006 43.21V43.5791C56.1006 44.0303 56.1621 44.4551 56.2852 44.8535C56.4141 45.2461 56.5986 45.5918 56.8389 45.8906C57.085 46.1895 57.3809 46.4238 57.7266 46.5938C58.0781 46.7637 58.4766 46.8486 58.9219 46.8486C59.4961 46.8486 59.9824 46.7314 60.3809 46.4971C60.7793 46.2627 61.1279 45.9492 61.4268 45.5566L62.4111 46.3389C62.2061 46.6494 61.9453 46.9453 61.6289 47.2266C61.3125 47.5078 60.9229 47.7363 60.46 47.9121C60.0029 48.0879 59.4609 48.1758 58.834 48.1758ZM69.9697 45.4775C69.9697 45.2432 69.917 45.0264 69.8115 44.8271C69.7119 44.6221 69.5039 44.4375 69.1875 44.2734C68.877 44.1035 68.4082 43.957 67.7812 43.834C67.2539 43.7227 66.7764 43.5908 66.3486 43.4385C65.9268 43.2861 65.5664 43.1016 65.2676 42.8848C64.9746 42.668 64.749 42.4131 64.5908 42.1201C64.4326 41.8271 64.3535 41.4844 64.3535 41.0918C64.3535 40.7168 64.4355 40.3623 64.5996 40.0283C64.7695 39.6943 65.0068 39.3984 65.3115 39.1406C65.6221 38.8828 65.9941 38.6807 66.4277 38.5342C66.8613 38.3877 67.3447 38.3145 67.8779 38.3145C68.6396 38.3145 69.29 38.4492 69.8291 38.7188C70.3682 38.9883 70.7812 39.3486 71.0684 39.7998C71.3555 40.2451 71.499 40.7402 71.499 41.2852H69.873C69.873 41.0215 69.7939 40.7666 69.6357 40.5205C69.4834 40.2686 69.2578 40.0605 68.959 39.8965C68.666 39.7324 68.3057 39.6504 67.8779 39.6504C67.4268 39.6504 67.0605 39.7207 66.7793 39.8613C66.5039 39.9961 66.3018 40.1689 66.1729 40.3799C66.0498 40.5908 65.9883 40.8135 65.9883 41.0479C65.9883 41.2236 66.0176 41.3818 66.0762 41.5225C66.1406 41.6572 66.252 41.7832 66.4102 41.9004C66.5684 42.0117 66.791 42.1172 67.0781 42.2168C67.3652 42.3164 67.7314 42.416 68.1768 42.5156C68.9561 42.6914 69.5977 42.9023 70.1016 43.1484C70.6055 43.3945 70.9805 43.6963 71.2266 44.0537C71.4727 44.4111 71.5957 44.8447 71.5957 45.3545C71.5957 45.7705 71.5078 46.1514 71.332 46.4971C71.1621 46.8428 70.9131 47.1416 70.585 47.3936C70.2627 47.6396 69.876 47.833 69.4248 47.9736C68.9795 48.1084 68.4785 48.1758 67.9219 48.1758C67.084 48.1758 66.375 48.0264 65.7949 47.7275C65.2148 47.4287 64.7754 47.042 64.4766 46.5674C64.1777 46.0928 64.0283 45.5918 64.0283 45.0645H65.6631C65.6865 45.5098 65.8154 45.8643 66.0498 46.1279C66.2842 46.3857 66.5713 46.5703 66.9111 46.6816C67.251 46.7871 67.5879 46.8398 67.9219 46.8398C68.3672 46.8398 68.7393 46.7812 69.0381 46.6641C69.3428 46.5469 69.5742 46.3857 69.7324 46.1807C69.8906 45.9756 69.9697 45.7412 69.9697 45.4775ZM77.7129 38.4902V39.7383H72.5713V38.4902H77.7129ZM74.3115 36.1787H75.9375V45.6445C75.9375 45.9668 75.9873 46.21 76.0869 46.374C76.1865 46.5381 76.3154 46.6465 76.4736 46.6992C76.6318 46.752 76.8018 46.7783 76.9834 46.7783C77.1182 46.7783 77.2588 46.7666 77.4053 46.7432C77.5576 46.7139 77.6719 46.6904 77.748 46.6729L77.7568 48C77.6279 48.041 77.458 48.0791 77.2471 48.1143C77.042 48.1553 76.793 48.1758 76.5 48.1758C76.1016 48.1758 75.7354 48.0967 75.4014 47.9385C75.0674 47.7803 74.8008 47.5166 74.6016 47.1475C74.4082 46.7725 74.3115 46.2686 74.3115 45.6357V36.1787ZM79.0137 43.3506V43.1484C79.0137 42.4629 79.1133 41.8271 79.3125 41.2412C79.5117 40.6494 79.7988 40.1367 80.1738 39.7031C80.5488 39.2637 81.0029 38.9238 81.5361 38.6836C82.0693 38.4375 82.667 38.3145 83.3291 38.3145C83.9971 38.3145 84.5977 38.4375 85.1309 38.6836C85.6699 38.9238 86.127 39.2637 86.502 39.7031C86.8828 40.1367 87.1729 40.6494 87.3721 41.2412C87.5713 41.8271 87.6709 42.4629 87.6709 43.1484V43.3506C87.6709 44.0361 87.5713 44.6719 87.3721 45.2578C87.1729 45.8438 86.8828 46.3564 86.502 46.7959C86.127 47.2295 85.6729 47.5693 85.1396 47.8154C84.6123 48.0557 84.0146 48.1758 83.3467 48.1758C82.6787 48.1758 82.0781 48.0557 81.5449 47.8154C81.0117 47.5693 80.5547 47.2295 80.1738 46.7959C79.7988 46.3564 79.5117 45.8438 79.3125 45.2578C79.1133 44.6719 79.0137 44.0361 79.0137 43.3506ZM80.6396 43.1484V43.3506C80.6396 43.8252 80.6953 44.2734 80.8066 44.6953C80.918 45.1113 81.085 45.4805 81.3076 45.8027C81.5361 46.125 81.8203 46.3799 82.1602 46.5674C82.5 46.749 82.8955 46.8398 83.3467 46.8398C83.792 46.8398 84.1816 46.749 84.5156 46.5674C84.8555 46.3799 85.1367 46.125 85.3594 45.8027C85.582 45.4805 85.749 45.1113 85.8604 44.6953C85.9775 44.2734 86.0361 43.8252 86.0361 43.3506V43.1484C86.0361 42.6797 85.9775 42.2373 85.8604 41.8213C85.749 41.3994 85.5791 41.0273 85.3506 40.7051C85.1279 40.377 84.8467 40.1191 84.5068 39.9316C84.1729 39.7441 83.7803 39.6504 83.3291 39.6504C82.8838 39.6504 82.4912 39.7441 82.1514 39.9316C81.8174 40.1191 81.5361 40.377 81.3076 40.7051C81.085 41.0273 80.918 41.3994 80.8066 41.8213C80.6953 42.2373 80.6396 42.6797 80.6396 43.1484ZM92.2412 47.0156L94.8867 38.4902H96.627L92.8125 49.4678C92.7246 49.7021 92.6074 49.9541 92.4609 50.2236C92.3203 50.499 92.1387 50.7598 91.916 51.0059C91.6934 51.252 91.4238 51.4512 91.1074 51.6035C90.7969 51.7617 90.4248 51.8408 89.9912 51.8408C89.8623 51.8408 89.6982 51.8232 89.499 51.7881C89.2998 51.7529 89.1592 51.7236 89.0771 51.7002L89.0684 50.3818C89.1152 50.3877 89.1885 50.3936 89.2881 50.3994C89.3936 50.4111 89.4668 50.417 89.5078 50.417C89.877 50.417 90.1904 50.3672 90.4482 50.2676C90.7061 50.1738 90.9229 50.0127 91.0986 49.7842C91.2803 49.5615 91.4355 49.2539 91.5645 48.8613L92.2412 47.0156ZM90.2988 38.4902L92.7686 45.873L93.1904 47.5869L92.0215 48.1846L88.5234 38.4902H90.2988ZM104.326 34.5V48H102.691V34.5H104.326ZM108.703 38.4902V48H107.068V38.4902H108.703ZM106.945 35.9678C106.945 35.7041 107.024 35.4814 107.183 35.2998C107.347 35.1182 107.587 35.0273 107.903 35.0273C108.214 35.0273 108.451 35.1182 108.615 35.2998C108.785 35.4814 108.87 35.7041 108.87 35.9678C108.87 36.2197 108.785 36.4365 108.615 36.6182C108.451 36.7939 108.214 36.8818 107.903 36.8818C107.587 36.8818 107.347 36.7939 107.183 36.6182C107.024 36.4365 106.945 36.2197 106.945 35.9678ZM116.851 45.4775C116.851 45.2432 116.798 45.0264 116.692 44.8271C116.593 44.6221 116.385 44.4375 116.068 44.2734C115.758 44.1035 115.289 43.957 114.662 43.834C114.135 43.7227 113.657 43.5908 113.229 43.4385C112.808 43.2861 112.447 43.1016 112.148 42.8848C111.855 42.668 111.63 42.4131 111.472 42.1201C111.313 41.8271 111.234 41.4844 111.234 41.0918C111.234 40.7168 111.316 40.3623 111.48 40.0283C111.65 39.6943 111.888 39.3984 112.192 39.1406C112.503 38.8828 112.875 38.6807 113.309 38.5342C113.742 38.3877 114.226 38.3145 114.759 38.3145C115.521 38.3145 116.171 38.4492 116.71 38.7188C117.249 38.9883 117.662 39.3486 117.949 39.7998C118.236 40.2451 118.38 40.7402 118.38 41.2852H116.754C116.754 41.0215 116.675 40.7666 116.517 40.5205C116.364 40.2686 116.139 40.0605 115.84 39.8965C115.547 39.7324 115.187 39.6504 114.759 39.6504C114.308 39.6504 113.941 39.7207 113.66 39.8613C113.385 39.9961 113.183 40.1689 113.054 40.3799C112.931 40.5908 112.869 40.8135 112.869 41.0479C112.869 41.2236 112.898 41.3818 112.957 41.5225C113.021 41.6572 113.133 41.7832 113.291 41.9004C113.449 42.0117 113.672 42.1172 113.959 42.2168C114.246 42.3164 114.612 42.416 115.058 42.5156C115.837 42.6914 116.479 42.9023 116.982 43.1484C117.486 43.3945 117.861 43.6963 118.107 44.0537C118.354 44.4111 118.477 44.8447 118.477 45.3545C118.477 45.7705 118.389 46.1514 118.213 46.4971C118.043 46.8428 117.794 47.1416 117.466 47.3936C117.144 47.6396 116.757 47.833 116.306 47.9736C115.86 48.1084 115.359 48.1758 114.803 48.1758C113.965 48.1758 113.256 48.0264 112.676 47.7275C112.096 47.4287 111.656 47.042 111.357 46.5674C111.059 46.0928 110.909 45.5918 110.909 45.0645H112.544C112.567 45.5098 112.696 45.8643 112.931 46.1279C113.165 46.3857 113.452 46.5703 113.792 46.6816C114.132 46.7871 114.469 46.8398 114.803 46.8398C115.248 46.8398 115.62 46.7812 115.919 46.6641C116.224 46.5469 116.455 46.3857 116.613 46.1807C116.771 45.9756 116.851 45.7412 116.851 45.4775ZM124.594 38.4902V39.7383H119.452V38.4902H124.594ZM121.192 36.1787H122.818V45.6445C122.818 45.9668 122.868 46.21 122.968 46.374C123.067 46.5381 123.196 46.6465 123.354 46.6992C123.513 46.752 123.683 46.7783 123.864 46.7783C123.999 46.7783 124.14 46.7666 124.286 46.7432C124.438 46.7139 124.553 46.6904 124.629 46.6729L124.638 48C124.509 48.041 124.339 48.0791 124.128 48.1143C123.923 48.1553 123.674 48.1758 123.381 48.1758C122.982 48.1758 122.616 48.0967 122.282 47.9385C121.948 47.7803 121.682 47.5166 121.482 47.1475C121.289 46.7725 121.192 46.2686 121.192 45.6357V36.1787ZM125.895 43.3506V43.1484C125.895 42.4629 125.994 41.8271 126.193 41.2412C126.393 40.6494 126.68 40.1367 127.055 39.7031C127.43 39.2637 127.884 38.9238 128.417 38.6836C128.95 38.4375 129.548 38.3145 130.21 38.3145C130.878 38.3145 131.479 38.4375 132.012 38.6836C132.551 38.9238 133.008 39.2637 133.383 39.7031C133.764 40.1367 134.054 40.6494 134.253 41.2412C134.452 41.8271 134.552 42.4629 134.552 43.1484V43.3506C134.552 44.0361 134.452 44.6719 134.253 45.2578C134.054 45.8438 133.764 46.3564 133.383 46.7959C133.008 47.2295 132.554 47.5693 132.021 47.8154C131.493 48.0557 130.896 48.1758 130.228 48.1758C129.56 48.1758 128.959 48.0557 128.426 47.8154C127.893 47.5693 127.436 47.2295 127.055 46.7959C126.68 46.3564 126.393 45.8438 126.193 45.2578C125.994 44.6719 125.895 44.0361 125.895 43.3506ZM127.521 43.1484V43.3506C127.521 43.8252 127.576 44.2734 127.688 44.6953C127.799 45.1113 127.966 45.4805 128.188 45.8027C128.417 46.125 128.701 46.3799 129.041 46.5674C129.381 46.749 129.776 46.8398 130.228 46.8398C130.673 46.8398 131.062 46.749 131.396 46.5674C131.736 46.3799 132.018 46.125 132.24 45.8027C132.463 45.4805 132.63 45.1113 132.741 44.6953C132.858 44.2734 132.917 43.8252 132.917 43.3506V43.1484C132.917 42.6797 132.858 42.2373 132.741 41.8213C132.63 41.3994 132.46 41.0273 132.231 40.7051C132.009 40.377 131.728 40.1191 131.388 39.9316C131.054 39.7441 130.661 39.6504 130.21 39.6504C129.765 39.6504 129.372 39.7441 129.032 39.9316C128.698 40.1191 128.417 40.377 128.188 40.7051C127.966 41.0273 127.799 41.3994 127.688 41.8213C127.576 42.2373 127.521 42.6797 127.521 43.1484Z" fill="#1D1D1D"/>
</svg>
