<svg width="193" height="85" viewBox="0 0 193 85" fill="none" xmlns="http://www.w3.org/2000/svg">
<path d="M33.6609 84.9983L51.8706 64.2787H173.269C184.967 64.2787 191.019 53.079 192.582 47.4791V17.7997C189.05 6.1519 178.235 1.74665 173.269 1H20.4175C5.84975 1.89598 0.736313 12.5731 0.000564575 17.7997V47.4791C2.64925 60.9188 14.7155 64.2787 20.4175 64.2787L33.6609 84.9983Z" fill="white"/>
<path d="M22.2041 16.3369L17.9678 28H16.2363L21.1143 15.2031H22.2305L22.2041 16.3369ZM25.7549 28L21.5098 16.3369L21.4834 15.2031H22.5996L27.4951 28H25.7549ZM25.5352 23.2627V24.6514H18.3457V23.2627H25.5352ZM30.7295 14.5V28H29.0947V14.5H30.7295ZM37.2861 28.1758C36.624 28.1758 36.0234 28.0645 35.4844 27.8418C34.9512 27.6133 34.4912 27.2939 34.1045 26.8838C33.7236 26.4736 33.4307 25.9873 33.2256 25.4248C33.0205 24.8623 32.918 24.2471 32.918 23.5791V23.21C32.918 22.4365 33.0322 21.748 33.2607 21.1445C33.4893 20.5352 33.7998 20.0195 34.1924 19.5977C34.585 19.1758 35.0303 18.8564 35.5283 18.6396C36.0264 18.4229 36.542 18.3145 37.0752 18.3145C37.7549 18.3145 38.3408 18.4316 38.833 18.666C39.3311 18.9004 39.7383 19.2285 40.0547 19.6504C40.3711 20.0664 40.6055 20.5586 40.7578 21.127C40.9102 21.6895 40.9863 22.3047 40.9863 22.9727V23.7021H33.8848V22.375H39.3604V22.252C39.3369 21.8301 39.249 21.4199 39.0967 21.0215C38.9502 20.623 38.7158 20.2949 38.3936 20.0371C38.0713 19.7793 37.6318 19.6504 37.0752 19.6504C36.7061 19.6504 36.3662 19.7295 36.0557 19.8877C35.7451 20.04 35.4785 20.2686 35.2559 20.5732C35.0332 20.8779 34.8604 21.25 34.7373 21.6895C34.6143 22.1289 34.5527 22.6357 34.5527 23.21V23.5791C34.5527 24.0303 34.6143 24.4551 34.7373 24.8535C34.8662 25.2461 35.0508 25.5918 35.291 25.8906C35.5371 26.1895 35.833 26.4238 36.1787 26.5938C36.5303 26.7637 36.9287 26.8486 37.374 26.8486C37.9482 26.8486 38.4346 26.7314 38.833 26.4971C39.2314 26.2627 39.5801 25.9492 39.8789 25.5566L40.8633 26.3389C40.6582 26.6494 40.3975 26.9453 40.0811 27.2266C39.7646 27.5078 39.375 27.7363 38.9121 27.9121C38.4551 28.0879 37.9131 28.1758 37.2861 28.1758ZM43.9834 18.4902L46.0664 21.9531L48.1758 18.4902H50.083L46.9717 23.1836L50.1797 28H48.2988L46.1016 24.4316L43.9043 28H42.0146L45.2139 23.1836L42.1113 18.4902H43.9834ZM57.4219 26.374V21.4785C57.4219 21.1035 57.3457 20.7783 57.1934 20.5029C57.0469 20.2217 56.8242 20.0049 56.5254 19.8525C56.2266 19.7002 55.8574 19.624 55.418 19.624C55.0078 19.624 54.6475 19.6943 54.3369 19.835C54.0322 19.9756 53.792 20.1602 53.6162 20.3887C53.4463 20.6172 53.3613 20.8633 53.3613 21.127H51.7354C51.7354 20.7871 51.8232 20.4502 51.999 20.1162C52.1748 19.7822 52.4268 19.4805 52.7549 19.2109C53.0889 18.9355 53.4873 18.7188 53.9502 18.5605C54.4189 18.3965 54.9404 18.3145 55.5146 18.3145C56.2061 18.3145 56.8154 18.4316 57.3428 18.666C57.876 18.9004 58.292 19.2549 58.5908 19.7295C58.8955 20.1982 59.0479 20.7871 59.0479 21.4961V25.9258C59.0479 26.2422 59.0742 26.5791 59.127 26.9365C59.1855 27.2939 59.2705 27.6016 59.3818 27.8594V28H57.6855C57.6035 27.8125 57.5391 27.5635 57.4922 27.2529C57.4453 26.9365 57.4219 26.6436 57.4219 26.374ZM57.7031 22.2344L57.7207 23.377H56.0771C55.6143 23.377 55.2012 23.415 54.8379 23.4912C54.4746 23.5615 54.1699 23.6699 53.9238 23.8164C53.6777 23.9629 53.4902 24.1475 53.3613 24.3701C53.2324 24.5869 53.168 24.8418 53.168 25.1348C53.168 25.4336 53.2354 25.7061 53.3701 25.9521C53.5049 26.1982 53.707 26.3945 53.9766 26.541C54.252 26.6816 54.5889 26.752 54.9873 26.752C55.4854 26.752 55.9248 26.6465 56.3057 26.4355C56.6865 26.2246 56.9883 25.9668 57.2109 25.6621C57.4395 25.3574 57.5625 25.0615 57.5801 24.7744L58.2744 25.5566C58.2334 25.8027 58.1221 26.0752 57.9404 26.374C57.7588 26.6729 57.5156 26.96 57.2109 27.2354C56.9121 27.5049 56.5547 27.7305 56.1387 27.9121C55.7285 28.0879 55.2656 28.1758 54.75 28.1758C54.1055 28.1758 53.54 28.0498 53.0537 27.7979C52.5732 27.5459 52.1982 27.209 51.9287 26.7871C51.665 26.3594 51.5332 25.8818 51.5332 25.3545C51.5332 24.8447 51.6328 24.3965 51.832 24.0098C52.0312 23.6172 52.3184 23.292 52.6934 23.0342C53.0684 22.7705 53.5195 22.5713 54.0469 22.4365C54.5742 22.3018 55.1631 22.2344 55.8135 22.2344H57.7031ZM71.6777 26.374V21.4785C71.6777 21.1035 71.6016 20.7783 71.4492 20.5029C71.3027 20.2217 71.0801 20.0049 70.7812 19.8525C70.4824 19.7002 70.1133 19.624 69.6738 19.624C69.2637 19.624 68.9033 19.6943 68.5928 19.835C68.2881 19.9756 68.0479 20.1602 67.8721 20.3887C67.7021 20.6172 67.6172 20.8633 67.6172 21.127H65.9912C65.9912 20.7871 66.0791 20.4502 66.2549 20.1162C66.4307 19.7822 66.6826 19.4805 67.0107 19.2109C67.3447 18.9355 67.7432 18.7188 68.2061 18.5605C68.6748 18.3965 69.1963 18.3145 69.7705 18.3145C70.4619 18.3145 71.0713 18.4316 71.5986 18.666C72.1318 18.9004 72.5479 19.2549 72.8467 19.7295C73.1514 20.1982 73.3037 20.7871 73.3037 21.4961V25.9258C73.3037 26.2422 73.3301 26.5791 73.3828 26.9365C73.4414 27.2939 73.5264 27.6016 73.6377 27.8594V28H71.9414C71.8594 27.8125 71.7949 27.5635 71.748 27.2529C71.7012 26.9365 71.6777 26.6436 71.6777 26.374ZM71.959 22.2344L71.9766 23.377H70.333C69.8701 23.377 69.457 23.415 69.0938 23.4912C68.7305 23.5615 68.4258 23.6699 68.1797 23.8164C67.9336 23.9629 67.7461 24.1475 67.6172 24.3701C67.4883 24.5869 67.4238 24.8418 67.4238 25.1348C67.4238 25.4336 67.4912 25.7061 67.626 25.9521C67.7607 26.1982 67.9629 26.3945 68.2324 26.541C68.5078 26.6816 68.8447 26.752 69.2432 26.752C69.7412 26.752 70.1807 26.6465 70.5615 26.4355C70.9424 26.2246 71.2441 25.9668 71.4668 25.6621C71.6953 25.3574 71.8184 25.0615 71.8359 24.7744L72.5303 25.5566C72.4893 25.8027 72.3779 26.0752 72.1963 26.374C72.0146 26.6729 71.7715 26.96 71.4668 27.2354C71.168 27.5049 70.8105 27.7305 70.3945 27.9121C69.9844 28.0879 69.5215 28.1758 69.0059 28.1758C68.3613 28.1758 67.7959 28.0498 67.3096 27.7979C66.8291 27.5459 66.4541 27.209 66.1846 26.7871C65.9209 26.3594 65.7891 25.8818 65.7891 25.3545C65.7891 24.8447 65.8887 24.3965 66.0879 24.0098C66.2871 23.6172 66.5742 23.292 66.9492 23.0342C67.3242 22.7705 67.7754 22.5713 68.3027 22.4365C68.8301 22.3018 69.4189 22.2344 70.0693 22.2344H71.959ZM69.0498 17.084L70.7549 14.5H72.7148L70.3594 17.084H69.0498ZM75.8525 14.5H77.4873V26.1543L77.3467 28H75.8525V14.5ZM83.9121 23.166V23.3506C83.9121 24.042 83.8301 24.6836 83.666 25.2754C83.502 25.8613 83.2617 26.3711 82.9453 26.8047C82.6289 27.2383 82.2422 27.5752 81.7852 27.8154C81.3281 28.0557 80.8037 28.1758 80.2119 28.1758C79.6084 28.1758 79.0781 28.0732 78.6211 27.8682C78.1699 27.6572 77.7891 27.3555 77.4785 26.9629C77.168 26.5703 76.9189 26.0957 76.7314 25.5391C76.5498 24.9824 76.4238 24.3555 76.3535 23.6582V22.8496C76.4238 22.1465 76.5498 21.5166 76.7314 20.96C76.9189 20.4033 77.168 19.9287 77.4785 19.5361C77.7891 19.1377 78.1699 18.8359 78.6211 18.6309C79.0723 18.4199 79.5967 18.3145 80.1943 18.3145C80.792 18.3145 81.3223 18.4316 81.7852 18.666C82.248 18.8945 82.6348 19.2227 82.9453 19.6504C83.2617 20.0781 83.502 20.5908 83.666 21.1885C83.8301 21.7803 83.9121 22.4395 83.9121 23.166ZM82.2773 23.3506V23.166C82.2773 22.6914 82.2334 22.2461 82.1455 21.8301C82.0576 21.4082 81.917 21.0391 81.7236 20.7227C81.5303 20.4004 81.2754 20.1484 80.959 19.9668C80.6426 19.7793 80.2529 19.6855 79.79 19.6855C79.3799 19.6855 79.0225 19.7559 78.7178 19.8965C78.4189 20.0371 78.1641 20.2275 77.9531 20.4678C77.7422 20.7021 77.5693 20.9717 77.4346 21.2764C77.3057 21.5752 77.209 21.8857 77.1445 22.208V24.3262C77.2383 24.7363 77.3906 25.1318 77.6016 25.5127C77.8184 25.8877 78.1055 26.1953 78.4629 26.4355C78.8262 26.6758 79.2744 26.7959 79.8076 26.7959C80.2471 26.7959 80.6221 26.708 80.9326 26.5322C81.249 26.3506 81.5039 26.1016 81.6973 25.7852C81.8965 25.4688 82.043 25.1025 82.1367 24.6865C82.2305 24.2705 82.2773 23.8252 82.2773 23.3506ZM87.5947 19.9844V28H85.9688V18.4902H87.5508L87.5947 19.9844ZM90.5654 18.4375L90.5566 19.9492C90.4219 19.9199 90.293 19.9023 90.1699 19.8965C90.0527 19.8848 89.918 19.8789 89.7656 19.8789C89.3906 19.8789 89.0596 19.9375 88.7725 20.0547C88.4854 20.1719 88.2422 20.3359 88.043 20.5469C87.8438 20.7578 87.6855 21.0098 87.5684 21.3027C87.457 21.5898 87.3838 21.9062 87.3486 22.252L86.8916 22.5156C86.8916 21.9414 86.9473 21.4023 87.0586 20.8984C87.1758 20.3945 87.3545 19.9492 87.5947 19.5625C87.835 19.1699 88.1396 18.8652 88.5088 18.6484C88.8838 18.4258 89.3291 18.3145 89.8447 18.3145C89.9619 18.3145 90.0967 18.3291 90.249 18.3584C90.4014 18.3818 90.5068 18.4082 90.5654 18.4375ZM95.8389 28.1758C95.1768 28.1758 94.5762 28.0645 94.0371 27.8418C93.5039 27.6133 93.0439 27.2939 92.6572 26.8838C92.2764 26.4736 91.9834 25.9873 91.7783 25.4248C91.5732 24.8623 91.4707 24.2471 91.4707 23.5791V23.21C91.4707 22.4365 91.585 21.748 91.8135 21.1445C92.042 20.5352 92.3525 20.0195 92.7451 19.5977C93.1377 19.1758 93.583 18.8564 94.0811 18.6396C94.5791 18.4229 95.0947 18.3145 95.6279 18.3145C96.3076 18.3145 96.8936 18.4316 97.3857 18.666C97.8838 18.9004 98.291 19.2285 98.6074 19.6504C98.9238 20.0664 99.1582 20.5586 99.3105 21.127C99.4629 21.6895 99.5391 22.3047 99.5391 22.9727V23.7021H92.4375V22.375H97.9131V22.252C97.8896 21.8301 97.8018 21.4199 97.6494 21.0215C97.5029 20.623 97.2686 20.2949 96.9463 20.0371C96.624 19.7793 96.1846 19.6504 95.6279 19.6504C95.2588 19.6504 94.9189 19.7295 94.6084 19.8877C94.2979 20.04 94.0312 20.2686 93.8086 20.5732C93.5859 20.8779 93.4131 21.25 93.29 21.6895C93.167 22.1289 93.1055 22.6357 93.1055 23.21V23.5791C93.1055 24.0303 93.167 24.4551 93.29 24.8535C93.4189 25.2461 93.6035 25.5918 93.8438 25.8906C94.0898 26.1895 94.3857 26.4238 94.7314 26.5938C95.083 26.7637 95.4814 26.8486 95.9268 26.8486C96.501 26.8486 96.9873 26.7314 97.3857 26.4971C97.7842 26.2627 98.1328 25.9492 98.4316 25.5566L99.416 26.3389C99.2109 26.6494 98.9502 26.9453 98.6338 27.2266C98.3174 27.5078 97.9277 27.7363 97.4648 27.9121C97.0078 28.0879 96.4658 28.1758 95.8389 28.1758ZM107.669 14.5V28H106.034V14.5H107.669ZM115.887 26.374V21.4785C115.887 21.1035 115.811 20.7783 115.658 20.5029C115.512 20.2217 115.289 20.0049 114.99 19.8525C114.691 19.7002 114.322 19.624 113.883 19.624C113.473 19.624 113.112 19.6943 112.802 19.835C112.497 19.9756 112.257 20.1602 112.081 20.3887C111.911 20.6172 111.826 20.8633 111.826 21.127H110.2C110.2 20.7871 110.288 20.4502 110.464 20.1162C110.64 19.7822 110.892 19.4805 111.22 19.2109C111.554 18.9355 111.952 18.7188 112.415 18.5605C112.884 18.3965 113.405 18.3145 113.979 18.3145C114.671 18.3145 115.28 18.4316 115.808 18.666C116.341 18.9004 116.757 19.2549 117.056 19.7295C117.36 20.1982 117.513 20.7871 117.513 21.4961V25.9258C117.513 26.2422 117.539 26.5791 117.592 26.9365C117.65 27.2939 117.735 27.6016 117.847 27.8594V28H116.15C116.068 27.8125 116.004 27.5635 115.957 27.2529C115.91 26.9365 115.887 26.6436 115.887 26.374ZM116.168 22.2344L116.186 23.377H114.542C114.079 23.377 113.666 23.415 113.303 23.4912C112.939 23.5615 112.635 23.6699 112.389 23.8164C112.143 23.9629 111.955 24.1475 111.826 24.3701C111.697 24.5869 111.633 24.8418 111.633 25.1348C111.633 25.4336 111.7 25.7061 111.835 25.9521C111.97 26.1982 112.172 26.3945 112.441 26.541C112.717 26.6816 113.054 26.752 113.452 26.752C113.95 26.752 114.39 26.6465 114.771 26.4355C115.151 26.2246 115.453 25.9668 115.676 25.6621C115.904 25.3574 116.027 25.0615 116.045 24.7744L116.739 25.5566C116.698 25.8027 116.587 26.0752 116.405 26.374C116.224 26.6729 115.98 26.96 115.676 27.2354C115.377 27.5049 115.02 27.7305 114.604 27.9121C114.193 28.0879 113.73 28.1758 113.215 28.1758C112.57 28.1758 112.005 28.0498 111.519 27.7979C111.038 27.5459 110.663 27.209 110.394 26.7871C110.13 26.3594 109.998 25.8818 109.998 25.3545C109.998 24.8447 110.098 24.3965 110.297 24.0098C110.496 23.6172 110.783 23.292 111.158 23.0342C111.533 22.7705 111.984 22.5713 112.512 22.4365C113.039 22.3018 113.628 22.2344 114.278 22.2344H116.168ZM130.072 25.4775C130.072 25.2432 130.02 25.0264 129.914 24.8271C129.814 24.6221 129.606 24.4375 129.29 24.2734C128.979 24.1035 128.511 23.957 127.884 23.834C127.356 23.7227 126.879 23.5908 126.451 23.4385C126.029 23.2861 125.669 23.1016 125.37 22.8848C125.077 22.668 124.852 22.4131 124.693 22.1201C124.535 21.8271 124.456 21.4844 124.456 21.0918C124.456 20.7168 124.538 20.3623 124.702 20.0283C124.872 19.6943 125.109 19.3984 125.414 19.1406C125.725 18.8828 126.097 18.6807 126.53 18.5342C126.964 18.3877 127.447 18.3145 127.98 18.3145C128.742 18.3145 129.393 18.4492 129.932 18.7188C130.471 18.9883 130.884 19.3486 131.171 19.7998C131.458 20.2451 131.602 20.7402 131.602 21.2852H129.976C129.976 21.0215 129.896 20.7666 129.738 20.5205C129.586 20.2686 129.36 20.0605 129.062 19.8965C128.769 19.7324 128.408 19.6504 127.98 19.6504C127.529 19.6504 127.163 19.7207 126.882 19.8613C126.606 19.9961 126.404 20.1689 126.275 20.3799C126.152 20.5908 126.091 20.8135 126.091 21.0479C126.091 21.2236 126.12 21.3818 126.179 21.5225C126.243 21.6572 126.354 21.7832 126.513 21.9004C126.671 22.0117 126.894 22.1172 127.181 22.2168C127.468 22.3164 127.834 22.416 128.279 22.5156C129.059 22.6914 129.7 22.9023 130.204 23.1484C130.708 23.3945 131.083 23.6963 131.329 24.0537C131.575 24.4111 131.698 24.8447 131.698 25.3545C131.698 25.7705 131.61 26.1514 131.435 26.4971C131.265 26.8428 131.016 27.1416 130.688 27.3936C130.365 27.6396 129.979 27.833 129.527 27.9736C129.082 28.1084 128.581 28.1758 128.024 28.1758C127.187 28.1758 126.478 28.0264 125.897 27.7275C125.317 27.4287 124.878 27.042 124.579 26.5674C124.28 26.0928 124.131 25.5918 124.131 25.0645H125.766C125.789 25.5098 125.918 25.8643 126.152 26.1279C126.387 26.3857 126.674 26.5703 127.014 26.6816C127.354 26.7871 127.69 26.8398 128.024 26.8398C128.47 26.8398 128.842 26.7812 129.141 26.6641C129.445 26.5469 129.677 26.3857 129.835 26.1807C129.993 25.9756 130.072 25.7412 130.072 25.4775ZM135.469 14.5V28H133.834V14.5H135.469ZM141.278 18.4902L137.13 22.9287L134.81 25.3369L134.678 23.6055L136.339 21.6191L139.292 18.4902H141.278ZM139.793 28L136.4 23.4648L137.244 22.0146L141.709 28H139.793ZM144.724 18.4902V28H143.089V18.4902H144.724ZM142.966 15.9678C142.966 15.7041 143.045 15.4814 143.203 15.2998C143.367 15.1182 143.607 15.0273 143.924 15.0273C144.234 15.0273 144.472 15.1182 144.636 15.2998C144.806 15.4814 144.891 15.7041 144.891 15.9678C144.891 16.2197 144.806 16.4365 144.636 16.6182C144.472 16.7939 144.234 16.8818 143.924 16.8818C143.607 16.8818 143.367 16.7939 143.203 16.6182C143.045 16.4365 142.966 16.2197 142.966 15.9678ZM149.101 14.5V28H147.466V14.5H149.101ZM153.478 14.5V28H151.843V14.5H153.478ZM166.547 26.1543V14.5H168.182V28H166.688L166.547 26.1543ZM160.148 23.3506V23.166C160.148 22.4395 160.236 21.7803 160.412 21.1885C160.594 20.5908 160.849 20.0781 161.177 19.6504C161.511 19.2227 161.906 18.8945 162.363 18.666C162.826 18.4316 163.342 18.3145 163.91 18.3145C164.508 18.3145 165.029 18.4199 165.475 18.6309C165.926 18.8359 166.307 19.1377 166.617 19.5361C166.934 19.9287 167.183 20.4033 167.364 20.96C167.546 21.5166 167.672 22.1465 167.742 22.8496V23.6582C167.678 24.3555 167.552 24.9824 167.364 25.5391C167.183 26.0957 166.934 26.5703 166.617 26.9629C166.307 27.3555 165.926 27.6572 165.475 27.8682C165.023 28.0732 164.496 28.1758 163.893 28.1758C163.336 28.1758 162.826 28.0557 162.363 27.8154C161.906 27.5752 161.511 27.2383 161.177 26.8047C160.849 26.3711 160.594 25.8613 160.412 25.2754C160.236 24.6836 160.148 24.042 160.148 23.3506ZM161.783 23.166V23.3506C161.783 23.8252 161.83 24.2705 161.924 24.6865C162.023 25.1025 162.176 25.4688 162.381 25.7852C162.586 26.1016 162.847 26.3506 163.163 26.5322C163.479 26.708 163.857 26.7959 164.297 26.7959C164.836 26.7959 165.278 26.6816 165.624 26.4531C165.976 26.2246 166.257 25.9229 166.468 25.5479C166.679 25.1729 166.843 24.7656 166.96 24.3262V22.208C166.89 21.8857 166.787 21.5752 166.652 21.2764C166.523 20.9717 166.354 20.7021 166.143 20.4678C165.938 20.2275 165.683 20.0371 165.378 19.8965C165.079 19.7559 164.725 19.6855 164.314 19.6855C163.869 19.6855 163.485 19.7793 163.163 19.9668C162.847 20.1484 162.586 20.4004 162.381 20.7227C162.176 21.0391 162.023 21.4082 161.924 21.8301C161.83 22.2461 161.783 22.6914 161.783 23.166ZM174.659 28.1758C173.997 28.1758 173.396 28.0645 172.857 27.8418C172.324 27.6133 171.864 27.2939 171.478 26.8838C171.097 26.4736 170.804 25.9873 170.599 25.4248C170.394 24.8623 170.291 24.2471 170.291 23.5791V23.21C170.291 22.4365 170.405 21.748 170.634 21.1445C170.862 20.5352 171.173 20.0195 171.565 19.5977C171.958 19.1758 172.403 18.8564 172.901 18.6396C173.399 18.4229 173.915 18.3145 174.448 18.3145C175.128 18.3145 175.714 18.4316 176.206 18.666C176.704 18.9004 177.111 19.2285 177.428 19.6504C177.744 20.0664 177.979 20.5586 178.131 21.127C178.283 21.6895 178.359 22.3047 178.359 22.9727V23.7021H171.258V22.375H176.733V22.252C176.71 21.8301 176.622 21.4199 176.47 21.0215C176.323 20.623 176.089 20.2949 175.767 20.0371C175.444 19.7793 175.005 19.6504 174.448 19.6504C174.079 19.6504 173.739 19.7295 173.429 19.8877C173.118 20.04 172.852 20.2686 172.629 20.5732C172.406 20.8779 172.233 21.25 172.11 21.6895C171.987 22.1289 171.926 22.6357 171.926 23.21V23.5791C171.926 24.0303 171.987 24.4551 172.11 24.8535C172.239 25.2461 172.424 25.5918 172.664 25.8906C172.91 26.1895 173.206 26.4238 173.552 26.5938C173.903 26.7637 174.302 26.8486 174.747 26.8486C175.321 26.8486 175.808 26.7314 176.206 26.4971C176.604 26.2627 176.953 25.9492 177.252 25.5566L178.236 26.3389C178.031 26.6494 177.771 26.9453 177.454 27.2266C177.138 27.5078 176.748 27.7363 176.285 27.9121C175.828 28.0879 175.286 28.1758 174.659 28.1758Z" fill="#1D1D1D"/>
<path d="M34.2012 35.5V36.4668L34.0166 39.7012H32.8828L32.8916 36.6162V35.5H34.2012ZM39.7734 49.1758C39.1113 49.1758 38.5107 49.0645 37.9717 48.8418C37.4385 48.6133 36.9785 48.2939 36.5918 47.8838C36.2109 47.4736 35.918 46.9873 35.7129 46.4248C35.5078 45.8623 35.4053 45.2471 35.4053 44.5791V44.21C35.4053 43.4365 35.5195 42.748 35.748 42.1445C35.9766 41.5352 36.2871 41.0195 36.6797 40.5977C37.0723 40.1758 37.5176 39.8564 38.0156 39.6396C38.5137 39.4229 39.0293 39.3145 39.5625 39.3145C40.2422 39.3145 40.8281 39.4316 41.3203 39.666C41.8184 39.9004 42.2256 40.2285 42.542 40.6504C42.8584 41.0664 43.0928 41.5586 43.2451 42.127C43.3975 42.6895 43.4736 43.3047 43.4736 43.9727V44.7021H36.3721V43.375H41.8477V43.252C41.8242 42.8301 41.7363 42.4199 41.584 42.0215C41.4375 41.623 41.2031 41.2949 40.8809 41.0371C40.5586 40.7793 40.1191 40.6504 39.5625 40.6504C39.1934 40.6504 38.8535 40.7295 38.543 40.8877C38.2324 41.04 37.9658 41.2686 37.7432 41.5732C37.5205 41.8779 37.3477 42.25 37.2246 42.6895C37.1016 43.1289 37.04 43.6357 37.04 44.21V44.5791C37.04 45.0303 37.1016 45.4551 37.2246 45.8535C37.3535 46.2461 37.5381 46.5918 37.7783 46.8906C38.0244 47.1895 38.3203 47.4238 38.666 47.5938C39.0176 47.7637 39.416 47.8486 39.8613 47.8486C40.4355 47.8486 40.9219 47.7314 41.3203 47.4971C41.7188 47.2627 42.0674 46.9492 42.3662 46.5566L43.3506 47.3389C43.1455 47.6494 42.8848 47.9453 42.5684 48.2266C42.252 48.5078 41.8623 48.7363 41.3994 48.9121C40.9424 49.0879 40.4004 49.1758 39.7734 49.1758ZM46.4707 39.4902L48.5537 42.9531L50.6631 39.4902H52.5703L49.459 44.1836L52.667 49H50.7861L48.5889 45.4316L46.3916 49H44.502L47.7012 44.1836L44.5986 39.4902H46.4707ZM59.9092 47.374V42.4785C59.9092 42.1035 59.833 41.7783 59.6807 41.5029C59.5342 41.2217 59.3115 41.0049 59.0127 40.8525C58.7139 40.7002 58.3447 40.624 57.9053 40.624C57.4951 40.624 57.1348 40.6943 56.8242 40.835C56.5195 40.9756 56.2793 41.1602 56.1035 41.3887C55.9336 41.6172 55.8486 41.8633 55.8486 42.127H54.2227C54.2227 41.7871 54.3105 41.4502 54.4863 41.1162C54.6621 40.7822 54.9141 40.4805 55.2422 40.2109C55.5762 39.9355 55.9746 39.7188 56.4375 39.5605C56.9062 39.3965 57.4277 39.3145 58.002 39.3145C58.6934 39.3145 59.3027 39.4316 59.8301 39.666C60.3633 39.9004 60.7793 40.2549 61.0781 40.7295C61.3828 41.1982 61.5352 41.7871 61.5352 42.4961V46.9258C61.5352 47.2422 61.5615 47.5791 61.6143 47.9365C61.6729 48.2939 61.7578 48.6016 61.8691 48.8594V49H60.1729C60.0908 48.8125 60.0264 48.5635 59.9795 48.2529C59.9326 47.9365 59.9092 47.6436 59.9092 47.374ZM60.1904 43.2344L60.208 44.377H58.5645C58.1016 44.377 57.6885 44.415 57.3252 44.4912C56.9619 44.5615 56.6572 44.6699 56.4111 44.8164C56.165 44.9629 55.9775 45.1475 55.8486 45.3701C55.7197 45.5869 55.6553 45.8418 55.6553 46.1348C55.6553 46.4336 55.7227 46.7061 55.8574 46.9521C55.9922 47.1982 56.1943 47.3945 56.4639 47.541C56.7393 47.6816 57.0762 47.752 57.4746 47.752C57.9727 47.752 58.4121 47.6465 58.793 47.4355C59.1738 47.2246 59.4756 46.9668 59.6982 46.6621C59.9268 46.3574 60.0498 46.0615 60.0674 45.7744L60.7617 46.5566C60.7207 46.8027 60.6094 47.0752 60.4277 47.374C60.2461 47.6729 60.0029 47.96 59.6982 48.2354C59.3994 48.5049 59.042 48.7305 58.626 48.9121C58.2158 49.0879 57.7529 49.1758 57.2373 49.1758C56.5928 49.1758 56.0273 49.0498 55.541 48.7979C55.0605 48.5459 54.6855 48.209 54.416 47.7871C54.1523 47.3594 54.0205 46.8818 54.0205 46.3545C54.0205 45.8447 54.1201 45.3965 54.3193 45.0098C54.5186 44.6172 54.8057 44.292 55.1807 44.0342C55.5557 43.7705 56.0068 43.5713 56.5342 43.4365C57.0615 43.3018 57.6504 43.2344 58.3008 43.2344H60.1904ZM65.71 41.3799V49H64.0752V39.4902H65.6221L65.71 41.3799ZM65.376 43.8848L64.6201 43.8584C64.626 43.208 64.7109 42.6074 64.875 42.0566C65.0391 41.5 65.2822 41.0166 65.6045 40.6064C65.9268 40.1963 66.3281 39.8799 66.8086 39.6572C67.2891 39.4287 67.8457 39.3145 68.4785 39.3145C68.9238 39.3145 69.334 39.3789 69.709 39.5078C70.084 39.6309 70.4092 39.8271 70.6846 40.0967C70.96 40.3662 71.1738 40.7119 71.3262 41.1338C71.4785 41.5557 71.5547 42.0654 71.5547 42.6631V49H69.9287V42.7422C69.9287 42.2441 69.8438 41.8457 69.6738 41.5469C69.5098 41.248 69.2754 41.0312 68.9707 40.8965C68.666 40.7559 68.3086 40.6855 67.8984 40.6855C67.418 40.6855 67.0166 40.7705 66.6943 40.9404C66.3721 41.1104 66.1143 41.3447 65.9209 41.6436C65.7275 41.9424 65.5869 42.2852 65.499 42.6719C65.417 43.0527 65.376 43.457 65.376 43.8848ZM71.5371 42.9883L70.4473 43.3223C70.4531 42.8008 70.5381 42.2998 70.7021 41.8193C70.8721 41.3389 71.1152 40.9111 71.4316 40.5361C71.7539 40.1611 72.1494 39.8652 72.6182 39.6484C73.0869 39.4258 73.623 39.3145 74.2266 39.3145C74.7363 39.3145 75.1875 39.3818 75.5801 39.5166C75.9785 39.6514 76.3125 39.8594 76.582 40.1406C76.8574 40.416 77.0654 40.7705 77.2061 41.2041C77.3467 41.6377 77.417 42.1533 77.417 42.751V49H75.7822V42.7334C75.7822 42.2002 75.6973 41.7871 75.5273 41.4941C75.3633 41.1953 75.1289 40.9873 74.8242 40.8701C74.5254 40.7471 74.168 40.6855 73.752 40.6855C73.3945 40.6855 73.0781 40.7471 72.8027 40.8701C72.5273 40.9932 72.2959 41.1631 72.1084 41.3799C71.9209 41.5908 71.7773 41.834 71.6777 42.1094C71.584 42.3848 71.5371 42.6777 71.5371 42.9883ZM83.8242 49.1758C83.1621 49.1758 82.5615 49.0645 82.0225 48.8418C81.4893 48.6133 81.0293 48.2939 80.6426 47.8838C80.2617 47.4736 79.9688 46.9873 79.7637 46.4248C79.5586 45.8623 79.4561 45.2471 79.4561 44.5791V44.21C79.4561 43.4365 79.5703 42.748 79.7988 42.1445C80.0273 41.5352 80.3379 41.0195 80.7305 40.5977C81.123 40.1758 81.5684 39.8564 82.0664 39.6396C82.5645 39.4229 83.0801 39.3145 83.6133 39.3145C84.293 39.3145 84.8789 39.4316 85.3711 39.666C85.8691 39.9004 86.2764 40.2285 86.5928 40.6504C86.9092 41.0664 87.1436 41.5586 87.2959 42.127C87.4482 42.6895 87.5244 43.3047 87.5244 43.9727V44.7021H80.4229V43.375H85.8984V43.252C85.875 42.8301 85.7871 42.4199 85.6348 42.0215C85.4883 41.623 85.2539 41.2949 84.9316 41.0371C84.6094 40.7793 84.1699 40.6504 83.6133 40.6504C83.2441 40.6504 82.9043 40.7295 82.5938 40.8877C82.2832 41.04 82.0166 41.2686 81.7939 41.5732C81.5713 41.8779 81.3984 42.25 81.2754 42.6895C81.1523 43.1289 81.0908 43.6357 81.0908 44.21V44.5791C81.0908 45.0303 81.1523 45.4551 81.2754 45.8535C81.4043 46.2461 81.5889 46.5918 81.8291 46.8906C82.0752 47.1895 82.3711 47.4238 82.7168 47.5938C83.0684 47.7637 83.4668 47.8486 83.9121 47.8486C84.4863 47.8486 84.9727 47.7314 85.3711 47.4971C85.7695 47.2627 86.1182 46.9492 86.417 46.5566L87.4014 47.3389C87.1963 47.6494 86.9355 47.9453 86.6191 48.2266C86.3027 48.5078 85.9131 48.7363 85.4502 48.9121C84.9932 49.0879 84.4512 49.1758 83.8242 49.1758ZM91.0488 41.5205V49H89.4229V39.4902H90.9609L91.0488 41.5205ZM90.6621 43.8848L89.9854 43.8584C89.9912 43.208 90.0879 42.6074 90.2754 42.0566C90.4629 41.5 90.7266 41.0166 91.0664 40.6064C91.4062 40.1963 91.8105 39.8799 92.2793 39.6572C92.7539 39.4287 93.2783 39.3145 93.8525 39.3145C94.3213 39.3145 94.7432 39.3789 95.1182 39.5078C95.4932 39.6309 95.8125 39.8301 96.0762 40.1055C96.3457 40.3809 96.5508 40.7383 96.6914 41.1777C96.832 41.6113 96.9023 42.1416 96.9023 42.7686V49H95.2676V42.751C95.2676 42.2529 95.1943 41.8545 95.0479 41.5557C94.9014 41.251 94.6875 41.0312 94.4062 40.8965C94.125 40.7559 93.7793 40.6855 93.3691 40.6855C92.9648 40.6855 92.5957 40.7705 92.2617 40.9404C91.9336 41.1104 91.6494 41.3447 91.4092 41.6436C91.1748 41.9424 90.9902 42.2852 90.8555 42.6719C90.7266 43.0527 90.6621 43.457 90.6621 43.8848ZM107.783 49.1758C107.121 49.1758 106.521 49.0645 105.981 48.8418C105.448 48.6133 104.988 48.2939 104.602 47.8838C104.221 47.4736 103.928 46.9873 103.723 46.4248C103.518 45.8623 103.415 45.2471 103.415 44.5791V44.21C103.415 43.4365 103.529 42.748 103.758 42.1445C103.986 41.5352 104.297 41.0195 104.689 40.5977C105.082 40.1758 105.527 39.8564 106.025 39.6396C106.523 39.4229 107.039 39.3145 107.572 39.3145C108.252 39.3145 108.838 39.4316 109.33 39.666C109.828 39.9004 110.235 40.2285 110.552 40.6504C110.868 41.0664 111.103 41.5586 111.255 42.127C111.407 42.6895 111.483 43.3047 111.483 43.9727V44.7021H104.382V43.375H109.857V43.252C109.834 42.8301 109.746 42.4199 109.594 42.0215C109.447 41.623 109.213 41.2949 108.891 41.0371C108.568 40.7793 108.129 40.6504 107.572 40.6504C107.203 40.6504 106.863 40.7295 106.553 40.8877C106.242 41.04 105.976 41.2686 105.753 41.5732C105.53 41.8779 105.357 42.25 105.234 42.6895C105.111 43.1289 105.05 43.6357 105.05 44.21V44.5791C105.05 45.0303 105.111 45.4551 105.234 45.8535C105.363 46.2461 105.548 46.5918 105.788 46.8906C106.034 47.1895 106.33 47.4238 106.676 47.5938C107.027 47.7637 107.426 47.8486 107.871 47.8486C108.445 47.8486 108.932 47.7314 109.33 47.4971C109.729 47.2627 110.077 46.9492 110.376 46.5566L111.36 47.3389C111.155 47.6494 110.895 47.9453 110.578 48.2266C110.262 48.5078 109.872 48.7363 109.409 48.9121C108.952 49.0879 108.41 49.1758 107.783 49.1758ZM114.48 39.4902L116.563 42.9531L118.673 39.4902H120.58L117.469 44.1836L120.677 49H118.796L116.599 45.4316L114.401 49H112.512L115.711 44.1836L112.608 39.4902H114.48ZM125.941 47.8398C126.328 47.8398 126.686 47.7607 127.014 47.6025C127.342 47.4443 127.611 47.2275 127.822 46.9521C128.033 46.6709 128.153 46.3516 128.183 45.9941H129.729C129.7 46.5566 129.51 47.0811 129.158 47.5674C128.812 48.0479 128.358 48.4375 127.796 48.7363C127.233 49.0293 126.615 49.1758 125.941 49.1758C125.227 49.1758 124.603 49.0498 124.069 48.7979C123.542 48.5459 123.103 48.2002 122.751 47.7607C122.405 47.3213 122.145 46.8174 121.969 46.249C121.799 45.6748 121.714 45.0684 121.714 44.4297V44.0605C121.714 43.4219 121.799 42.8184 121.969 42.25C122.145 41.6758 122.405 41.1689 122.751 40.7295C123.103 40.29 123.542 39.9443 124.069 39.6924C124.603 39.4404 125.227 39.3145 125.941 39.3145C126.686 39.3145 127.336 39.4668 127.893 39.7715C128.449 40.0703 128.886 40.4805 129.202 41.002C129.524 41.5176 129.7 42.1035 129.729 42.7598H128.183C128.153 42.3672 128.042 42.0127 127.849 41.6963C127.661 41.3799 127.403 41.1279 127.075 40.9404C126.753 40.7471 126.375 40.6504 125.941 40.6504C125.443 40.6504 125.024 40.75 124.685 40.9492C124.351 41.1426 124.084 41.4062 123.885 41.7402C123.691 42.0684 123.551 42.4346 123.463 42.8389C123.381 43.2373 123.34 43.6445 123.34 44.0605V44.4297C123.34 44.8457 123.381 45.2559 123.463 45.6602C123.545 46.0645 123.683 46.4307 123.876 46.7588C124.075 47.0869 124.342 47.3506 124.676 47.5498C125.016 47.7432 125.438 47.8398 125.941 47.8398ZM131.127 44.3506V44.1484C131.127 43.4629 131.227 42.8271 131.426 42.2412C131.625 41.6494 131.912 41.1367 132.287 40.7031C132.662 40.2637 133.116 39.9238 133.649 39.6836C134.183 39.4375 134.78 39.3145 135.442 39.3145C136.11 39.3145 136.711 39.4375 137.244 39.6836C137.783 39.9238 138.24 40.2637 138.615 40.7031C138.996 41.1367 139.286 41.6494 139.485 42.2412C139.685 42.8271 139.784 43.4629 139.784 44.1484V44.3506C139.784 45.0361 139.685 45.6719 139.485 46.2578C139.286 46.8438 138.996 47.3564 138.615 47.7959C138.24 48.2295 137.786 48.5693 137.253 48.8154C136.726 49.0557 136.128 49.1758 135.46 49.1758C134.792 49.1758 134.191 49.0557 133.658 48.8154C133.125 48.5693 132.668 48.2295 132.287 47.7959C131.912 47.3564 131.625 46.8438 131.426 46.2578C131.227 45.6719 131.127 45.0361 131.127 44.3506ZM132.753 44.1484V44.3506C132.753 44.8252 132.809 45.2734 132.92 45.6953C133.031 46.1113 133.198 46.4805 133.421 46.8027C133.649 47.125 133.934 47.3799 134.273 47.5674C134.613 47.749 135.009 47.8398 135.46 47.8398C135.905 47.8398 136.295 47.749 136.629 47.5674C136.969 47.3799 137.25 47.125 137.473 46.8027C137.695 46.4805 137.862 46.1113 137.974 45.6953C138.091 45.2734 138.149 44.8252 138.149 44.3506V44.1484C138.149 43.6797 138.091 43.2373 137.974 42.8213C137.862 42.3994 137.692 42.0273 137.464 41.7051C137.241 41.377 136.96 41.1191 136.62 40.9316C136.286 40.7441 135.894 40.6504 135.442 40.6504C134.997 40.6504 134.604 40.7441 134.265 40.9316C133.931 41.1191 133.649 41.377 133.421 41.7051C133.198 42.0273 133.031 42.3994 132.92 42.8213C132.809 43.2373 132.753 43.6797 132.753 44.1484ZM141.814 35.5H143.449V47.1543L143.309 49H141.814V35.5ZM149.874 44.166V44.3506C149.874 45.042 149.792 45.6836 149.628 46.2754C149.464 46.8613 149.224 47.3711 148.907 47.8047C148.591 48.2383 148.204 48.5752 147.747 48.8154C147.29 49.0557 146.766 49.1758 146.174 49.1758C145.57 49.1758 145.04 49.0732 144.583 48.8682C144.132 48.6572 143.751 48.3555 143.44 47.9629C143.13 47.5703 142.881 47.0957 142.693 46.5391C142.512 45.9824 142.386 45.3555 142.315 44.6582V43.8496C142.386 43.1465 142.512 42.5166 142.693 41.96C142.881 41.4033 143.13 40.9287 143.44 40.5361C143.751 40.1377 144.132 39.8359 144.583 39.6309C145.034 39.4199 145.559 39.3145 146.156 39.3145C146.754 39.3145 147.284 39.4316 147.747 39.666C148.21 39.8945 148.597 40.2227 148.907 40.6504C149.224 41.0781 149.464 41.5908 149.628 42.1885C149.792 42.7803 149.874 43.4395 149.874 44.166ZM148.239 44.3506V44.166C148.239 43.6914 148.195 43.2461 148.107 42.8301C148.02 42.4082 147.879 42.0391 147.686 41.7227C147.492 41.4004 147.237 41.1484 146.921 40.9668C146.604 40.7793 146.215 40.6855 145.752 40.6855C145.342 40.6855 144.984 40.7559 144.68 40.8965C144.381 41.0371 144.126 41.2275 143.915 41.4678C143.704 41.7021 143.531 41.9717 143.396 42.2764C143.268 42.5752 143.171 42.8857 143.106 43.208V45.3262C143.2 45.7363 143.353 46.1318 143.563 46.5127C143.78 46.8877 144.067 47.1953 144.425 47.4355C144.788 47.6758 145.236 47.7959 145.77 47.7959C146.209 47.7959 146.584 47.708 146.895 47.5322C147.211 47.3506 147.466 47.1016 147.659 46.7852C147.858 46.4688 148.005 46.1025 148.099 45.6865C148.192 45.2705 148.239 44.8252 148.239 44.3506ZM157.538 47.374V42.4785C157.538 42.1035 157.462 41.7783 157.31 41.5029C157.163 41.2217 156.94 41.0049 156.642 40.8525C156.343 40.7002 155.974 40.624 155.534 40.624C155.124 40.624 154.764 40.6943 154.453 40.835C154.148 40.9756 153.908 41.1602 153.732 41.3887C153.562 41.6172 153.478 41.8633 153.478 42.127H151.852C151.852 41.7871 151.939 41.4502 152.115 41.1162C152.291 40.7822 152.543 40.4805 152.871 40.2109C153.205 39.9355 153.604 39.7188 154.066 39.5605C154.535 39.3965 155.057 39.3145 155.631 39.3145C156.322 39.3145 156.932 39.4316 157.459 39.666C157.992 39.9004 158.408 40.2549 158.707 40.7295C159.012 41.1982 159.164 41.7871 159.164 42.4961V46.9258C159.164 47.2422 159.19 47.5791 159.243 47.9365C159.302 48.2939 159.387 48.6016 159.498 48.8594V49H157.802C157.72 48.8125 157.655 48.5635 157.608 48.2529C157.562 47.9365 157.538 47.6436 157.538 47.374ZM157.819 43.2344L157.837 44.377H156.193C155.73 44.377 155.317 44.415 154.954 44.4912C154.591 44.5615 154.286 44.6699 154.04 44.8164C153.794 44.9629 153.606 45.1475 153.478 45.3701C153.349 45.5869 153.284 45.8418 153.284 46.1348C153.284 46.4336 153.352 46.7061 153.486 46.9521C153.621 47.1982 153.823 47.3945 154.093 47.541C154.368 47.6816 154.705 47.752 155.104 47.752C155.602 47.752 156.041 47.6465 156.422 47.4355C156.803 47.2246 157.104 46.9668 157.327 46.6621C157.556 46.3574 157.679 46.0615 157.696 45.7744L158.391 46.5566C158.35 46.8027 158.238 47.0752 158.057 47.374C157.875 47.6729 157.632 47.96 157.327 48.2354C157.028 48.5049 156.671 48.7305 156.255 48.9121C155.845 49.0879 155.382 49.1758 154.866 49.1758C154.222 49.1758 153.656 49.0498 153.17 48.7979C152.689 48.5459 152.314 48.209 152.045 47.7871C151.781 47.3594 151.649 46.8818 151.649 46.3545C151.649 45.8447 151.749 45.3965 151.948 45.0098C152.147 44.6172 152.435 44.292 152.81 44.0342C153.185 43.7705 153.636 43.5713 154.163 43.4365C154.69 43.3018 155.279 43.2344 155.93 43.2344H157.819ZM162.117 35.5V36.4668L161.933 39.7012H160.799L160.808 36.6162V35.5H162.117Z" fill="#0EB1F8"/>
</svg>
