<svg width="243" height="105" viewBox="0 0 243 105" fill="none" xmlns="http://www.w3.org/2000/svg">
<path d="M199.833 104.309L176.974 78.7878H24.5803C9.89515 78.7878 2.29858 64.9924 0.335938 58.0947V21.5369C4.7692 7.18964 18.3461 1.76344 24.5803 0.84375H216.457C234.745 1.94738 241.164 15.099 242.087 21.5369V58.0947C238.762 74.6492 223.615 78.7878 216.457 78.7878L199.833 104.309Z" fill="white"/>
<path d="M38.958 19.9814H35.5391V18.6016H38.958C39.6201 18.6016 40.1562 18.4961 40.5664 18.2852C40.9766 18.0742 41.2754 17.7812 41.4629 17.4062C41.6562 17.0312 41.7529 16.6035 41.7529 16.123C41.7529 15.6836 41.6562 15.2705 41.4629 14.8838C41.2754 14.4971 40.9766 14.1865 40.5664 13.9521C40.1562 13.7119 39.6201 13.5918 38.958 13.5918H35.9346V25H34.2383V12.2031H38.958C39.9248 12.2031 40.7422 12.3701 41.4102 12.7041C42.0781 13.0381 42.585 13.501 42.9307 14.0928C43.2764 14.6787 43.4492 15.3496 43.4492 16.1055C43.4492 16.9258 43.2764 17.626 42.9307 18.2061C42.585 18.7861 42.0781 19.2285 41.4102 19.5332C40.7422 19.832 39.9248 19.9814 38.958 19.9814ZM46.9736 16.9844V25H45.3477V15.4902H46.9297L46.9736 16.9844ZM49.9443 15.4375L49.9355 16.9492C49.8008 16.9199 49.6719 16.9023 49.5488 16.8965C49.4316 16.8848 49.2969 16.8789 49.1445 16.8789C48.7695 16.8789 48.4385 16.9375 48.1514 17.0547C47.8643 17.1719 47.6211 17.3359 47.4219 17.5469C47.2227 17.7578 47.0645 18.0098 46.9473 18.3027C46.8359 18.5898 46.7627 18.9062 46.7275 19.252L46.2705 19.5156C46.2705 18.9414 46.3262 18.4023 46.4375 17.8984C46.5547 17.3945 46.7334 16.9492 46.9736 16.5625C47.2139 16.1699 47.5186 15.8652 47.8877 15.6484C48.2627 15.4258 48.708 15.3145 49.2236 15.3145C49.3408 15.3145 49.4756 15.3291 49.6279 15.3584C49.7803 15.3818 49.8857 15.4082 49.9443 15.4375ZM55.2178 25.1758C54.5557 25.1758 53.9551 25.0645 53.416 24.8418C52.8828 24.6133 52.4229 24.2939 52.0361 23.8838C51.6553 23.4736 51.3623 22.9873 51.1572 22.4248C50.9521 21.8623 50.8496 21.2471 50.8496 20.5791V20.21C50.8496 19.4365 50.9639 18.748 51.1924 18.1445C51.4209 17.5352 51.7314 17.0195 52.124 16.5977C52.5166 16.1758 52.9619 15.8564 53.46 15.6396C53.958 15.4229 54.4736 15.3145 55.0068 15.3145C55.6865 15.3145 56.2725 15.4316 56.7646 15.666C57.2627 15.9004 57.6699 16.2285 57.9863 16.6504C58.3027 17.0664 58.5371 17.5586 58.6895 18.127C58.8418 18.6895 58.918 19.3047 58.918 19.9727V20.7021H51.8164V19.375H57.292V19.252C57.2686 18.8301 57.1807 18.4199 57.0283 18.0215C56.8818 17.623 56.6475 17.2949 56.3252 17.0371C56.0029 16.7793 55.5635 16.6504 55.0068 16.6504C54.6377 16.6504 54.2979 16.7295 53.9873 16.8877C53.6768 17.04 53.4102 17.2686 53.1875 17.5732C52.9648 17.8779 52.792 18.25 52.6689 18.6895C52.5459 19.1289 52.4844 19.6357 52.4844 20.21V20.5791C52.4844 21.0303 52.5459 21.4551 52.6689 21.8535C52.7979 22.2461 52.9824 22.5918 53.2227 22.8906C53.4688 23.1895 53.7646 23.4238 54.1104 23.5938C54.4619 23.7637 54.8604 23.8486 55.3057 23.8486C55.8799 23.8486 56.3662 23.7314 56.7646 23.4971C57.1631 23.2627 57.5117 22.9492 57.8105 22.5566L58.7949 23.3389C58.5898 23.6494 58.3291 23.9453 58.0127 24.2266C57.6963 24.5078 57.3066 24.7363 56.8438 24.9121C56.3867 25.0879 55.8447 25.1758 55.2178 25.1758ZM66.9775 15.4902H68.4541V24.7979C68.4541 25.6357 68.2842 26.3506 67.9443 26.9424C67.6045 27.5342 67.1299 27.9824 66.5205 28.2871C65.917 28.5977 65.2197 28.7529 64.4287 28.7529C64.1006 28.7529 63.7139 28.7002 63.2686 28.5947C62.8291 28.4951 62.3955 28.3223 61.9678 28.0762C61.5459 27.8359 61.1914 27.5107 60.9043 27.1006L61.7568 26.1338C62.1553 26.6143 62.5713 26.9482 63.0049 27.1357C63.4443 27.3232 63.8779 27.417 64.3057 27.417C64.8213 27.417 65.2666 27.3203 65.6416 27.127C66.0166 26.9336 66.3066 26.6465 66.5117 26.2656C66.7227 25.8906 66.8281 25.4277 66.8281 24.877V17.582L66.9775 15.4902ZM60.4297 20.3506V20.166C60.4297 19.4395 60.5146 18.7803 60.6846 18.1885C60.8604 17.5908 61.1094 17.0781 61.4316 16.6504C61.7598 16.2227 62.1553 15.8945 62.6182 15.666C63.0811 15.4316 63.6025 15.3145 64.1826 15.3145C64.7803 15.3145 65.3018 15.4199 65.7471 15.6309C66.1982 15.8359 66.5791 16.1377 66.8896 16.5361C67.2061 16.9287 67.4551 17.4033 67.6367 17.96C67.8184 18.5166 67.9443 19.1465 68.0146 19.8496V20.6582C67.9502 21.3555 67.8242 21.9824 67.6367 22.5391C67.4551 23.0957 67.2061 23.5703 66.8896 23.9629C66.5791 24.3555 66.1982 24.6572 65.7471 24.8682C65.2959 25.0732 64.7686 25.1758 64.165 25.1758C63.5967 25.1758 63.0811 25.0557 62.6182 24.8154C62.1611 24.5752 61.7686 24.2383 61.4404 23.8047C61.1123 23.3711 60.8604 22.8613 60.6846 22.2754C60.5146 21.6836 60.4297 21.042 60.4297 20.3506ZM62.0557 20.166V20.3506C62.0557 20.8252 62.1025 21.2705 62.1963 21.6865C62.2959 22.1025 62.4453 22.4688 62.6445 22.7852C62.8496 23.1016 63.1104 23.3506 63.4268 23.5322C63.7432 23.708 64.1211 23.7959 64.5605 23.7959C65.0996 23.7959 65.5449 23.6816 65.8965 23.4531C66.248 23.2246 66.5264 22.9229 66.7314 22.5479C66.9424 22.1729 67.1064 21.7656 67.2236 21.3262V19.208C67.1592 18.8857 67.0596 18.5752 66.9248 18.2764C66.7959 17.9717 66.626 17.7021 66.415 17.4678C66.21 17.2275 65.9551 17.0371 65.6504 16.8965C65.3457 16.7559 64.9883 16.6855 64.5781 16.6855C64.1328 16.6855 63.749 16.7793 63.4268 16.9668C63.1104 17.1484 62.8496 17.4004 62.6445 17.7227C62.4453 18.0391 62.2959 18.4082 62.1963 18.8301C62.1025 19.2461 62.0557 19.6914 62.0557 20.166ZM76.7422 22.8027V15.4902H78.377V25H76.8213L76.7422 22.8027ZM77.0498 20.7988L77.7266 20.7812C77.7266 21.4141 77.6592 22 77.5244 22.5391C77.3955 23.0723 77.1846 23.5352 76.8916 23.9277C76.5986 24.3203 76.2148 24.6279 75.7402 24.8506C75.2656 25.0674 74.6885 25.1758 74.0088 25.1758C73.5459 25.1758 73.1211 25.1084 72.7344 24.9736C72.3535 24.8389 72.0254 24.6309 71.75 24.3496C71.4746 24.0684 71.2607 23.7021 71.1084 23.251C70.9619 22.7998 70.8887 22.2578 70.8887 21.625V15.4902H72.5146V21.6426C72.5146 22.0703 72.5615 22.4248 72.6553 22.7061C72.7549 22.9814 72.8867 23.2012 73.0508 23.3652C73.2207 23.5234 73.4082 23.6348 73.6133 23.6992C73.8242 23.7637 74.041 23.7959 74.2637 23.7959C74.9551 23.7959 75.5029 23.6641 75.9072 23.4004C76.3115 23.1309 76.6016 22.7705 76.7773 22.3193C76.959 21.8623 77.0498 21.3555 77.0498 20.7988ZM82.4814 17.5205V25H80.8555V15.4902H82.3936L82.4814 17.5205ZM82.0947 19.8848L81.418 19.8584C81.4238 19.208 81.5205 18.6074 81.708 18.0566C81.8955 17.5 82.1592 17.0166 82.499 16.6064C82.8389 16.1963 83.2432 15.8799 83.7119 15.6572C84.1865 15.4287 84.7109 15.3145 85.2852 15.3145C85.7539 15.3145 86.1758 15.3789 86.5508 15.5078C86.9258 15.6309 87.2451 15.8301 87.5088 16.1055C87.7783 16.3809 87.9834 16.7383 88.124 17.1777C88.2646 17.6113 88.335 18.1416 88.335 18.7686V25H86.7002V18.751C86.7002 18.2529 86.627 17.8545 86.4805 17.5557C86.334 17.251 86.1201 17.0312 85.8389 16.8965C85.5576 16.7559 85.2119 16.6855 84.8018 16.6855C84.3975 16.6855 84.0283 16.7705 83.6943 16.9404C83.3662 17.1104 83.082 17.3447 82.8418 17.6436C82.6074 17.9424 82.4229 18.2852 82.2881 18.6719C82.1592 19.0527 82.0947 19.457 82.0947 19.8848ZM94.7861 15.4902V16.7383H89.6445V15.4902H94.7861ZM91.3848 13.1787H93.0107V22.6445C93.0107 22.9668 93.0605 23.21 93.1602 23.374C93.2598 23.5381 93.3887 23.6465 93.5469 23.6992C93.7051 23.752 93.875 23.7783 94.0566 23.7783C94.1914 23.7783 94.332 23.7666 94.4785 23.7432C94.6309 23.7139 94.7451 23.6904 94.8213 23.6729L94.8301 25C94.7012 25.041 94.5312 25.0791 94.3203 25.1143C94.1152 25.1553 93.8662 25.1758 93.5732 25.1758C93.1748 25.1758 92.8086 25.0967 92.4746 24.9385C92.1406 24.7803 91.874 24.5166 91.6748 24.1475C91.4814 23.7725 91.3848 23.2686 91.3848 22.6357V13.1787ZM102.301 23.374V18.4785C102.301 18.1035 102.225 17.7783 102.072 17.5029C101.926 17.2217 101.703 17.0049 101.404 16.8525C101.105 16.7002 100.736 16.624 100.297 16.624C99.8867 16.624 99.5264 16.6943 99.2158 16.835C98.9111 16.9756 98.6709 17.1602 98.4951 17.3887C98.3252 17.6172 98.2402 17.8633 98.2402 18.127H96.6143C96.6143 17.7871 96.7021 17.4502 96.8779 17.1162C97.0537 16.7822 97.3057 16.4805 97.6338 16.2109C97.9678 15.9355 98.3662 15.7188 98.8291 15.5605C99.2979 15.3965 99.8193 15.3145 100.394 15.3145C101.085 15.3145 101.694 15.4316 102.222 15.666C102.755 15.9004 103.171 16.2549 103.47 16.7295C103.774 17.1982 103.927 17.7871 103.927 18.4961V22.9258C103.927 23.2422 103.953 23.5791 104.006 23.9365C104.064 24.2939 104.149 24.6016 104.261 24.8594V25H102.564C102.482 24.8125 102.418 24.5635 102.371 24.2529C102.324 23.9365 102.301 23.6436 102.301 23.374ZM102.582 19.2344L102.6 20.377H100.956C100.493 20.377 100.08 20.415 99.7168 20.4912C99.3535 20.5615 99.0488 20.6699 98.8027 20.8164C98.5566 20.9629 98.3691 21.1475 98.2402 21.3701C98.1113 21.5869 98.0469 21.8418 98.0469 22.1348C98.0469 22.4336 98.1143 22.7061 98.249 22.9521C98.3838 23.1982 98.5859 23.3945 98.8555 23.541C99.1309 23.6816 99.4678 23.752 99.8662 23.752C100.364 23.752 100.804 23.6465 101.185 23.4355C101.565 23.2246 101.867 22.9668 102.09 22.6621C102.318 22.3574 102.441 22.0615 102.459 21.7744L103.153 22.5566C103.112 22.8027 103.001 23.0752 102.819 23.374C102.638 23.6729 102.395 23.96 102.09 24.2354C101.791 24.5049 101.434 24.7305 101.018 24.9121C100.607 25.0879 100.145 25.1758 99.6289 25.1758C98.9844 25.1758 98.4189 25.0498 97.9326 24.7979C97.4521 24.5459 97.0771 24.209 96.8076 23.7871C96.5439 23.3594 96.4121 22.8818 96.4121 22.3545C96.4121 21.8447 96.5117 21.3965 96.7109 21.0098C96.9102 20.6172 97.1973 20.292 97.5723 20.0342C97.9473 19.7705 98.3984 19.5713 98.9258 19.4365C99.4531 19.3018 100.042 19.2344 100.692 19.2344H102.582ZM116.117 12.1328V25H114.491V14.1631L111.213 15.3584V13.8906L115.862 12.1328H116.117ZM122.551 23.0664V24.376C122.551 24.9092 122.416 25.4717 122.146 26.0635C121.877 26.6611 121.499 27.1592 121.013 27.5576L120.09 26.916C120.277 26.6582 120.436 26.3945 120.564 26.125C120.693 25.8613 120.79 25.5859 120.854 25.2988C120.925 25.0176 120.96 24.7188 120.96 24.4023V23.0664H122.551ZM137.466 23.6201V25H130.689V23.6201H137.466ZM131.032 12.2031V25H129.336V12.2031H131.032ZM136.569 17.7051V19.085H130.689V17.7051H136.569ZM137.378 12.2031V13.5918H130.689V12.2031H137.378ZM144.857 22.4775C144.857 22.2432 144.805 22.0264 144.699 21.8271C144.6 21.6221 144.392 21.4375 144.075 21.2734C143.765 21.1035 143.296 20.957 142.669 20.834C142.142 20.7227 141.664 20.5908 141.236 20.4385C140.814 20.2861 140.454 20.1016 140.155 19.8848C139.862 19.668 139.637 19.4131 139.479 19.1201C139.32 18.8271 139.241 18.4844 139.241 18.0918C139.241 17.7168 139.323 17.3623 139.487 17.0283C139.657 16.6943 139.895 16.3984 140.199 16.1406C140.51 15.8828 140.882 15.6807 141.315 15.5342C141.749 15.3877 142.232 15.3145 142.766 15.3145C143.527 15.3145 144.178 15.4492 144.717 15.7188C145.256 15.9883 145.669 16.3486 145.956 16.7998C146.243 17.2451 146.387 17.7402 146.387 18.2852H144.761C144.761 18.0215 144.682 17.7666 144.523 17.5205C144.371 17.2686 144.146 17.0605 143.847 16.8965C143.554 16.7324 143.193 16.6504 142.766 16.6504C142.314 16.6504 141.948 16.7207 141.667 16.8613C141.392 16.9961 141.189 17.1689 141.061 17.3799C140.938 17.5908 140.876 17.8135 140.876 18.0479C140.876 18.2236 140.905 18.3818 140.964 18.5225C141.028 18.6572 141.14 18.7832 141.298 18.9004C141.456 19.0117 141.679 19.1172 141.966 19.2168C142.253 19.3164 142.619 19.416 143.064 19.5156C143.844 19.6914 144.485 19.9023 144.989 20.1484C145.493 20.3945 145.868 20.6963 146.114 21.0537C146.36 21.4111 146.483 21.8447 146.483 22.3545C146.483 22.7705 146.396 23.1514 146.22 23.4971C146.05 23.8428 145.801 24.1416 145.473 24.3936C145.15 24.6396 144.764 24.833 144.312 24.9736C143.867 25.1084 143.366 25.1758 142.81 25.1758C141.972 25.1758 141.263 25.0264 140.683 24.7275C140.103 24.4287 139.663 24.042 139.364 23.5674C139.065 23.0928 138.916 22.5918 138.916 22.0645H140.551C140.574 22.5098 140.703 22.8643 140.938 23.1279C141.172 23.3857 141.459 23.5703 141.799 23.6816C142.139 23.7871 142.476 23.8398 142.81 23.8398C143.255 23.8398 143.627 23.7812 143.926 23.6641C144.23 23.5469 144.462 23.3857 144.62 23.1807C144.778 22.9756 144.857 22.7412 144.857 22.4775ZM152.425 23.8398C152.812 23.8398 153.169 23.7607 153.497 23.6025C153.825 23.4443 154.095 23.2275 154.306 22.9521C154.517 22.6709 154.637 22.3516 154.666 21.9941H156.213C156.184 22.5566 155.993 23.0811 155.642 23.5674C155.296 24.0479 154.842 24.4375 154.279 24.7363C153.717 25.0293 153.099 25.1758 152.425 25.1758C151.71 25.1758 151.086 25.0498 150.553 24.7979C150.025 24.5459 149.586 24.2002 149.234 23.7607C148.889 23.3213 148.628 22.8174 148.452 22.249C148.282 21.6748 148.197 21.0684 148.197 20.4297V20.0605C148.197 19.4219 148.282 18.8184 148.452 18.25C148.628 17.6758 148.889 17.1689 149.234 16.7295C149.586 16.29 150.025 15.9443 150.553 15.6924C151.086 15.4404 151.71 15.3145 152.425 15.3145C153.169 15.3145 153.819 15.4668 154.376 15.7715C154.933 16.0703 155.369 16.4805 155.686 17.002C156.008 17.5176 156.184 18.1035 156.213 18.7598H154.666C154.637 18.3672 154.525 18.0127 154.332 17.6963C154.145 17.3799 153.887 17.1279 153.559 16.9404C153.236 16.7471 152.858 16.6504 152.425 16.6504C151.927 16.6504 151.508 16.75 151.168 16.9492C150.834 17.1426 150.567 17.4062 150.368 17.7402C150.175 18.0684 150.034 18.4346 149.946 18.8389C149.864 19.2373 149.823 19.6445 149.823 20.0605V20.4297C149.823 20.8457 149.864 21.2559 149.946 21.6602C150.028 22.0645 150.166 22.4307 150.359 22.7588C150.559 23.0869 150.825 23.3506 151.159 23.5498C151.499 23.7432 151.921 23.8398 152.425 23.8398ZM163.859 22.8027V15.4902H165.494V25H163.938L163.859 22.8027ZM164.167 20.7988L164.844 20.7812C164.844 21.4141 164.776 22 164.642 22.5391C164.513 23.0723 164.302 23.5352 164.009 23.9277C163.716 24.3203 163.332 24.6279 162.857 24.8506C162.383 25.0674 161.806 25.1758 161.126 25.1758C160.663 25.1758 160.238 25.1084 159.852 24.9736C159.471 24.8389 159.143 24.6309 158.867 24.3496C158.592 24.0684 158.378 23.7021 158.226 23.251C158.079 22.7998 158.006 22.2578 158.006 21.625V15.4902H159.632V21.6426C159.632 22.0703 159.679 22.4248 159.772 22.7061C159.872 22.9814 160.004 23.2012 160.168 23.3652C160.338 23.5234 160.525 23.6348 160.73 23.6992C160.941 23.7637 161.158 23.7959 161.381 23.7959C162.072 23.7959 162.62 23.6641 163.024 23.4004C163.429 23.1309 163.719 22.7705 163.895 22.3193C164.076 21.8623 164.167 21.3555 164.167 20.7988ZM171.778 23.8398C172.165 23.8398 172.522 23.7607 172.851 23.6025C173.179 23.4443 173.448 23.2275 173.659 22.9521C173.87 22.6709 173.99 22.3516 174.02 21.9941H175.566C175.537 22.5566 175.347 23.0811 174.995 23.5674C174.649 24.0479 174.195 24.4375 173.633 24.7363C173.07 25.0293 172.452 25.1758 171.778 25.1758C171.063 25.1758 170.439 25.0498 169.906 24.7979C169.379 24.5459 168.939 24.2002 168.588 23.7607C168.242 23.3213 167.981 22.8174 167.806 22.249C167.636 21.6748 167.551 21.0684 167.551 20.4297V20.0605C167.551 19.4219 167.636 18.8184 167.806 18.25C167.981 17.6758 168.242 17.1689 168.588 16.7295C168.939 16.29 169.379 15.9443 169.906 15.6924C170.439 15.4404 171.063 15.3145 171.778 15.3145C172.522 15.3145 173.173 15.4668 173.729 15.7715C174.286 16.0703 174.723 16.4805 175.039 17.002C175.361 17.5176 175.537 18.1035 175.566 18.7598H174.02C173.99 18.3672 173.879 18.0127 173.686 17.6963C173.498 17.3799 173.24 17.1279 172.912 16.9404C172.59 16.7471 172.212 16.6504 171.778 16.6504C171.28 16.6504 170.861 16.75 170.521 16.9492C170.188 17.1426 169.921 17.4062 169.722 17.7402C169.528 18.0684 169.388 18.4346 169.3 18.8389C169.218 19.2373 169.177 19.6445 169.177 20.0605V20.4297C169.177 20.8457 169.218 21.2559 169.3 21.6602C169.382 22.0645 169.52 22.4307 169.713 22.7588C169.912 23.0869 170.179 23.3506 170.513 23.5498C170.853 23.7432 171.274 23.8398 171.778 23.8398ZM179.021 11.5V25H177.395V11.5H179.021ZM178.634 19.8848L177.957 19.8584C177.963 19.208 178.06 18.6074 178.247 18.0566C178.435 17.5 178.698 17.0166 179.038 16.6064C179.378 16.1963 179.782 15.8799 180.251 15.6572C180.726 15.4287 181.25 15.3145 181.824 15.3145C182.293 15.3145 182.715 15.3789 183.09 15.5078C183.465 15.6309 183.784 15.8301 184.048 16.1055C184.317 16.3809 184.522 16.7383 184.663 17.1777C184.804 17.6113 184.874 18.1416 184.874 18.7686V25H183.239V18.751C183.239 18.2529 183.166 17.8545 183.02 17.5557C182.873 17.251 182.659 17.0312 182.378 16.8965C182.097 16.7559 181.751 16.6855 181.341 16.6855C180.937 16.6855 180.567 16.7705 180.233 16.9404C179.905 17.1104 179.621 17.3447 179.381 17.6436C179.146 17.9424 178.962 18.2852 178.827 18.6719C178.698 19.0527 178.634 19.457 178.634 19.8848ZM192.916 23.374V18.4785C192.916 18.1035 192.84 17.7783 192.688 17.5029C192.541 17.2217 192.318 17.0049 192.02 16.8525C191.721 16.7002 191.352 16.624 190.912 16.624C190.502 16.624 190.142 16.6943 189.831 16.835C189.526 16.9756 189.286 17.1602 189.11 17.3887C188.94 17.6172 188.855 17.8633 188.855 18.127H187.229C187.229 17.7871 187.317 17.4502 187.493 17.1162C187.669 16.7822 187.921 16.4805 188.249 16.2109C188.583 15.9355 188.981 15.7188 189.444 15.5605C189.913 15.3965 190.435 15.3145 191.009 15.3145C191.7 15.3145 192.31 15.4316 192.837 15.666C193.37 15.9004 193.786 16.2549 194.085 16.7295C194.39 17.1982 194.542 17.7871 194.542 18.4961V22.9258C194.542 23.2422 194.568 23.5791 194.621 23.9365C194.68 24.2939 194.765 24.6016 194.876 24.8594V25H193.18C193.098 24.8125 193.033 24.5635 192.986 24.2529C192.939 23.9365 192.916 23.6436 192.916 23.374ZM193.197 19.2344L193.215 20.377H191.571C191.108 20.377 190.695 20.415 190.332 20.4912C189.969 20.5615 189.664 20.6699 189.418 20.8164C189.172 20.9629 188.984 21.1475 188.855 21.3701C188.727 21.5869 188.662 21.8418 188.662 22.1348C188.662 22.4336 188.729 22.7061 188.864 22.9521C188.999 23.1982 189.201 23.3945 189.471 23.541C189.746 23.6816 190.083 23.752 190.481 23.752C190.979 23.752 191.419 23.6465 191.8 23.4355C192.181 23.2246 192.482 22.9668 192.705 22.6621C192.934 22.3574 193.057 22.0615 193.074 21.7744L193.769 22.5566C193.728 22.8027 193.616 23.0752 193.435 23.374C193.253 23.6729 193.01 23.96 192.705 24.2354C192.406 24.5049 192.049 24.7305 191.633 24.9121C191.223 25.0879 190.76 25.1758 190.244 25.1758C189.6 25.1758 189.034 25.0498 188.548 24.7979C188.067 24.5459 187.692 24.209 187.423 23.7871C187.159 23.3594 187.027 22.8818 187.027 22.3545C187.027 21.8447 187.127 21.3965 187.326 21.0098C187.525 20.6172 187.812 20.292 188.188 20.0342C188.562 19.7705 189.014 19.5713 189.541 19.4365C190.068 19.3018 190.657 19.2344 191.308 19.2344H193.197ZM205.511 25.1758C204.849 25.1758 204.248 25.0645 203.709 24.8418C203.176 24.6133 202.716 24.2939 202.329 23.8838C201.948 23.4736 201.655 22.9873 201.45 22.4248C201.245 21.8623 201.143 21.2471 201.143 20.5791V20.21C201.143 19.4365 201.257 18.748 201.485 18.1445C201.714 17.5352 202.024 17.0195 202.417 16.5977C202.81 16.1758 203.255 15.8564 203.753 15.6396C204.251 15.4229 204.767 15.3145 205.3 15.3145C205.979 15.3145 206.565 15.4316 207.058 15.666C207.556 15.9004 207.963 16.2285 208.279 16.6504C208.596 17.0664 208.83 17.5586 208.982 18.127C209.135 18.6895 209.211 19.3047 209.211 19.9727V20.7021H202.109V19.375H207.585V19.252C207.562 18.8301 207.474 18.4199 207.321 18.0215C207.175 17.623 206.94 17.2949 206.618 17.0371C206.296 16.7793 205.856 16.6504 205.3 16.6504C204.931 16.6504 204.591 16.7295 204.28 16.8877C203.97 17.04 203.703 17.2686 203.48 17.5732C203.258 17.8779 203.085 18.25 202.962 18.6895C202.839 19.1289 202.777 19.6357 202.777 20.21V20.5791C202.777 21.0303 202.839 21.4551 202.962 21.8535C203.091 22.2461 203.275 22.5918 203.516 22.8906C203.762 23.1895 204.058 23.4238 204.403 23.5938C204.755 23.7637 205.153 23.8486 205.599 23.8486C206.173 23.8486 206.659 23.7314 207.058 23.4971C207.456 23.2627 207.805 22.9492 208.104 22.5566L209.088 23.3389C208.883 23.6494 208.622 23.9453 208.306 24.2266C207.989 24.5078 207.6 24.7363 207.137 24.9121C206.68 25.0879 206.138 25.1758 205.511 25.1758ZM212.876 11.5V25H211.241V11.5H212.876ZM32.3574 43.4775C32.3574 43.2432 32.3047 43.0264 32.1992 42.8271C32.0996 42.6221 31.8916 42.4375 31.5752 42.2734C31.2646 42.1035 30.7959 41.957 30.1689 41.834C29.6416 41.7227 29.1641 41.5908 28.7363 41.4385C28.3145 41.2861 27.9541 41.1016 27.6553 40.8848C27.3623 40.668 27.1367 40.4131 26.9785 40.1201C26.8203 39.8271 26.7412 39.4844 26.7412 39.0918C26.7412 38.7168 26.8232 38.3623 26.9873 38.0283C27.1572 37.6943 27.3945 37.3984 27.6992 37.1406C28.0098 36.8828 28.3818 36.6807 28.8154 36.5342C29.249 36.3877 29.7324 36.3145 30.2656 36.3145C31.0273 36.3145 31.6777 36.4492 32.2168 36.7188C32.7559 36.9883 33.1689 37.3486 33.4561 37.7998C33.7432 38.2451 33.8867 38.7402 33.8867 39.2852H32.2607C32.2607 39.0215 32.1816 38.7666 32.0234 38.5205C31.8711 38.2686 31.6455 38.0605 31.3467 37.8965C31.0537 37.7324 30.6934 37.6504 30.2656 37.6504C29.8145 37.6504 29.4482 37.7207 29.167 37.8613C28.8916 37.9961 28.6895 38.1689 28.5605 38.3799C28.4375 38.5908 28.376 38.8135 28.376 39.0479C28.376 39.2236 28.4053 39.3818 28.4639 39.5225C28.5283 39.6572 28.6396 39.7832 28.7979 39.9004C28.9561 40.0117 29.1787 40.1172 29.4658 40.2168C29.7529 40.3164 30.1191 40.416 30.5645 40.5156C31.3438 40.6914 31.9854 40.9023 32.4893 41.1484C32.9932 41.3945 33.3682 41.6963 33.6143 42.0537C33.8604 42.4111 33.9834 42.8447 33.9834 43.3545C33.9834 43.7705 33.8955 44.1514 33.7197 44.4971C33.5498 44.8428 33.3008 45.1416 32.9727 45.3936C32.6504 45.6396 32.2637 45.833 31.8125 45.9736C31.3672 46.1084 30.8662 46.1758 30.3096 46.1758C29.4717 46.1758 28.7627 46.0264 28.1826 45.7275C27.6025 45.4287 27.1631 45.042 26.8643 44.5674C26.5654 44.0928 26.416 43.5918 26.416 43.0645H28.0508C28.0742 43.5098 28.2031 43.8643 28.4375 44.1279C28.6719 44.3857 28.959 44.5703 29.2988 44.6816C29.6387 44.7871 29.9756 44.8398 30.3096 44.8398C30.7549 44.8398 31.127 44.7812 31.4258 44.6641C31.7305 44.5469 31.9619 44.3857 32.1201 44.1807C32.2783 43.9756 32.3574 43.7412 32.3574 43.4775ZM37.8857 36.4902V46H36.251V36.4902H37.8857ZM36.1279 33.9678C36.1279 33.7041 36.207 33.4814 36.3652 33.2998C36.5293 33.1182 36.7695 33.0273 37.0859 33.0273C37.3965 33.0273 37.6338 33.1182 37.7979 33.2998C37.9678 33.4814 38.0527 33.7041 38.0527 33.9678C38.0527 34.2197 37.9678 34.4365 37.7979 34.6182C37.6338 34.7939 37.3965 34.8818 37.0859 34.8818C36.7695 34.8818 36.5293 34.7939 36.3652 34.6182C36.207 34.4365 36.1279 34.2197 36.1279 33.9678ZM46.6572 36.4902H48.1338V45.7979C48.1338 46.6357 47.9639 47.3506 47.624 47.9424C47.2842 48.5342 46.8096 48.9824 46.2002 49.2871C45.5967 49.5977 44.8994 49.7529 44.1084 49.7529C43.7803 49.7529 43.3936 49.7002 42.9482 49.5947C42.5088 49.4951 42.0752 49.3223 41.6475 49.0762C41.2256 48.8359 40.8711 48.5107 40.584 48.1006L41.4365 47.1338C41.835 47.6143 42.251 47.9482 42.6846 48.1357C43.124 48.3232 43.5576 48.417 43.9854 48.417C44.501 48.417 44.9463 48.3203 45.3213 48.127C45.6963 47.9336 45.9863 47.6465 46.1914 47.2656C46.4023 46.8906 46.5078 46.4277 46.5078 45.877V38.582L46.6572 36.4902ZM40.1094 41.3506V41.166C40.1094 40.4395 40.1943 39.7803 40.3643 39.1885C40.54 38.5908 40.7891 38.0781 41.1113 37.6504C41.4395 37.2227 41.835 36.8945 42.2979 36.666C42.7607 36.4316 43.2822 36.3145 43.8623 36.3145C44.46 36.3145 44.9814 36.4199 45.4268 36.6309C45.8779 36.8359 46.2588 37.1377 46.5693 37.5361C46.8857 37.9287 47.1348 38.4033 47.3164 38.96C47.498 39.5166 47.624 40.1465 47.6943 40.8496V41.6582C47.6299 42.3555 47.5039 42.9824 47.3164 43.5391C47.1348 44.0957 46.8857 44.5703 46.5693 44.9629C46.2588 45.3555 45.8779 45.6572 45.4268 45.8682C44.9756 46.0732 44.4482 46.1758 43.8447 46.1758C43.2764 46.1758 42.7607 46.0557 42.2979 45.8154C41.8408 45.5752 41.4482 45.2383 41.1201 44.8047C40.792 44.3711 40.54 43.8613 40.3643 43.2754C40.1943 42.6836 40.1094 42.042 40.1094 41.3506ZM41.7354 41.166V41.3506C41.7354 41.8252 41.7822 42.2705 41.876 42.6865C41.9756 43.1025 42.125 43.4688 42.3242 43.7852C42.5293 44.1016 42.79 44.3506 43.1064 44.5322C43.4229 44.708 43.8008 44.7959 44.2402 44.7959C44.7793 44.7959 45.2246 44.6816 45.5762 44.4531C45.9277 44.2246 46.2061 43.9229 46.4111 43.5479C46.6221 43.1729 46.7861 42.7656 46.9033 42.3262V40.208C46.8389 39.8857 46.7393 39.5752 46.6045 39.2764C46.4756 38.9717 46.3057 38.7021 46.0947 38.4678C45.8896 38.2275 45.6348 38.0371 45.3301 37.8965C45.0254 37.7559 44.668 37.6855 44.2578 37.6855C43.8125 37.6855 43.4287 37.7793 43.1064 37.9668C42.79 38.1484 42.5293 38.4004 42.3242 38.7227C42.125 39.0391 41.9756 39.4082 41.876 39.8301C41.7822 40.2461 41.7354 40.6914 41.7354 41.166ZM56.4219 43.8027V36.4902H58.0566V46H56.501L56.4219 43.8027ZM56.7295 41.7988L57.4062 41.7812C57.4062 42.4141 57.3389 43 57.2041 43.5391C57.0752 44.0723 56.8643 44.5352 56.5713 44.9277C56.2783 45.3203 55.8945 45.6279 55.4199 45.8506C54.9453 46.0674 54.3682 46.1758 53.6885 46.1758C53.2256 46.1758 52.8008 46.1084 52.4141 45.9736C52.0332 45.8389 51.7051 45.6309 51.4297 45.3496C51.1543 45.0684 50.9404 44.7021 50.7881 44.251C50.6416 43.7998 50.5684 43.2578 50.5684 42.625V36.4902H52.1943V42.6426C52.1943 43.0703 52.2412 43.4248 52.335 43.7061C52.4346 43.9814 52.5664 44.2012 52.7305 44.3652C52.9004 44.5234 53.0879 44.6348 53.293 44.6992C53.5039 44.7637 53.7207 44.7959 53.9434 44.7959C54.6348 44.7959 55.1826 44.6641 55.5869 44.4004C55.9912 44.1309 56.2812 43.7705 56.457 43.3193C56.6387 42.8623 56.7295 42.3555 56.7295 41.7988ZM62.3018 36.4902V46H60.667V36.4902H62.3018ZM60.5439 33.9678C60.5439 33.7041 60.623 33.4814 60.7812 33.2998C60.9453 33.1182 61.1855 33.0273 61.502 33.0273C61.8125 33.0273 62.0498 33.1182 62.2139 33.2998C62.3838 33.4814 62.4688 33.7041 62.4688 33.9678C62.4688 34.2197 62.3838 34.4365 62.2139 34.6182C62.0498 34.7939 61.8125 34.8818 61.502 34.8818C61.1855 34.8818 60.9453 34.7939 60.7812 34.6182C60.623 34.4365 60.5439 34.2197 60.5439 33.9678ZM68.8584 46.1758C68.1963 46.1758 67.5957 46.0645 67.0566 45.8418C66.5234 45.6133 66.0635 45.2939 65.6768 44.8838C65.2959 44.4736 65.0029 43.9873 64.7979 43.4248C64.5928 42.8623 64.4902 42.2471 64.4902 41.5791V41.21C64.4902 40.4365 64.6045 39.748 64.833 39.1445C65.0615 38.5352 65.3721 38.0195 65.7646 37.5977C66.1572 37.1758 66.6025 36.8564 67.1006 36.6396C67.5986 36.4229 68.1143 36.3145 68.6475 36.3145C69.3271 36.3145 69.9131 36.4316 70.4053 36.666C70.9033 36.9004 71.3105 37.2285 71.627 37.6504C71.9434 38.0664 72.1777 38.5586 72.3301 39.127C72.4824 39.6895 72.5586 40.3047 72.5586 40.9727V41.7021H65.457V40.375H70.9326V40.252C70.9092 39.8301 70.8213 39.4199 70.6689 39.0215C70.5225 38.623 70.2881 38.2949 69.9658 38.0371C69.6436 37.7793 69.2041 37.6504 68.6475 37.6504C68.2783 37.6504 67.9385 37.7295 67.6279 37.8877C67.3174 38.04 67.0508 38.2686 66.8281 38.5732C66.6055 38.8779 66.4326 39.25 66.3096 39.6895C66.1865 40.1289 66.125 40.6357 66.125 41.21V41.5791C66.125 42.0303 66.1865 42.4551 66.3096 42.8535C66.4385 43.2461 66.623 43.5918 66.8633 43.8906C67.1094 44.1895 67.4053 44.4238 67.751 44.5938C68.1025 44.7637 68.501 44.8486 68.9463 44.8486C69.5205 44.8486 70.0068 44.7314 70.4053 44.4971C70.8037 44.2627 71.1523 43.9492 71.4512 43.5566L72.4355 44.3389C72.2305 44.6494 71.9697 44.9453 71.6533 45.2266C71.3369 45.5078 70.9473 45.7363 70.4844 45.9121C70.0273 46.0879 69.4854 46.1758 68.8584 46.1758ZM76.083 38.5205V46H74.457V36.4902H75.9951L76.083 38.5205ZM75.6963 40.8848L75.0195 40.8584C75.0254 40.208 75.1221 39.6074 75.3096 39.0566C75.4971 38.5 75.7607 38.0166 76.1006 37.6064C76.4404 37.1963 76.8447 36.8799 77.3135 36.6572C77.7881 36.4287 78.3125 36.3145 78.8867 36.3145C79.3555 36.3145 79.7773 36.3789 80.1523 36.5078C80.5273 36.6309 80.8467 36.8301 81.1104 37.1055C81.3799 37.3809 81.585 37.7383 81.7256 38.1777C81.8662 38.6113 81.9365 39.1416 81.9365 39.7686V46H80.3018V39.751C80.3018 39.2529 80.2285 38.8545 80.082 38.5557C79.9355 38.251 79.7217 38.0312 79.4404 37.8965C79.1592 37.7559 78.8135 37.6855 78.4033 37.6855C77.999 37.6855 77.6299 37.7705 77.2959 37.9404C76.9678 38.1104 76.6836 38.3447 76.4434 38.6436C76.209 38.9424 76.0244 39.2852 75.8896 39.6719C75.7607 40.0527 75.6963 40.457 75.6963 40.8848ZM88.3877 36.4902V37.7383H83.2461V36.4902H88.3877ZM84.9863 34.1787H86.6123V43.6445C86.6123 43.9668 86.6621 44.21 86.7617 44.374C86.8613 44.5381 86.9902 44.6465 87.1484 44.6992C87.3066 44.752 87.4766 44.7783 87.6582 44.7783C87.793 44.7783 87.9336 44.7666 88.0801 44.7432C88.2324 44.7139 88.3467 44.6904 88.4229 44.6729L88.4316 46C88.3027 46.041 88.1328 46.0791 87.9219 46.1143C87.7168 46.1553 87.4678 46.1758 87.1748 46.1758C86.7764 46.1758 86.4102 46.0967 86.0762 45.9385C85.7422 45.7803 85.4756 45.5166 85.2764 45.1475C85.083 44.7725 84.9863 44.2686 84.9863 43.6357V34.1787ZM94.2412 46.1758C93.5791 46.1758 92.9785 46.0645 92.4395 45.8418C91.9062 45.6133 91.4463 45.2939 91.0596 44.8838C90.6787 44.4736 90.3857 43.9873 90.1807 43.4248C89.9756 42.8623 89.873 42.2471 89.873 41.5791V41.21C89.873 40.4365 89.9873 39.748 90.2158 39.1445C90.4443 38.5352 90.7549 38.0195 91.1475 37.5977C91.54 37.1758 91.9854 36.8564 92.4834 36.6396C92.9814 36.4229 93.4971 36.3145 94.0303 36.3145C94.71 36.3145 95.2959 36.4316 95.7881 36.666C96.2861 36.9004 96.6934 37.2285 97.0098 37.6504C97.3262 38.0664 97.5605 38.5586 97.7129 39.127C97.8652 39.6895 97.9414 40.3047 97.9414 40.9727V41.7021H90.8398V40.375H96.3154V40.252C96.292 39.8301 96.2041 39.4199 96.0518 39.0215C95.9053 38.623 95.6709 38.2949 95.3486 38.0371C95.0264 37.7793 94.5869 37.6504 94.0303 37.6504C93.6611 37.6504 93.3213 37.7295 93.0107 37.8877C92.7002 38.04 92.4336 38.2686 92.2109 38.5732C91.9883 38.8779 91.8154 39.25 91.6924 39.6895C91.5693 40.1289 91.5078 40.6357 91.5078 41.21V41.5791C91.5078 42.0303 91.5693 42.4551 91.6924 42.8535C91.8213 43.2461 92.0059 43.5918 92.2461 43.8906C92.4922 44.1895 92.7881 44.4238 93.1338 44.5938C93.4854 44.7637 93.8838 44.8486 94.3291 44.8486C94.9033 44.8486 95.3896 44.7314 95.7881 44.4971C96.1865 44.2627 96.5352 43.9492 96.834 43.5566L97.8184 44.3389C97.6133 44.6494 97.3525 44.9453 97.0361 45.2266C96.7197 45.5078 96.3301 45.7363 95.8672 45.9121C95.4102 46.0879 94.8682 46.1758 94.2412 46.1758ZM108.286 36.4902V37.7383H103.145V36.4902H108.286ZM104.885 34.1787H106.511V43.6445C106.511 43.9668 106.561 44.21 106.66 44.374C106.76 44.5381 106.889 44.6465 107.047 44.6992C107.205 44.752 107.375 44.7783 107.557 44.7783C107.691 44.7783 107.832 44.7666 107.979 44.7432C108.131 44.7139 108.245 44.6904 108.321 44.6729L108.33 46C108.201 46.041 108.031 46.0791 107.82 46.1143C107.615 46.1553 107.366 46.1758 107.073 46.1758C106.675 46.1758 106.309 46.0967 105.975 45.9385C105.641 45.7803 105.374 45.5166 105.175 45.1475C104.981 44.7725 104.885 44.2686 104.885 43.6357V34.1787ZM114.14 46.1758C113.478 46.1758 112.877 46.0645 112.338 45.8418C111.805 45.6133 111.345 45.2939 110.958 44.8838C110.577 44.4736 110.284 43.9873 110.079 43.4248C109.874 42.8623 109.771 42.2471 109.771 41.5791V41.21C109.771 40.4365 109.886 39.748 110.114 39.1445C110.343 38.5352 110.653 38.0195 111.046 37.5977C111.438 37.1758 111.884 36.8564 112.382 36.6396C112.88 36.4229 113.396 36.3145 113.929 36.3145C114.608 36.3145 115.194 36.4316 115.687 36.666C116.185 36.9004 116.592 37.2285 116.908 37.6504C117.225 38.0664 117.459 38.5586 117.611 39.127C117.764 39.6895 117.84 40.3047 117.84 40.9727V41.7021H110.738V40.375H116.214V40.252C116.19 39.8301 116.103 39.4199 115.95 39.0215C115.804 38.623 115.569 38.2949 115.247 38.0371C114.925 37.7793 114.485 37.6504 113.929 37.6504C113.56 37.6504 113.22 37.7295 112.909 37.8877C112.599 38.04 112.332 38.2686 112.109 38.5732C111.887 38.8779 111.714 39.25 111.591 39.6895C111.468 40.1289 111.406 40.6357 111.406 41.21V41.5791C111.406 42.0303 111.468 42.4551 111.591 42.8535C111.72 43.2461 111.904 43.5918 112.145 43.8906C112.391 44.1895 112.687 44.4238 113.032 44.5938C113.384 44.7637 113.782 44.8486 114.228 44.8486C114.802 44.8486 115.288 44.7314 115.687 44.4971C116.085 44.2627 116.434 43.9492 116.732 43.5566L117.717 44.3389C117.512 44.6494 117.251 44.9453 116.935 45.2266C116.618 45.5078 116.229 45.7363 115.766 45.9121C115.309 46.0879 114.767 46.1758 114.14 46.1758ZM120.837 36.4902L122.92 39.9531L125.029 36.4902H126.937L123.825 41.1836L127.033 46H125.152L122.955 42.4316L120.758 46H118.868L122.067 41.1836L118.965 36.4902H120.837ZM132.649 36.4902V37.7383H127.508V36.4902H132.649ZM129.248 34.1787H130.874V43.6445C130.874 43.9668 130.924 44.21 131.023 44.374C131.123 44.5381 131.252 44.6465 131.41 44.6992C131.568 44.752 131.738 44.7783 131.92 44.7783C132.055 44.7783 132.195 44.7666 132.342 44.7432C132.494 44.7139 132.608 44.6904 132.685 44.6729L132.693 46C132.564 46.041 132.395 46.0791 132.184 46.1143C131.979 46.1553 131.729 46.1758 131.437 46.1758C131.038 46.1758 130.672 46.0967 130.338 45.9385C130.004 45.7803 129.737 45.5166 129.538 45.1475C129.345 44.7725 129.248 44.2686 129.248 43.6357V34.1787ZM133.95 41.3506V41.1484C133.95 40.4629 134.05 39.8271 134.249 39.2412C134.448 38.6494 134.735 38.1367 135.11 37.7031C135.485 37.2637 135.939 36.9238 136.473 36.6836C137.006 36.4375 137.604 36.3145 138.266 36.3145C138.934 36.3145 139.534 36.4375 140.067 36.6836C140.606 36.9238 141.063 37.2637 141.438 37.7031C141.819 38.1367 142.109 38.6494 142.309 39.2412C142.508 39.8271 142.607 40.4629 142.607 41.1484V41.3506C142.607 42.0361 142.508 42.6719 142.309 43.2578C142.109 43.8438 141.819 44.3564 141.438 44.7959C141.063 45.2295 140.609 45.5693 140.076 45.8154C139.549 46.0557 138.951 46.1758 138.283 46.1758C137.615 46.1758 137.015 46.0557 136.481 45.8154C135.948 45.5693 135.491 45.2295 135.11 44.7959C134.735 44.3564 134.448 43.8438 134.249 43.2578C134.05 42.6719 133.95 42.0361 133.95 41.3506ZM135.576 41.1484V41.3506C135.576 41.8252 135.632 42.2734 135.743 42.6953C135.854 43.1113 136.021 43.4805 136.244 43.8027C136.473 44.125 136.757 44.3799 137.097 44.5674C137.437 44.749 137.832 44.8398 138.283 44.8398C138.729 44.8398 139.118 44.749 139.452 44.5674C139.792 44.3799 140.073 44.125 140.296 43.8027C140.519 43.4805 140.686 43.1113 140.797 42.6953C140.914 42.2734 140.973 41.8252 140.973 41.3506V41.1484C140.973 40.6797 140.914 40.2373 140.797 39.8213C140.686 39.3994 140.516 39.0273 140.287 38.7051C140.064 38.377 139.783 38.1191 139.443 37.9316C139.109 37.7441 138.717 37.6504 138.266 37.6504C137.82 37.6504 137.428 37.7441 137.088 37.9316C136.754 38.1191 136.473 38.377 136.244 38.7051C136.021 39.0273 135.854 39.3994 135.743 39.8213C135.632 40.2373 135.576 40.6797 135.576 41.1484ZM154.648 43.4775C154.648 43.2432 154.596 43.0264 154.49 42.8271C154.391 42.6221 154.183 42.4375 153.866 42.2734C153.556 42.1035 153.087 41.957 152.46 41.834C151.933 41.7227 151.455 41.5908 151.027 41.4385C150.605 41.2861 150.245 41.1016 149.946 40.8848C149.653 40.668 149.428 40.4131 149.27 40.1201C149.111 39.8271 149.032 39.4844 149.032 39.0918C149.032 38.7168 149.114 38.3623 149.278 38.0283C149.448 37.6943 149.686 37.3984 149.99 37.1406C150.301 36.8828 150.673 36.6807 151.106 36.5342C151.54 36.3877 152.023 36.3145 152.557 36.3145C153.318 36.3145 153.969 36.4492 154.508 36.7188C155.047 36.9883 155.46 37.3486 155.747 37.7998C156.034 38.2451 156.178 38.7402 156.178 39.2852H154.552C154.552 39.0215 154.473 38.7666 154.314 38.5205C154.162 38.2686 153.937 38.0605 153.638 37.8965C153.345 37.7324 152.984 37.6504 152.557 37.6504C152.105 37.6504 151.739 37.7207 151.458 37.8613C151.183 37.9961 150.98 38.1689 150.852 38.3799C150.729 38.5908 150.667 38.8135 150.667 39.0479C150.667 39.2236 150.696 39.3818 150.755 39.5225C150.819 39.6572 150.931 39.7832 151.089 39.9004C151.247 40.0117 151.47 40.1172 151.757 40.2168C152.044 40.3164 152.41 40.416 152.855 40.5156C153.635 40.6914 154.276 40.9023 154.78 41.1484C155.284 41.3945 155.659 41.6963 155.905 42.0537C156.151 42.4111 156.274 42.8447 156.274 43.3545C156.274 43.7705 156.187 44.1514 156.011 44.4971C155.841 44.8428 155.592 45.1416 155.264 45.3936C154.941 45.6396 154.555 45.833 154.104 45.9736C153.658 46.1084 153.157 46.1758 152.601 46.1758C151.763 46.1758 151.054 46.0264 150.474 45.7275C149.894 45.4287 149.454 45.042 149.155 44.5674C148.856 44.0928 148.707 43.5918 148.707 43.0645H150.342C150.365 43.5098 150.494 43.8643 150.729 44.1279C150.963 44.3857 151.25 44.5703 151.59 44.6816C151.93 44.7871 152.267 44.8398 152.601 44.8398C153.046 44.8398 153.418 44.7812 153.717 44.6641C154.021 44.5469 154.253 44.3857 154.411 44.1807C154.569 43.9756 154.648 43.7412 154.648 43.4775ZM157.979 41.3506V41.1484C157.979 40.4629 158.079 39.8271 158.278 39.2412C158.478 38.6494 158.765 38.1367 159.14 37.7031C159.515 37.2637 159.969 36.9238 160.502 36.6836C161.035 36.4375 161.633 36.3145 162.295 36.3145C162.963 36.3145 163.563 36.4375 164.097 36.6836C164.636 36.9238 165.093 37.2637 165.468 37.7031C165.849 38.1367 166.139 38.6494 166.338 39.2412C166.537 39.8271 166.637 40.4629 166.637 41.1484V41.3506C166.637 42.0361 166.537 42.6719 166.338 43.2578C166.139 43.8438 165.849 44.3564 165.468 44.7959C165.093 45.2295 164.639 45.5693 164.105 45.8154C163.578 46.0557 162.98 46.1758 162.312 46.1758C161.645 46.1758 161.044 46.0557 160.511 45.8154C159.978 45.5693 159.521 45.2295 159.14 44.7959C158.765 44.3564 158.478 43.8438 158.278 43.2578C158.079 42.6719 157.979 42.0361 157.979 41.3506ZM159.605 41.1484V41.3506C159.605 41.8252 159.661 42.2734 159.772 42.6953C159.884 43.1113 160.051 43.4805 160.273 43.8027C160.502 44.125 160.786 44.3799 161.126 44.5674C161.466 44.749 161.861 44.8398 162.312 44.8398C162.758 44.8398 163.147 44.749 163.481 44.5674C163.821 44.3799 164.103 44.125 164.325 43.8027C164.548 43.4805 164.715 43.1113 164.826 42.6953C164.943 42.2734 165.002 41.8252 165.002 41.3506V41.1484C165.002 40.6797 164.943 40.2373 164.826 39.8213C164.715 39.3994 164.545 39.0273 164.316 38.7051C164.094 38.377 163.812 38.1191 163.473 37.9316C163.139 37.7441 162.746 37.6504 162.295 37.6504C161.85 37.6504 161.457 37.7441 161.117 37.9316C160.783 38.1191 160.502 38.377 160.273 38.7051C160.051 39.0273 159.884 39.3994 159.772 39.8213C159.661 40.2373 159.605 40.6797 159.605 41.1484ZM168.667 32.5H170.302V44.1543L170.161 46H168.667V32.5ZM176.727 41.166V41.3506C176.727 42.042 176.645 42.6836 176.48 43.2754C176.316 43.8613 176.076 44.3711 175.76 44.8047C175.443 45.2383 175.057 45.5752 174.6 45.8154C174.143 46.0557 173.618 46.1758 173.026 46.1758C172.423 46.1758 171.893 46.0732 171.436 45.8682C170.984 45.6572 170.604 45.3555 170.293 44.9629C169.982 44.5703 169.733 44.0957 169.546 43.5391C169.364 42.9824 169.238 42.3555 169.168 41.6582V40.8496C169.238 40.1465 169.364 39.5166 169.546 38.96C169.733 38.4033 169.982 37.9287 170.293 37.5361C170.604 37.1377 170.984 36.8359 171.436 36.6309C171.887 36.4199 172.411 36.3145 173.009 36.3145C173.606 36.3145 174.137 36.4316 174.6 36.666C175.062 36.8945 175.449 37.2227 175.76 37.6504C176.076 38.0781 176.316 38.5908 176.48 39.1885C176.645 39.7803 176.727 40.4395 176.727 41.166ZM175.092 41.3506V41.166C175.092 40.6914 175.048 40.2461 174.96 39.8301C174.872 39.4082 174.731 39.0391 174.538 38.7227C174.345 38.4004 174.09 38.1484 173.773 37.9668C173.457 37.7793 173.067 37.6855 172.604 37.6855C172.194 37.6855 171.837 37.7559 171.532 37.8965C171.233 38.0371 170.979 38.2275 170.768 38.4678C170.557 38.7021 170.384 38.9717 170.249 39.2764C170.12 39.5752 170.023 39.8857 169.959 40.208V42.3262C170.053 42.7363 170.205 43.1318 170.416 43.5127C170.633 43.8877 170.92 44.1953 171.277 44.4355C171.641 44.6758 172.089 44.7959 172.622 44.7959C173.062 44.7959 173.437 44.708 173.747 44.5322C174.063 44.3506 174.318 44.1016 174.512 43.7852C174.711 43.4688 174.857 43.1025 174.951 42.6865C175.045 42.2705 175.092 41.8252 175.092 41.3506ZM180.409 37.9844V46H178.783V36.4902H180.365L180.409 37.9844ZM183.38 36.4375L183.371 37.9492C183.236 37.9199 183.107 37.9023 182.984 37.8965C182.867 37.8848 182.732 37.8789 182.58 37.8789C182.205 37.8789 181.874 37.9375 181.587 38.0547C181.3 38.1719 181.057 38.3359 180.857 38.5469C180.658 38.7578 180.5 39.0098 180.383 39.3027C180.271 39.5898 180.198 39.9062 180.163 40.252L179.706 40.5156C179.706 39.9414 179.762 39.4023 179.873 38.8984C179.99 38.3945 180.169 37.9492 180.409 37.5625C180.649 37.1699 180.954 36.8652 181.323 36.6484C181.698 36.4258 182.144 36.3145 182.659 36.3145C182.776 36.3145 182.911 36.3291 183.063 36.3584C183.216 36.3818 183.321 36.4082 183.38 36.4375ZM188.653 46.1758C187.991 46.1758 187.391 46.0645 186.852 45.8418C186.318 45.6133 185.858 45.2939 185.472 44.8838C185.091 44.4736 184.798 43.9873 184.593 43.4248C184.388 42.8623 184.285 42.2471 184.285 41.5791V41.21C184.285 40.4365 184.399 39.748 184.628 39.1445C184.856 38.5352 185.167 38.0195 185.56 37.5977C185.952 37.1758 186.397 36.8564 186.896 36.6396C187.394 36.4229 187.909 36.3145 188.442 36.3145C189.122 36.3145 189.708 36.4316 190.2 36.666C190.698 36.9004 191.105 37.2285 191.422 37.6504C191.738 38.0664 191.973 38.5586 192.125 39.127C192.277 39.6895 192.354 40.3047 192.354 40.9727V41.7021H185.252V40.375H190.728V40.252C190.704 39.8301 190.616 39.4199 190.464 39.0215C190.317 38.623 190.083 38.2949 189.761 38.0371C189.438 37.7793 188.999 37.6504 188.442 37.6504C188.073 37.6504 187.733 37.7295 187.423 37.8877C187.112 38.04 186.846 38.2686 186.623 38.5732C186.4 38.8779 186.228 39.25 186.104 39.6895C185.981 40.1289 185.92 40.6357 185.92 41.21V41.5791C185.92 42.0303 185.981 42.4551 186.104 42.8535C186.233 43.2461 186.418 43.5918 186.658 43.8906C186.904 44.1895 187.2 44.4238 187.546 44.5938C187.897 44.7637 188.296 44.8486 188.741 44.8486C189.315 44.8486 189.802 44.7314 190.2 44.4971C190.599 44.2627 190.947 43.9492 191.246 43.5566L192.23 44.3389C192.025 44.6494 191.765 44.9453 191.448 45.2266C191.132 45.5078 190.742 45.7363 190.279 45.9121C189.822 46.0879 189.28 46.1758 188.653 46.1758ZM200.483 32.5V46H198.849V32.5H200.483ZM202.663 41.3506V41.1484C202.663 40.4629 202.763 39.8271 202.962 39.2412C203.161 38.6494 203.448 38.1367 203.823 37.7031C204.198 37.2637 204.652 36.9238 205.186 36.6836C205.719 36.4375 206.316 36.3145 206.979 36.3145C207.646 36.3145 208.247 36.4375 208.78 36.6836C209.319 36.9238 209.776 37.2637 210.151 37.7031C210.532 38.1367 210.822 38.6494 211.021 39.2412C211.221 39.8271 211.32 40.4629 211.32 41.1484V41.3506C211.32 42.0361 211.221 42.6719 211.021 43.2578C210.822 43.8438 210.532 44.3564 210.151 44.7959C209.776 45.2295 209.322 45.5693 208.789 45.8154C208.262 46.0557 207.664 46.1758 206.996 46.1758C206.328 46.1758 205.728 46.0557 205.194 45.8154C204.661 45.5693 204.204 45.2295 203.823 44.7959C203.448 44.3564 203.161 43.8438 202.962 43.2578C202.763 42.6719 202.663 42.0361 202.663 41.3506ZM204.289 41.1484V41.3506C204.289 41.8252 204.345 42.2734 204.456 42.6953C204.567 43.1113 204.734 43.4805 204.957 43.8027C205.186 44.125 205.47 44.3799 205.81 44.5674C206.149 44.749 206.545 44.8398 206.996 44.8398C207.441 44.8398 207.831 44.749 208.165 44.5674C208.505 44.3799 208.786 44.125 209.009 43.8027C209.231 43.4805 209.398 43.1113 209.51 42.6953C209.627 42.2734 209.686 41.8252 209.686 41.3506V41.1484C209.686 40.6797 209.627 40.2373 209.51 39.8213C209.398 39.3994 209.229 39.0273 209 38.7051C208.777 38.377 208.496 38.1191 208.156 37.9316C207.822 37.7441 207.43 37.6504 206.979 37.6504C206.533 37.6504 206.141 37.7441 205.801 37.9316C205.467 38.1191 205.186 38.377 204.957 38.7051C204.734 39.0273 204.567 39.3994 204.456 39.8213C204.345 40.2373 204.289 40.6797 204.289 41.1484ZM218.896 43.4775C218.896 43.2432 218.844 43.0264 218.738 42.8271C218.639 42.6221 218.431 42.4375 218.114 42.2734C217.804 42.1035 217.335 41.957 216.708 41.834C216.181 41.7227 215.703 41.5908 215.275 41.4385C214.854 41.2861 214.493 41.1016 214.194 40.8848C213.901 40.668 213.676 40.4131 213.518 40.1201C213.359 39.8271 213.28 39.4844 213.28 39.0918C213.28 38.7168 213.362 38.3623 213.526 38.0283C213.696 37.6943 213.934 37.3984 214.238 37.1406C214.549 36.8828 214.921 36.6807 215.354 36.5342C215.788 36.3877 216.271 36.3145 216.805 36.3145C217.566 36.3145 218.217 36.4492 218.756 36.7188C219.295 36.9883 219.708 37.3486 219.995 37.7998C220.282 38.2451 220.426 38.7402 220.426 39.2852H218.8C218.8 39.0215 218.721 38.7666 218.562 38.5205C218.41 38.2686 218.185 38.0605 217.886 37.8965C217.593 37.7324 217.232 37.6504 216.805 37.6504C216.354 37.6504 215.987 37.7207 215.706 37.8613C215.431 37.9961 215.229 38.1689 215.1 38.3799C214.977 38.5908 214.915 38.8135 214.915 39.0479C214.915 39.2236 214.944 39.3818 215.003 39.5225C215.067 39.6572 215.179 39.7832 215.337 39.9004C215.495 40.0117 215.718 40.1172 216.005 40.2168C216.292 40.3164 216.658 40.416 217.104 40.5156C217.883 40.6914 218.524 40.9023 219.028 41.1484C219.532 41.3945 219.907 41.6963 220.153 42.0537C220.399 42.4111 220.522 42.8447 220.522 43.3545C220.522 43.7705 220.435 44.1514 220.259 44.4971C220.089 44.8428 219.84 45.1416 219.512 45.3936C219.189 45.6396 218.803 45.833 218.352 45.9736C217.906 46.1084 217.405 46.1758 216.849 46.1758C216.011 46.1758 215.302 46.0264 214.722 45.7275C214.142 45.4287 213.702 45.042 213.403 44.5674C213.104 44.0928 212.955 43.5918 212.955 43.0645H214.59C214.613 43.5098 214.742 43.8643 214.977 44.1279C215.211 44.3857 215.498 44.5703 215.838 44.6816C216.178 44.7871 216.515 44.8398 216.849 44.8398C217.294 44.8398 217.666 44.7812 217.965 44.6641C218.27 44.5469 218.501 44.3857 218.659 44.1807C218.817 43.9756 218.896 43.7412 218.896 43.4775ZM56.5889 57.4902V67H54.9541V57.4902H56.5889ZM54.8311 54.9678C54.8311 54.7041 54.9102 54.4814 55.0684 54.2998C55.2324 54.1182 55.4727 54.0273 55.7891 54.0273C56.0996 54.0273 56.3369 54.1182 56.501 54.2998C56.6709 54.4814 56.7559 54.7041 56.7559 54.9678C56.7559 55.2197 56.6709 55.4365 56.501 55.6182C56.3369 55.7939 56.0996 55.8818 55.7891 55.8818C55.4727 55.8818 55.2324 55.7939 55.0684 55.6182C54.9102 55.4365 54.8311 55.2197 54.8311 54.9678ZM60.8252 59.5205V67H59.1992V57.4902H60.7373L60.8252 59.5205ZM60.4385 61.8848L59.7617 61.8584C59.7676 61.208 59.8643 60.6074 60.0518 60.0566C60.2393 59.5 60.5029 59.0166 60.8428 58.6064C61.1826 58.1963 61.5869 57.8799 62.0557 57.6572C62.5303 57.4287 63.0547 57.3145 63.6289 57.3145C64.0977 57.3145 64.5195 57.3789 64.8945 57.5078C65.2695 57.6309 65.5889 57.8301 65.8525 58.1055C66.1221 58.3809 66.3271 58.7383 66.4678 59.1777C66.6084 59.6113 66.6787 60.1416 66.6787 60.7686V67H65.0439V60.751C65.0439 60.2529 64.9707 59.8545 64.8242 59.5557C64.6777 59.251 64.4639 59.0312 64.1826 58.8965C63.9014 58.7559 63.5557 58.6855 63.1455 58.6855C62.7412 58.6855 62.3721 58.7705 62.0381 58.9404C61.71 59.1104 61.4258 59.3447 61.1855 59.6436C60.9512 59.9424 60.7666 60.2852 60.6318 60.6719C60.5029 61.0527 60.4385 61.457 60.4385 61.8848ZM72.9541 65.8398C73.3408 65.8398 73.6982 65.7607 74.0264 65.6025C74.3545 65.4443 74.624 65.2275 74.835 64.9521C75.0459 64.6709 75.166 64.3516 75.1953 63.9941H76.7422C76.7129 64.5566 76.5225 65.0811 76.1709 65.5674C75.8252 66.0479 75.3711 66.4375 74.8086 66.7363C74.2461 67.0293 73.6279 67.1758 72.9541 67.1758C72.2393 67.1758 71.6152 67.0498 71.082 66.7979C70.5547 66.5459 70.1152 66.2002 69.7637 65.7607C69.418 65.3213 69.1572 64.8174 68.9814 64.249C68.8115 63.6748 68.7266 63.0684 68.7266 62.4297V62.0605C68.7266 61.4219 68.8115 60.8184 68.9814 60.25C69.1572 59.6758 69.418 59.1689 69.7637 58.7295C70.1152 58.29 70.5547 57.9443 71.082 57.6924C71.6152 57.4404 72.2393 57.3145 72.9541 57.3145C73.6982 57.3145 74.3486 57.4668 74.9053 57.7715C75.4619 58.0703 75.8984 58.4805 76.2148 59.002C76.5371 59.5176 76.7129 60.1035 76.7422 60.7598H75.1953C75.166 60.3672 75.0547 60.0127 74.8613 59.6963C74.6738 59.3799 74.416 59.1279 74.0879 58.9404C73.7656 58.7471 73.3877 58.6504 72.9541 58.6504C72.4561 58.6504 72.0371 58.75 71.6973 58.9492C71.3633 59.1426 71.0967 59.4062 70.8975 59.7402C70.7041 60.0684 70.5635 60.4346 70.4756 60.8389C70.3936 61.2373 70.3525 61.6445 70.3525 62.0605V62.4297C70.3525 62.8457 70.3936 63.2559 70.4756 63.6602C70.5576 64.0645 70.6953 64.4307 70.8887 64.7588C71.0879 65.0869 71.3545 65.3506 71.6885 65.5498C72.0283 65.7432 72.4502 65.8398 72.9541 65.8398ZM84.1777 65.374V60.4785C84.1777 60.1035 84.1016 59.7783 83.9492 59.5029C83.8027 59.2217 83.5801 59.0049 83.2812 58.8525C82.9824 58.7002 82.6133 58.624 82.1738 58.624C81.7637 58.624 81.4033 58.6943 81.0928 58.835C80.7881 58.9756 80.5479 59.1602 80.3721 59.3887C80.2021 59.6172 80.1172 59.8633 80.1172 60.127H78.4912C78.4912 59.7871 78.5791 59.4502 78.7549 59.1162C78.9307 58.7822 79.1826 58.4805 79.5107 58.2109C79.8447 57.9355 80.2432 57.7188 80.7061 57.5605C81.1748 57.3965 81.6963 57.3145 82.2705 57.3145C82.9619 57.3145 83.5713 57.4316 84.0986 57.666C84.6318 57.9004 85.0479 58.2549 85.3467 58.7295C85.6514 59.1982 85.8037 59.7871 85.8037 60.4961V64.9258C85.8037 65.2422 85.8301 65.5791 85.8828 65.9365C85.9414 66.2939 86.0264 66.6016 86.1377 66.8594V67H84.4414C84.3594 66.8125 84.2949 66.5635 84.248 66.2529C84.2012 65.9365 84.1777 65.6436 84.1777 65.374ZM84.459 61.2344L84.4766 62.377H82.833C82.3701 62.377 81.957 62.415 81.5938 62.4912C81.2305 62.5615 80.9258 62.6699 80.6797 62.8164C80.4336 62.9629 80.2461 63.1475 80.1172 63.3701C79.9883 63.5869 79.9238 63.8418 79.9238 64.1348C79.9238 64.4336 79.9912 64.7061 80.126 64.9521C80.2607 65.1982 80.4629 65.3945 80.7324 65.541C81.0078 65.6816 81.3447 65.752 81.7432 65.752C82.2412 65.752 82.6807 65.6465 83.0615 65.4355C83.4424 65.2246 83.7441 64.9668 83.9668 64.6621C84.1953 64.3574 84.3184 64.0615 84.3359 63.7744L85.0303 64.5566C84.9893 64.8027 84.8779 65.0752 84.6963 65.374C84.5146 65.6729 84.2715 65.96 83.9668 66.2354C83.668 66.5049 83.3105 66.7305 82.8945 66.9121C82.4844 67.0879 82.0215 67.1758 81.5059 67.1758C80.8613 67.1758 80.2959 67.0498 79.8096 66.7979C79.3291 66.5459 78.9541 66.209 78.6846 65.7871C78.4209 65.3594 78.2891 64.8818 78.2891 64.3545C78.2891 63.8447 78.3887 63.3965 78.5879 63.0098C78.7871 62.6172 79.0742 62.292 79.4492 62.0342C79.8242 61.7705 80.2754 61.5713 80.8027 61.4365C81.3301 61.3018 81.9189 61.2344 82.5693 61.2344H84.459ZM93.8984 64.4775C93.8984 64.2432 93.8457 64.0264 93.7402 63.8271C93.6406 63.6221 93.4326 63.4375 93.1162 63.2734C92.8057 63.1035 92.3369 62.957 91.71 62.834C91.1826 62.7227 90.7051 62.5908 90.2773 62.4385C89.8555 62.2861 89.4951 62.1016 89.1963 61.8848C88.9033 61.668 88.6777 61.4131 88.5195 61.1201C88.3613 60.8271 88.2822 60.4844 88.2822 60.0918C88.2822 59.7168 88.3643 59.3623 88.5283 59.0283C88.6982 58.6943 88.9355 58.3984 89.2402 58.1406C89.5508 57.8828 89.9229 57.6807 90.3564 57.5342C90.79 57.3877 91.2734 57.3145 91.8066 57.3145C92.5684 57.3145 93.2188 57.4492 93.7578 57.7188C94.2969 57.9883 94.71 58.3486 94.9971 58.7998C95.2842 59.2451 95.4277 59.7402 95.4277 60.2852H93.8018C93.8018 60.0215 93.7227 59.7666 93.5645 59.5205C93.4121 59.2686 93.1865 59.0605 92.8877 58.8965C92.5947 58.7324 92.2344 58.6504 91.8066 58.6504C91.3555 58.6504 90.9893 58.7207 90.708 58.8613C90.4326 58.9961 90.2305 59.1689 90.1016 59.3799C89.9785 59.5908 89.917 59.8135 89.917 60.0479C89.917 60.2236 89.9463 60.3818 90.0049 60.5225C90.0693 60.6572 90.1807 60.7832 90.3389 60.9004C90.4971 61.0117 90.7197 61.1172 91.0068 61.2168C91.2939 61.3164 91.6602 61.416 92.1055 61.5156C92.8848 61.6914 93.5264 61.9023 94.0303 62.1484C94.5342 62.3945 94.9092 62.6963 95.1553 63.0537C95.4014 63.4111 95.5244 63.8447 95.5244 64.3545C95.5244 64.7705 95.4365 65.1514 95.2607 65.4971C95.0908 65.8428 94.8418 66.1416 94.5137 66.3936C94.1914 66.6396 93.8047 66.833 93.3535 66.9736C92.9082 67.1084 92.4072 67.1758 91.8506 67.1758C91.0127 67.1758 90.3037 67.0264 89.7236 66.7275C89.1436 66.4287 88.7041 66.042 88.4053 65.5674C88.1064 65.0928 87.957 64.5918 87.957 64.0645H89.5918C89.6152 64.5098 89.7441 64.8643 89.9785 65.1279C90.2129 65.3857 90.5 65.5703 90.8398 65.6816C91.1797 65.7871 91.5166 65.8398 91.8506 65.8398C92.2959 65.8398 92.668 65.7812 92.9668 65.6641C93.2715 65.5469 93.5029 65.3857 93.6611 65.1807C93.8193 64.9756 93.8984 64.7412 93.8984 64.4775ZM104.797 66.0156L107.442 57.4902H109.183L105.368 68.4678C105.28 68.7021 105.163 68.9541 105.017 69.2236C104.876 69.499 104.694 69.7598 104.472 70.0059C104.249 70.252 103.979 70.4512 103.663 70.6035C103.353 70.7617 102.98 70.8408 102.547 70.8408C102.418 70.8408 102.254 70.8232 102.055 70.7881C101.855 70.7529 101.715 70.7236 101.633 70.7002L101.624 69.3818C101.671 69.3877 101.744 69.3936 101.844 69.3994C101.949 69.4111 102.022 69.417 102.063 69.417C102.433 69.417 102.746 69.3672 103.004 69.2676C103.262 69.1738 103.479 69.0127 103.654 68.7842C103.836 68.5615 103.991 68.2539 104.12 67.8613L104.797 66.0156ZM102.854 57.4902L105.324 64.873L105.746 66.5869L104.577 67.1846L101.079 57.4902H102.854ZM116.741 58.9844V67H115.115V57.4902H116.697L116.741 58.9844ZM119.712 57.4375L119.703 58.9492C119.568 58.9199 119.439 58.9023 119.316 58.8965C119.199 58.8848 119.064 58.8789 118.912 58.8789C118.537 58.8789 118.206 58.9375 117.919 59.0547C117.632 59.1719 117.389 59.3359 117.189 59.5469C116.99 59.7578 116.832 60.0098 116.715 60.3027C116.604 60.5898 116.53 60.9062 116.495 61.252L116.038 61.5156C116.038 60.9414 116.094 60.4023 116.205 59.8984C116.322 59.3945 116.501 58.9492 116.741 58.5625C116.981 58.1699 117.286 57.8652 117.655 57.6484C118.03 57.4258 118.476 57.3145 118.991 57.3145C119.108 57.3145 119.243 57.3291 119.396 57.3584C119.548 57.3818 119.653 57.4082 119.712 57.4375ZM124.985 67.1758C124.323 67.1758 123.723 67.0645 123.184 66.8418C122.65 66.6133 122.19 66.2939 121.804 65.8838C121.423 65.4736 121.13 64.9873 120.925 64.4248C120.72 63.8623 120.617 63.2471 120.617 62.5791V62.21C120.617 61.4365 120.731 60.748 120.96 60.1445C121.188 59.5352 121.499 59.0195 121.892 58.5977C122.284 58.1758 122.729 57.8564 123.228 57.6396C123.726 57.4229 124.241 57.3145 124.774 57.3145C125.454 57.3145 126.04 57.4316 126.532 57.666C127.03 57.9004 127.438 58.2285 127.754 58.6504C128.07 59.0664 128.305 59.5586 128.457 60.127C128.609 60.6895 128.686 61.3047 128.686 61.9727V62.7021H121.584V61.375H127.06V61.252C127.036 60.8301 126.948 60.4199 126.796 60.0215C126.649 59.623 126.415 59.2949 126.093 59.0371C125.771 58.7793 125.331 58.6504 124.774 58.6504C124.405 58.6504 124.065 58.7295 123.755 58.8877C123.444 59.04 123.178 59.2686 122.955 59.5732C122.732 59.8779 122.56 60.25 122.437 60.6895C122.313 61.1289 122.252 61.6357 122.252 62.21V62.5791C122.252 63.0303 122.313 63.4551 122.437 63.8535C122.565 64.2461 122.75 64.5918 122.99 64.8906C123.236 65.1895 123.532 65.4238 123.878 65.5938C124.229 65.7637 124.628 65.8486 125.073 65.8486C125.647 65.8486 126.134 65.7314 126.532 65.4971C126.931 65.2627 127.279 64.9492 127.578 64.5566L128.562 65.3389C128.357 65.6494 128.097 65.9453 127.78 66.2266C127.464 66.5078 127.074 66.7363 126.611 66.9121C126.154 67.0879 125.612 67.1758 124.985 67.1758ZM136.121 64.4775C136.121 64.2432 136.068 64.0264 135.963 63.8271C135.863 63.6221 135.655 63.4375 135.339 63.2734C135.028 63.1035 134.56 62.957 133.933 62.834C133.405 62.7227 132.928 62.5908 132.5 62.4385C132.078 62.2861 131.718 62.1016 131.419 61.8848C131.126 61.668 130.9 61.4131 130.742 61.1201C130.584 60.8271 130.505 60.4844 130.505 60.0918C130.505 59.7168 130.587 59.3623 130.751 59.0283C130.921 58.6943 131.158 58.3984 131.463 58.1406C131.773 57.8828 132.146 57.6807 132.579 57.5342C133.013 57.3877 133.496 57.3145 134.029 57.3145C134.791 57.3145 135.441 57.4492 135.98 57.7188C136.52 57.9883 136.933 58.3486 137.22 58.7998C137.507 59.2451 137.65 59.7402 137.65 60.2852H136.024C136.024 60.0215 135.945 59.7666 135.787 59.5205C135.635 59.2686 135.409 59.0605 135.11 58.8965C134.817 58.7324 134.457 58.6504 134.029 58.6504C133.578 58.6504 133.212 58.7207 132.931 58.8613C132.655 58.9961 132.453 59.1689 132.324 59.3799C132.201 59.5908 132.14 59.8135 132.14 60.0479C132.14 60.2236 132.169 60.3818 132.228 60.5225C132.292 60.6572 132.403 60.7832 132.562 60.9004C132.72 61.0117 132.942 61.1172 133.229 61.2168C133.517 61.3164 133.883 61.416 134.328 61.5156C135.107 61.6914 135.749 61.9023 136.253 62.1484C136.757 62.3945 137.132 62.6963 137.378 63.0537C137.624 63.4111 137.747 63.8447 137.747 64.3545C137.747 64.7705 137.659 65.1514 137.483 65.4971C137.313 65.8428 137.064 66.1416 136.736 66.3936C136.414 66.6396 136.027 66.833 135.576 66.9736C135.131 67.1084 134.63 67.1758 134.073 67.1758C133.235 67.1758 132.526 67.0264 131.946 66.7275C131.366 66.4287 130.927 66.042 130.628 65.5674C130.329 65.0928 130.18 64.5918 130.18 64.0645H131.814C131.838 64.5098 131.967 64.8643 132.201 65.1279C132.436 65.3857 132.723 65.5703 133.062 65.6816C133.402 65.7871 133.739 65.8398 134.073 65.8398C134.519 65.8398 134.891 65.7812 135.189 65.6641C135.494 65.5469 135.726 65.3857 135.884 65.1807C136.042 64.9756 136.121 64.7412 136.121 64.4775ZM141.509 59.3184V70.6562H139.874V57.4902H141.368L141.509 59.3184ZM147.916 62.166V62.3506C147.916 63.042 147.834 63.6836 147.67 64.2754C147.506 64.8613 147.266 65.3711 146.949 65.8047C146.639 66.2383 146.255 66.5752 145.798 66.8154C145.341 67.0557 144.816 67.1758 144.225 67.1758C143.621 67.1758 143.088 67.0762 142.625 66.877C142.162 66.6777 141.77 66.3877 141.447 66.0068C141.125 65.626 140.867 65.1689 140.674 64.6357C140.486 64.1025 140.357 63.502 140.287 62.834V61.8496C140.357 61.1465 140.489 60.5166 140.683 59.96C140.876 59.4033 141.131 58.9287 141.447 58.5361C141.77 58.1377 142.159 57.8359 142.616 57.6309C143.073 57.4199 143.601 57.3145 144.198 57.3145C144.796 57.3145 145.326 57.4316 145.789 57.666C146.252 57.8945 146.642 58.2227 146.958 58.6504C147.274 59.0781 147.512 59.5908 147.67 60.1885C147.834 60.7803 147.916 61.4395 147.916 62.166ZM146.281 62.3506V62.166C146.281 61.6914 146.231 61.2461 146.132 60.8301C146.032 60.4082 145.877 60.0391 145.666 59.7227C145.461 59.4004 145.197 59.1484 144.875 58.9668C144.553 58.7793 144.169 58.6855 143.724 58.6855C143.313 58.6855 142.956 58.7559 142.651 58.8965C142.353 59.0371 142.098 59.2275 141.887 59.4678C141.676 59.7021 141.503 59.9717 141.368 60.2764C141.239 60.5752 141.143 60.8857 141.078 61.208V63.4844C141.195 63.8945 141.359 64.2812 141.57 64.6445C141.781 65.002 142.062 65.292 142.414 65.5146C142.766 65.7314 143.208 65.8398 143.741 65.8398C144.181 65.8398 144.559 65.749 144.875 65.5674C145.197 65.3799 145.461 65.125 145.666 64.8027C145.877 64.4805 146.032 64.1113 146.132 63.6953C146.231 63.2734 146.281 62.8252 146.281 62.3506ZM149.56 62.3506V62.1484C149.56 61.4629 149.659 60.8271 149.858 60.2412C150.058 59.6494 150.345 59.1367 150.72 58.7031C151.095 58.2637 151.549 57.9238 152.082 57.6836C152.615 57.4375 153.213 57.3145 153.875 57.3145C154.543 57.3145 155.144 57.4375 155.677 57.6836C156.216 57.9238 156.673 58.2637 157.048 58.7031C157.429 59.1367 157.719 59.6494 157.918 60.2412C158.117 60.8271 158.217 61.4629 158.217 62.1484V62.3506C158.217 63.0361 158.117 63.6719 157.918 64.2578C157.719 64.8438 157.429 65.3564 157.048 65.7959C156.673 66.2295 156.219 66.5693 155.686 66.8154C155.158 67.0557 154.561 67.1758 153.893 67.1758C153.225 67.1758 152.624 67.0557 152.091 66.8154C151.558 66.5693 151.101 66.2295 150.72 65.7959C150.345 65.3564 150.058 64.8438 149.858 64.2578C149.659 63.6719 149.56 63.0361 149.56 62.3506ZM151.186 62.1484V62.3506C151.186 62.8252 151.241 63.2734 151.353 63.6953C151.464 64.1113 151.631 64.4805 151.854 64.8027C152.082 65.125 152.366 65.3799 152.706 65.5674C153.046 65.749 153.441 65.8398 153.893 65.8398C154.338 65.8398 154.728 65.749 155.062 65.5674C155.401 65.3799 155.683 65.125 155.905 64.8027C156.128 64.4805 156.295 64.1113 156.406 63.6953C156.523 63.2734 156.582 62.8252 156.582 62.3506V62.1484C156.582 61.6797 156.523 61.2373 156.406 60.8213C156.295 60.3994 156.125 60.0273 155.896 59.7051C155.674 59.377 155.393 59.1191 155.053 58.9316C154.719 58.7441 154.326 58.6504 153.875 58.6504C153.43 58.6504 153.037 58.7441 152.697 58.9316C152.363 59.1191 152.082 59.377 151.854 59.7051C151.631 60.0273 151.464 60.3994 151.353 60.8213C151.241 61.2373 151.186 61.6797 151.186 62.1484ZM161.882 59.5205V67H160.256V57.4902H161.794L161.882 59.5205ZM161.495 61.8848L160.818 61.8584C160.824 61.208 160.921 60.6074 161.108 60.0566C161.296 59.5 161.56 59.0166 161.899 58.6064C162.239 58.1963 162.644 57.8799 163.112 57.6572C163.587 57.4287 164.111 57.3145 164.686 57.3145C165.154 57.3145 165.576 57.3789 165.951 57.5078C166.326 57.6309 166.646 57.8301 166.909 58.1055C167.179 58.3809 167.384 58.7383 167.524 59.1777C167.665 59.6113 167.735 60.1416 167.735 60.7686V67H166.101V60.751C166.101 60.2529 166.027 59.8545 165.881 59.5557C165.734 59.251 165.521 59.0312 165.239 58.8965C164.958 58.7559 164.612 58.6855 164.202 58.6855C163.798 58.6855 163.429 58.7705 163.095 58.9404C162.767 59.1104 162.482 59.3447 162.242 59.6436C162.008 59.9424 161.823 60.2852 161.688 60.6719C161.56 61.0527 161.495 61.457 161.495 61.8848ZM176.199 65.1543V53.5H177.834V67H176.34L176.199 65.1543ZM169.801 62.3506V62.166C169.801 61.4395 169.889 60.7803 170.064 60.1885C170.246 59.5908 170.501 59.0781 170.829 58.6504C171.163 58.2227 171.559 57.8945 172.016 57.666C172.479 57.4316 172.994 57.3145 173.562 57.3145C174.16 57.3145 174.682 57.4199 175.127 57.6309C175.578 57.8359 175.959 58.1377 176.27 58.5361C176.586 58.9287 176.835 59.4033 177.017 59.96C177.198 60.5166 177.324 61.1465 177.395 61.8496V62.6582C177.33 63.3555 177.204 63.9824 177.017 64.5391C176.835 65.0957 176.586 65.5703 176.27 65.9629C175.959 66.3555 175.578 66.6572 175.127 66.8682C174.676 67.0732 174.148 67.1758 173.545 67.1758C172.988 67.1758 172.479 67.0557 172.016 66.8154C171.559 66.5752 171.163 66.2383 170.829 65.8047C170.501 65.3711 170.246 64.8613 170.064 64.2754C169.889 63.6836 169.801 63.042 169.801 62.3506ZM171.436 62.166V62.3506C171.436 62.8252 171.482 63.2705 171.576 63.6865C171.676 64.1025 171.828 64.4688 172.033 64.7852C172.238 65.1016 172.499 65.3506 172.815 65.5322C173.132 65.708 173.51 65.7959 173.949 65.7959C174.488 65.7959 174.931 65.6816 175.276 65.4531C175.628 65.2246 175.909 64.9229 176.12 64.5479C176.331 64.1729 176.495 63.7656 176.612 63.3262V61.208C176.542 60.8857 176.439 60.5752 176.305 60.2764C176.176 59.9717 176.006 59.7021 175.795 59.4678C175.59 59.2275 175.335 59.0371 175.03 58.8965C174.731 58.7559 174.377 58.6855 173.967 58.6855C173.521 58.6855 173.138 58.7793 172.815 58.9668C172.499 59.1484 172.238 59.4004 172.033 59.7227C171.828 60.0391 171.676 60.4082 171.576 60.8301C171.482 61.2461 171.436 61.6914 171.436 62.166ZM184.312 67.1758C183.649 67.1758 183.049 67.0645 182.51 66.8418C181.977 66.6133 181.517 66.2939 181.13 65.8838C180.749 65.4736 180.456 64.9873 180.251 64.4248C180.046 63.8623 179.943 63.2471 179.943 62.5791V62.21C179.943 61.4365 180.058 60.748 180.286 60.1445C180.515 59.5352 180.825 59.0195 181.218 58.5977C181.61 58.1758 182.056 57.8564 182.554 57.6396C183.052 57.4229 183.567 57.3145 184.101 57.3145C184.78 57.3145 185.366 57.4316 185.858 57.666C186.356 57.9004 186.764 58.2285 187.08 58.6504C187.396 59.0664 187.631 59.5586 187.783 60.127C187.936 60.6895 188.012 61.3047 188.012 61.9727V62.7021H180.91V61.375H186.386V61.252C186.362 60.8301 186.274 60.4199 186.122 60.0215C185.976 59.623 185.741 59.2949 185.419 59.0371C185.097 58.7793 184.657 58.6504 184.101 58.6504C183.731 58.6504 183.392 58.7295 183.081 58.8877C182.771 59.04 182.504 59.2686 182.281 59.5732C182.059 59.8779 181.886 60.25 181.763 60.6895C181.64 61.1289 181.578 61.6357 181.578 62.21V62.5791C181.578 63.0303 181.64 63.4551 181.763 63.8535C181.892 64.2461 182.076 64.5918 182.316 64.8906C182.562 65.1895 182.858 65.4238 183.204 65.5938C183.556 65.7637 183.954 65.8486 184.399 65.8486C184.974 65.8486 185.46 65.7314 185.858 65.4971C186.257 65.2627 186.605 64.9492 186.904 64.5566L187.889 65.3389C187.684 65.6494 187.423 65.9453 187.106 66.2266C186.79 66.5078 186.4 66.7363 185.938 66.9121C185.48 67.0879 184.938 67.1758 184.312 67.1758ZM189.937 66.1387C189.937 65.8633 190.021 65.6318 190.191 65.4443C190.367 65.251 190.619 65.1543 190.947 65.1543C191.275 65.1543 191.524 65.251 191.694 65.4443C191.87 65.6318 191.958 65.8633 191.958 66.1387C191.958 66.4082 191.87 66.6367 191.694 66.8242C191.524 67.0117 191.275 67.1055 190.947 67.1055C190.619 67.1055 190.367 67.0117 190.191 66.8242C190.021 66.6367 189.937 66.4082 189.937 66.1387Z" fill="#1D1D1D"/>
</svg>
